<?xml version="1.0" encoding="utf-8" standalone="no"?>
<!DOCTYPE svg PUBLIC "-//W3C//DTD SVG 1.1//EN"
  "http://www.w3.org/Graphics/SVG/1.1/DTD/svg11.dtd">
<svg xmlns:xlink="http://www.w3.org/1999/xlink" width="607.071875pt" height="368.177144pt" viewBox="0 0 607.071875 368.177144" xmlns="http://www.w3.org/2000/svg" version="1.1">
 <metadata>
  <rdf:RDF xmlns:dc="http://purl.org/dc/elements/1.1/" xmlns:cc="http://creativecommons.org/ns#" xmlns:rdf="http://www.w3.org/1999/02/22-rdf-syntax-ns#">
   <cc:Work>
    <dc:type rdf:resource="http://purl.org/dc/dcmitype/StillImage"/>
    <dc:date>2025-01-02T20:53:27.166962</dc:date>
    <dc:format>image/svg+xml</dc:format>
    <dc:creator>
     <cc:Agent>
      <dc:title>Matplotlib v3.9.2, https://matplotlib.org/</dc:title>
     </cc:Agent>
    </dc:creator>
   </cc:Work>
  </rdf:RDF>
 </metadata>
 <defs>
  <style type="text/css">*{stroke-linejoin: round; stroke-linecap: butt}</style>
 </defs>
 <g id="figure_1">
  <g id="patch_1">
   <path d="M 0 368.177144 
L 607.071875 368.177144 
L 607.071875 -0 
L 0 -0 
z
" style="fill: #ffffff"/>
  </g>
  <g id="axes_1">
   <g id="patch_2">
    <path d="M 41.871875 300.009375 
L 599.871875 300.009375 
L 599.871875 22.809375 
L 41.871875 22.809375 
z
" style="fill: #ffffff"/>
   </g>
   <g id="matplotlib.axis_1">
    <g id="xtick_1">
     <g id="line2d_1">
      <defs>
       <path id="ma0f0642635" d="M 0 0 
L 0 3.5 
" style="stroke: #000000; stroke-width: 0.8"/>
      </defs>
      <g>
       <use xlink:href="#ma0f0642635" x="85.352394" y="300.009375" style="stroke: #000000; stroke-width: 0.8"/>
      </g>
     </g>
     <g id="text_1">
      <!-- 2024-10-08 -->
      <g transform="translate(69.663463 347.226073) rotate(-45) scale(0.1 -0.1)">
       <defs>
        <path id="KaiTi-32" d="M 300 250 
Q 325 625 650 925 
Q 975 1225 1475 1862 
Q 1975 2500 2125 2850 
Q 2275 3200 2237 3450 
Q 2200 3700 2000 3862 
Q 1800 4025 1537 4000 
Q 1275 3975 1037 3800 
Q 800 3625 675 3275 
L 200 3350 
Q 400 3925 712 4187 
Q 1025 4450 1450 4475 
Q 1700 4500 1900 4462 
Q 2100 4425 2312 4287 
Q 2525 4150 2662 3875 
Q 2800 3600 2762 3212 
Q 2725 2825 2375 2287 
Q 2025 1750 1025 600 
L 2825 600 
L 2825 150 
L 300 150 
L 300 250 
z
" transform="scale(0.015625)"/>
        <path id="KaiTi-30" d="M 225 2537 
Q 250 3200 412 3587 
Q 575 3975 875 4225 
Q 1175 4475 1612 4475 
Q 2050 4475 2375 4112 
Q 2700 3750 2800 3200 
Q 2900 2650 2862 1937 
Q 2825 1225 2612 775 
Q 2400 325 1975 150 
Q 1550 -25 1125 187 
Q 700 400 525 750 
Q 350 1100 275 1487 
Q 200 1875 225 2537 
z
M 750 2687 
Q 675 2000 800 1462 
Q 925 925 1212 700 
Q 1500 475 1800 612 
Q 2100 750 2237 1162 
Q 2375 1575 2375 2062 
Q 2375 2550 2337 2950 
Q 2300 3350 2112 3675 
Q 1925 4000 1612 4012 
Q 1300 4025 1062 3700 
Q 825 3375 750 2687 
z
" transform="scale(0.015625)"/>
        <path id="KaiTi-34" d="M 2000 1100 
L 75 1100 
L 75 1525 
L 2100 4450 
L 2475 4450 
L 2475 1525 
L 3075 1525 
L 3075 1100 
L 2475 1100 
L 2475 150 
L 2000 150 
L 2000 1100 
z
M 2000 1525 
L 2000 3500 
L 600 1525 
L 2000 1525 
z
" transform="scale(0.015625)"/>
        <path id="KaiTi-2d" d="M 2975 2125 
L 125 2125 
L 125 2525 
L 2975 2525 
L 2975 2125 
z
" transform="scale(0.015625)"/>
        <path id="KaiTi-31" d="M 1400 3600 
Q 1075 3275 575 2975 
L 575 3450 
Q 1200 3875 1600 4450 
L 1900 4450 
L 1900 150 
L 1400 150 
L 1400 3600 
z
" transform="scale(0.015625)"/>
        <path id="KaiTi-38" d="M 175 1375 
Q 175 1675 325 1962 
Q 475 2250 825 2425 
Q 525 2600 425 2812 
Q 325 3025 312 3300 
Q 300 3575 387 3775 
Q 475 3975 650 4150 
Q 825 4325 1037 4387 
Q 1250 4450 1500 4450 
Q 1750 4450 1950 4400 
Q 2150 4350 2375 4187 
Q 2600 4025 2700 3725 
Q 2800 3425 2687 3025 
Q 2575 2625 2100 2400 
Q 2525 2275 2700 2012 
Q 2875 1750 2875 1375 
Q 2875 1000 2762 775 
Q 2650 550 2512 400 
Q 2375 250 2137 162 
Q 1900 75 1537 75 
Q 1175 75 912 162 
Q 650 250 475 425 
Q 300 600 237 837 
Q 175 1075 175 1375 
z
M 687 1400 
Q 675 1100 787 875 
Q 900 650 1200 587 
Q 1500 525 1825 600 
Q 2150 675 2275 950 
Q 2400 1225 2362 1500 
Q 2325 1775 2050 1962 
Q 1775 2150 1450 2125 
Q 1125 2100 912 1900 
Q 700 1700 687 1400 
z
M 775 3350 
Q 775 3100 950 2875 
Q 1125 2650 1500 2650 
Q 1875 2650 2062 2875 
Q 2250 3100 2237 3412 
Q 2225 3725 2012 3875 
Q 1800 4025 1437 4000 
Q 1075 3975 925 3787 
Q 775 3600 775 3350 
z
" transform="scale(0.015625)"/>
       </defs>
       <use xlink:href="#KaiTi-32"/>
       <use xlink:href="#KaiTi-30" x="50"/>
       <use xlink:href="#KaiTi-32" x="100"/>
       <use xlink:href="#KaiTi-34" x="150"/>
       <use xlink:href="#KaiTi-2d" x="200"/>
       <use xlink:href="#KaiTi-31" x="250"/>
       <use xlink:href="#KaiTi-30" x="300"/>
       <use xlink:href="#KaiTi-2d" x="350"/>
       <use xlink:href="#KaiTi-30" x="400"/>
       <use xlink:href="#KaiTi-38" x="450"/>
      </g>
     </g>
    </g>
    <g id="xtick_2">
     <g id="line2d_2">
      <g>
       <use xlink:href="#ma0f0642635" x="148.761485" y="300.009375" style="stroke: #000000; stroke-width: 0.8"/>
      </g>
     </g>
     <g id="text_2">
      <!-- 2024-10-15 -->
      <g transform="translate(133.072554 347.226073) rotate(-45) scale(0.1 -0.1)">
       <defs>
        <path id="KaiTi-35" d="M 550 1325 
Q 725 650 1150 575 
Q 1575 500 1837 662 
Q 2100 825 2212 1087 
Q 2325 1350 2312 1675 
Q 2300 2000 2137 2225 
Q 1975 2450 1725 2525 
Q 1475 2600 1162 2525 
Q 850 2450 650 2175 
L 225 2225 
Q 275 2375 700 4375 
L 2675 4375 
L 2675 3925 
L 1075 3925 
Q 950 3250 825 2850 
Q 1200 3025 1525 3012 
Q 1850 3000 2150 2862 
Q 2450 2725 2587 2487 
Q 2725 2250 2787 2012 
Q 2850 1775 2837 1500 
Q 2825 1225 2725 937 
Q 2625 650 2425 462 
Q 2225 275 1937 162 
Q 1650 50 1275 75 
Q 900 100 562 350 
Q 225 600 100 1200 
L 550 1325 
z
" transform="scale(0.015625)"/>
       </defs>
       <use xlink:href="#KaiTi-32"/>
       <use xlink:href="#KaiTi-30" x="50"/>
       <use xlink:href="#KaiTi-32" x="100"/>
       <use xlink:href="#KaiTi-34" x="150"/>
       <use xlink:href="#KaiTi-2d" x="200"/>
       <use xlink:href="#KaiTi-31" x="250"/>
       <use xlink:href="#KaiTi-30" x="300"/>
       <use xlink:href="#KaiTi-2d" x="350"/>
       <use xlink:href="#KaiTi-31" x="400"/>
       <use xlink:href="#KaiTi-35" x="450"/>
      </g>
     </g>
    </g>
    <g id="xtick_3">
     <g id="line2d_3">
      <g>
       <use xlink:href="#ma0f0642635" x="212.170576" y="300.009375" style="stroke: #000000; stroke-width: 0.8"/>
      </g>
     </g>
     <g id="text_3">
      <!-- 2024-10-22 -->
      <g transform="translate(196.481645 347.226073) rotate(-45) scale(0.1 -0.1)">
       <use xlink:href="#KaiTi-32"/>
       <use xlink:href="#KaiTi-30" x="50"/>
       <use xlink:href="#KaiTi-32" x="100"/>
       <use xlink:href="#KaiTi-34" x="150"/>
       <use xlink:href="#KaiTi-2d" x="200"/>
       <use xlink:href="#KaiTi-31" x="250"/>
       <use xlink:href="#KaiTi-30" x="300"/>
       <use xlink:href="#KaiTi-2d" x="350"/>
       <use xlink:href="#KaiTi-32" x="400"/>
       <use xlink:href="#KaiTi-32" x="450"/>
      </g>
     </g>
    </g>
    <g id="xtick_4">
     <g id="line2d_4">
      <g>
       <use xlink:href="#ma0f0642635" x="302.754992" y="300.009375" style="stroke: #000000; stroke-width: 0.8"/>
      </g>
     </g>
     <g id="text_4">
      <!-- 2024-11-01 -->
      <g transform="translate(287.06606 347.226073) rotate(-45) scale(0.1 -0.1)">
       <use xlink:href="#KaiTi-32"/>
       <use xlink:href="#KaiTi-30" x="50"/>
       <use xlink:href="#KaiTi-32" x="100"/>
       <use xlink:href="#KaiTi-34" x="150"/>
       <use xlink:href="#KaiTi-2d" x="200"/>
       <use xlink:href="#KaiTi-31" x="250"/>
       <use xlink:href="#KaiTi-31" x="300"/>
       <use xlink:href="#KaiTi-2d" x="350"/>
       <use xlink:href="#KaiTi-30" x="400"/>
       <use xlink:href="#KaiTi-31" x="450"/>
      </g>
     </g>
    </g>
    <g id="xtick_5">
     <g id="line2d_5">
      <g>
       <use xlink:href="#ma0f0642635" x="366.164083" y="300.009375" style="stroke: #000000; stroke-width: 0.8"/>
      </g>
     </g>
     <g id="text_5">
      <!-- 2024-11-08 -->
      <g transform="translate(350.475151 347.226073) rotate(-45) scale(0.1 -0.1)">
       <use xlink:href="#KaiTi-32"/>
       <use xlink:href="#KaiTi-30" x="50"/>
       <use xlink:href="#KaiTi-32" x="100"/>
       <use xlink:href="#KaiTi-34" x="150"/>
       <use xlink:href="#KaiTi-2d" x="200"/>
       <use xlink:href="#KaiTi-31" x="250"/>
       <use xlink:href="#KaiTi-31" x="300"/>
       <use xlink:href="#KaiTi-2d" x="350"/>
       <use xlink:href="#KaiTi-30" x="400"/>
       <use xlink:href="#KaiTi-38" x="450"/>
      </g>
     </g>
    </g>
    <g id="xtick_6">
     <g id="line2d_6">
      <g>
       <use xlink:href="#ma0f0642635" x="429.573174" y="300.009375" style="stroke: #000000; stroke-width: 0.8"/>
      </g>
     </g>
     <g id="text_6">
      <!-- 2024-11-15 -->
      <g transform="translate(413.884242 347.226073) rotate(-45) scale(0.1 -0.1)">
       <use xlink:href="#KaiTi-32"/>
       <use xlink:href="#KaiTi-30" x="50"/>
       <use xlink:href="#KaiTi-32" x="100"/>
       <use xlink:href="#KaiTi-34" x="150"/>
       <use xlink:href="#KaiTi-2d" x="200"/>
       <use xlink:href="#KaiTi-31" x="250"/>
       <use xlink:href="#KaiTi-31" x="300"/>
       <use xlink:href="#KaiTi-2d" x="350"/>
       <use xlink:href="#KaiTi-31" x="400"/>
       <use xlink:href="#KaiTi-35" x="450"/>
      </g>
     </g>
    </g>
    <g id="xtick_7">
     <g id="line2d_7">
      <g>
       <use xlink:href="#ma0f0642635" x="492.982265" y="300.009375" style="stroke: #000000; stroke-width: 0.8"/>
      </g>
     </g>
     <g id="text_7">
      <!-- 2024-11-22 -->
      <g transform="translate(477.293333 347.226073) rotate(-45) scale(0.1 -0.1)">
       <use xlink:href="#KaiTi-32"/>
       <use xlink:href="#KaiTi-30" x="50"/>
       <use xlink:href="#KaiTi-32" x="100"/>
       <use xlink:href="#KaiTi-34" x="150"/>
       <use xlink:href="#KaiTi-2d" x="200"/>
       <use xlink:href="#KaiTi-31" x="250"/>
       <use xlink:href="#KaiTi-31" x="300"/>
       <use xlink:href="#KaiTi-2d" x="350"/>
       <use xlink:href="#KaiTi-32" x="400"/>
       <use xlink:href="#KaiTi-32" x="450"/>
      </g>
     </g>
    </g>
    <g id="xtick_8">
     <g id="line2d_8">
      <g>
       <use xlink:href="#ma0f0642635" x="574.508239" y="300.009375" style="stroke: #000000; stroke-width: 0.8"/>
      </g>
     </g>
     <g id="text_8">
      <!-- 2024-12-01 -->
      <g transform="translate(558.819307 347.226073) rotate(-45) scale(0.1 -0.1)">
       <use xlink:href="#KaiTi-32"/>
       <use xlink:href="#KaiTi-30" x="50"/>
       <use xlink:href="#KaiTi-32" x="100"/>
       <use xlink:href="#KaiTi-34" x="150"/>
       <use xlink:href="#KaiTi-2d" x="200"/>
       <use xlink:href="#KaiTi-31" x="250"/>
       <use xlink:href="#KaiTi-32" x="300"/>
       <use xlink:href="#KaiTi-2d" x="350"/>
       <use xlink:href="#KaiTi-30" x="400"/>
       <use xlink:href="#KaiTi-31" x="450"/>
      </g>
     </g>
    </g>
    <g id="text_9">
     <!-- 时间 -->
     <g transform="translate(310.871875 359.727144) scale(0.1 -0.1)">
      <defs>
       <path id="KaiTi-65f6" d="M 1900 850 
Q 1550 825 1150 750 
Q 1100 200 925 525 
Q 750 850 825 1125 
Q 900 1400 912 2475 
Q 925 3550 787 3825 
Q 650 4100 837 4025 
Q 1025 3950 1387 4000 
Q 1750 4050 1850 4125 
Q 1950 4200 2262 4062 
Q 2575 3925 2487 3812 
Q 2400 3700 2325 3450 
Q 2250 3200 2287 2100 
Q 2325 1000 2225 650 
Q 2125 300 2050 362 
Q 1975 425 1900 850 
z
M 4575 3250 
Q 5075 3300 5375 3362 
Q 5675 3425 5912 3212 
Q 6150 3000 5737 3012 
Q 5325 3025 4575 2950 
Q 4575 1975 4625 1050 
Q 4675 125 4450 -275 
Q 4225 -675 4112 -375 
Q 4000 -75 3725 200 
Q 3450 475 3600 425 
Q 3750 375 3950 300 
Q 4150 225 4200 362 
Q 4250 500 4262 837 
Q 4275 1175 4275 2925 
Q 3325 2775 3075 2725 
Q 2825 2675 2600 2862 
Q 2375 3050 2600 3037 
Q 2825 3025 3250 3062 
Q 3675 3100 4250 3175 
Q 4250 4450 4075 4725 
Q 3900 5000 4100 4962 
Q 4300 4925 4512 4837 
Q 4725 4750 4637 4512 
Q 4550 4275 4575 3250 
z
M 1150 975 
Q 1575 1050 1900 1050 
Q 2000 1275 2000 1700 
L 2000 2900 
Q 2000 3675 1925 3812 
Q 1850 3950 1175 3750 
L 1175 2500 
Q 1350 2575 1537 2625 
Q 1725 2675 1812 2562 
Q 1900 2450 1675 2387 
Q 1450 2325 1150 2325 
L 1150 975 
z
M 2950 1975 
Q 2750 2250 3125 2200 
Q 3500 2150 3612 1962 
Q 3725 1775 3675 1587 
Q 3625 1400 3400 1562 
Q 3175 1725 2950 1975 
z
" transform="scale(0.015625)"/>
       <path id="KaiTi-95f4" d="M 2625 1375 
Q 2550 900 2400 1112 
Q 2250 1325 2300 1675 
Q 2350 2025 2337 2487 
Q 2325 2950 2200 3187 
Q 2075 3425 2275 3400 
Q 2475 3375 2562 3350 
Q 2650 3325 3025 3387 
Q 3400 3450 3525 3537 
Q 3650 3625 3825 3562 
Q 4000 3500 4125 3412 
Q 4250 3325 4150 3187 
Q 4050 3050 4037 2850 
Q 4025 2650 4050 2100 
Q 4075 1550 3962 1212 
Q 3850 875 3762 1037 
Q 3675 1200 3575 1400 
Q 2900 1375 2625 1375 
z
M 4925 700 
Q 4975 1025 4962 1775 
Q 4950 2525 4925 3350 
Q 4900 4175 4800 4300 
Q 4700 4425 4225 4350 
Q 3750 4275 3425 4187 
Q 3100 4100 2875 4250 
Q 2650 4400 2937 4387 
Q 3225 4375 3887 4512 
Q 4550 4650 4662 4725 
Q 4775 4800 4962 4737 
Q 5150 4675 5350 4537 
Q 5550 4400 5387 4250 
Q 5225 4100 5250 3325 
Q 5275 2550 5337 1700 
Q 5400 850 5350 400 
Q 5300 -50 5162 -312 
Q 5025 -575 4875 -287 
Q 4725 0 4437 250 
Q 4150 500 4387 450 
Q 4625 400 4750 400 
Q 4875 400 4925 700 
z
M 2625 1550 
Q 2975 1575 3212 1600 
Q 3450 1625 3587 1600 
Q 3725 1575 3700 2237 
Q 3675 2900 3650 3050 
Q 3625 3200 3500 3225 
Q 3375 3250 2625 3150 
L 2625 2475 
Q 2800 2475 3050 2537 
Q 3300 2600 3400 2487 
Q 3500 2375 3200 2312 
Q 2900 2250 2625 2275 
L 2625 1550 
z
M 1575 3950 
Q 1775 3850 1662 3675 
Q 1550 3500 1537 2875 
Q 1525 2250 1500 1612 
Q 1475 975 1387 437 
Q 1300 -100 1112 362 
Q 925 825 1062 1087 
Q 1200 1350 1262 2500 
Q 1325 3650 1150 3912 
Q 975 4175 1187 4125 
Q 1400 4075 1575 3950 
z
M 2175 4675 
Q 2375 4500 2300 4262 
Q 2225 4025 2025 4212 
Q 1825 4400 1637 4687 
Q 1450 4975 1725 4912 
Q 2000 4850 2175 4675 
z
" transform="scale(0.015625)"/>
      </defs>
      <use xlink:href="#KaiTi-65f6"/>
      <use xlink:href="#KaiTi-95f4" x="100"/>
     </g>
    </g>
   </g>
   <g id="matplotlib.axis_2">
    <g id="ytick_1">
     <g id="line2d_9">
      <defs>
       <path id="mdf0cd6de10" d="M 0 0 
L -3.5 0 
" style="stroke: #000000; stroke-width: 0.8"/>
      </defs>
      <g>
       <use xlink:href="#mdf0cd6de10" x="41.871875" y="272.506149" style="stroke: #000000; stroke-width: 0.8"/>
      </g>
     </g>
     <g id="text_10">
      <!-- 50 -->
      <g transform="translate(24.871875 275.943649) scale(0.1 -0.1)">
       <use xlink:href="#KaiTi-35"/>
       <use xlink:href="#KaiTi-30" x="50"/>
      </g>
     </g>
    </g>
    <g id="ytick_2">
     <g id="line2d_10">
      <g>
       <use xlink:href="#mdf0cd6de10" x="41.871875" y="238.635181" style="stroke: #000000; stroke-width: 0.8"/>
      </g>
     </g>
     <g id="text_11">
      <!-- 100 -->
      <g transform="translate(19.871875 242.072681) scale(0.1 -0.1)">
       <use xlink:href="#KaiTi-31"/>
       <use xlink:href="#KaiTi-30" x="50"/>
       <use xlink:href="#KaiTi-30" x="100"/>
      </g>
     </g>
    </g>
    <g id="ytick_3">
     <g id="line2d_11">
      <g>
       <use xlink:href="#mdf0cd6de10" x="41.871875" y="204.764214" style="stroke: #000000; stroke-width: 0.8"/>
      </g>
     </g>
     <g id="text_12">
      <!-- 150 -->
      <g transform="translate(19.871875 208.201714) scale(0.1 -0.1)">
       <use xlink:href="#KaiTi-31"/>
       <use xlink:href="#KaiTi-35" x="50"/>
       <use xlink:href="#KaiTi-30" x="100"/>
      </g>
     </g>
    </g>
    <g id="ytick_4">
     <g id="line2d_12">
      <g>
       <use xlink:href="#mdf0cd6de10" x="41.871875" y="170.893246" style="stroke: #000000; stroke-width: 0.8"/>
      </g>
     </g>
     <g id="text_13">
      <!-- 200 -->
      <g transform="translate(19.871875 174.330746) scale(0.1 -0.1)">
       <use xlink:href="#KaiTi-32"/>
       <use xlink:href="#KaiTi-30" x="50"/>
       <use xlink:href="#KaiTi-30" x="100"/>
      </g>
     </g>
    </g>
    <g id="ytick_5">
     <g id="line2d_13">
      <g>
       <use xlink:href="#mdf0cd6de10" x="41.871875" y="137.022278" style="stroke: #000000; stroke-width: 0.8"/>
      </g>
     </g>
     <g id="text_14">
      <!-- 250 -->
      <g transform="translate(19.871875 140.459778) scale(0.1 -0.1)">
       <use xlink:href="#KaiTi-32"/>
       <use xlink:href="#KaiTi-35" x="50"/>
       <use xlink:href="#KaiTi-30" x="100"/>
      </g>
     </g>
    </g>
    <g id="ytick_6">
     <g id="line2d_14">
      <g>
       <use xlink:href="#mdf0cd6de10" x="41.871875" y="103.15131" style="stroke: #000000; stroke-width: 0.8"/>
      </g>
     </g>
     <g id="text_15">
      <!-- 300 -->
      <g transform="translate(19.871875 106.58881) scale(0.1 -0.1)">
       <defs>
        <path id="KaiTi-33" d="M 250 1225 
L 700 1300 
Q 800 975 1025 762 
Q 1250 550 1587 562 
Q 1925 575 2125 837 
Q 2325 1100 2300 1437 
Q 2275 1775 2037 1962 
Q 1800 2150 1275 2225 
L 1275 2550 
Q 1800 2600 2037 2825 
Q 2275 3050 2250 3412 
Q 2225 3775 1925 3937 
Q 1625 4100 1287 3975 
Q 950 3850 750 3275 
L 300 3350 
Q 450 3800 712 4100 
Q 975 4400 1425 4450 
Q 1875 4500 2212 4337 
Q 2550 4175 2687 3837 
Q 2825 3500 2725 3100 
Q 2625 2700 2150 2400 
Q 2500 2250 2687 1950 
Q 2875 1650 2812 1162 
Q 2750 675 2375 375 
Q 2000 75 1525 87 
Q 1050 100 700 387 
Q 350 675 250 1225 
z
" transform="scale(0.015625)"/>
       </defs>
       <use xlink:href="#KaiTi-33"/>
       <use xlink:href="#KaiTi-30" x="50"/>
       <use xlink:href="#KaiTi-30" x="100"/>
      </g>
     </g>
    </g>
    <g id="ytick_7">
     <g id="line2d_15">
      <g>
       <use xlink:href="#mdf0cd6de10" x="41.871875" y="69.280343" style="stroke: #000000; stroke-width: 0.8"/>
      </g>
     </g>
     <g id="text_16">
      <!-- 350 -->
      <g transform="translate(19.871875 72.717843) scale(0.1 -0.1)">
       <use xlink:href="#KaiTi-33"/>
       <use xlink:href="#KaiTi-35" x="50"/>
       <use xlink:href="#KaiTi-30" x="100"/>
      </g>
     </g>
    </g>
    <g id="ytick_8">
     <g id="line2d_16">
      <g>
       <use xlink:href="#mdf0cd6de10" x="41.871875" y="35.409375" style="stroke: #000000; stroke-width: 0.8"/>
      </g>
     </g>
     <g id="text_17">
      <!-- 400 -->
      <g transform="translate(19.871875 38.846875) scale(0.1 -0.1)">
       <use xlink:href="#KaiTi-34"/>
       <use xlink:href="#KaiTi-30" x="50"/>
       <use xlink:href="#KaiTi-30" x="100"/>
      </g>
     </g>
    </g>
    <g id="text_18">
     <!-- 提交次数 -->
     <g transform="translate(14.621875 181.409375) rotate(-90) scale(0.1 -0.1)">
      <defs>
       <path id="KaiTi-63d0" d="M 4150 1575 
Q 4475 1600 4675 1662 
Q 4875 1725 5037 1600 
Q 5200 1475 4887 1400 
Q 4575 1325 4150 1400 
L 4150 800 
Q 4500 575 5012 400 
Q 5525 225 5975 162 
Q 6425 100 6162 25 
Q 5900 -50 5575 -112 
Q 5250 -175 5025 -125 
Q 4800 -75 4537 137 
Q 4275 350 3925 625 
Q 3575 900 3175 1200 
Q 2900 850 2737 650 
Q 2575 450 2275 287 
Q 1975 125 2275 450 
Q 2575 775 2787 1200 
Q 3000 1625 2962 1787 
Q 2925 1950 3187 1825 
Q 3450 1700 3375 1600 
Q 3300 1500 3225 1350 
Q 3475 1175 3875 975 
Q 3850 2050 3800 2125 
Q 2950 1975 2800 1937 
Q 2650 1900 2437 2062 
Q 2225 2225 2500 2212 
Q 2775 2200 3712 2337 
Q 4650 2475 4987 2587 
Q 5325 2700 5600 2512 
Q 5875 2325 5400 2287 
Q 4925 2250 4150 2175 
L 4150 1575 
z
M 4475 2950 
Q 4225 2900 3650 2775 
Q 3475 2500 3362 2975 
Q 3250 3450 3175 3775 
Q 3100 4100 2975 4225 
Q 2850 4350 3000 4350 
Q 3175 4350 3300 4337 
Q 3425 4325 3937 4462 
Q 4450 4600 4550 4662 
Q 4650 4725 4812 4625 
Q 4975 4525 5137 4400 
Q 5300 4275 5175 4175 
Q 5050 4075 4937 3737 
Q 4825 3400 4725 3087 
Q 4625 2775 4475 2950 
z
M 1950 3400 
Q 2175 3475 2325 3500 
Q 2475 3525 2550 3425 
Q 2625 3325 2437 3237 
Q 2250 3150 1950 3050 
L 1950 2450 
Q 2325 2750 2437 2725 
Q 2550 2700 2412 2562 
Q 2275 2425 1950 2175 
Q 1950 1300 1962 612 
Q 1975 -75 1800 -262 
Q 1625 -450 1550 -225 
Q 1475 0 1200 250 
Q 925 500 1162 425 
Q 1400 350 1525 362 
Q 1650 375 1662 875 
Q 1675 1375 1675 1850 
Q 950 1225 825 1062 
Q 700 900 400 1087 
Q 100 1275 325 1300 
Q 550 1325 887 1575 
Q 1225 1825 1675 2225 
L 1675 2975 
Q 1375 2900 1175 2862 
Q 975 2825 737 2900 
Q 500 2975 737 3037 
Q 975 3100 1675 3300 
Q 1675 3800 1662 4225 
Q 1650 4650 1550 4812 
Q 1450 4975 1600 4962 
Q 1750 4950 1937 4850 
Q 2125 4750 2062 4612 
Q 2000 4475 1975 4200 
Q 1950 3925 1950 3400 
z
M 3450 4175 
Q 3475 4025 3500 3700 
Q 3800 3775 3962 3862 
Q 4125 3950 4300 3837 
Q 4475 3725 4137 3625 
Q 3800 3525 3550 3550 
Q 3600 3150 3625 2975 
Q 4300 3125 4475 3150 
Q 4575 3725 4600 4025 
Q 4625 4325 4487 4337 
Q 4350 4350 3450 4175 
z
" transform="scale(0.015625)"/>
       <path id="KaiTi-4ea4" d="M 3225 1275 
Q 3500 1050 4062 700 
Q 4625 350 5075 250 
Q 5525 150 5950 75 
Q 6375 0 6062 -100 
Q 5750 -200 5225 -275 
Q 4700 -350 4362 -62 
Q 4025 225 3050 1025 
Q 2600 525 2050 262 
Q 1500 0 975 -37 
Q 450 -75 975 87 
Q 1500 250 2025 575 
Q 2550 900 2775 1250 
Q 2550 1525 2312 1700 
Q 2075 1875 1900 1950 
Q 1725 2025 1950 2075 
Q 2175 2125 2350 1975 
Q 2525 1825 2975 1475 
Q 3125 1675 3262 2012 
Q 3400 2350 3337 2550 
Q 3275 2750 3475 2662 
Q 3675 2575 3800 2462 
Q 3925 2350 3837 2250 
Q 3750 2150 3600 1887 
Q 3450 1625 3225 1275 
z
M 1875 3800 
Q 2375 3850 3300 4000 
Q 4225 4150 4537 4200 
Q 4850 4250 5100 4062 
Q 5350 3875 5212 3825 
Q 5075 3775 4537 3787 
Q 4000 3800 3350 3725 
Q 2700 3650 2300 3587 
Q 1900 3525 1587 3462 
Q 1275 3400 1000 3562 
Q 725 3725 1050 3737 
Q 1375 3750 1875 3800 
z
M 2075 3175 
Q 2075 3375 2287 3262 
Q 2500 3150 2625 3012 
Q 2750 2875 2612 2837 
Q 2475 2800 2112 2500 
Q 1750 2200 1362 2037 
Q 975 1875 1300 2137 
Q 1625 2400 1862 2700 
Q 2100 3000 2075 3175 
z
M 3775 3325 
Q 4275 3250 4462 3050 
Q 4650 2850 4600 2637 
Q 4550 2425 4237 2612 
Q 3925 2800 3600 3112 
Q 3275 3425 3775 3325 
z
M 2600 4775 
Q 2325 5100 2712 5037 
Q 3100 4975 3250 4812 
Q 3400 4650 3350 4412 
Q 3300 4175 3087 4312 
Q 2875 4450 2600 4775 
z
" transform="scale(0.015625)"/>
       <path id="KaiTi-6b21" d="M 3250 1925 
Q 3725 1325 4175 912 
Q 4625 500 4987 375 
Q 5350 250 5737 150 
Q 6125 50 5975 -25 
Q 5825 -100 5150 -150 
Q 4475 -200 4212 162 
Q 3950 525 3175 1725 
Q 2975 900 2612 512 
Q 2250 125 1637 -37 
Q 1025 -200 1500 25 
Q 1975 250 2287 625 
Q 2600 1000 2712 1350 
Q 2825 1700 2862 1950 
Q 2900 2200 2812 2337 
Q 2725 2475 2900 2450 
Q 3075 2425 3225 2350 
Q 3375 2275 3312 2200 
Q 3250 2125 3250 1925 
z
M 3050 3100 
Q 3400 3125 3775 3250 
Q 4150 3375 4337 3487 
Q 4525 3600 4737 3525 
Q 4950 3450 5162 3275 
Q 5375 3100 5025 3000 
Q 4675 2900 4325 2575 
Q 3975 2250 4112 2525 
Q 4250 2800 4300 2950 
Q 4350 3100 4187 3087 
Q 4025 3075 3625 2962 
Q 3225 2850 3000 2975 
Q 2700 2525 2425 2350 
Q 2150 2175 2425 2562 
Q 2700 2950 2950 3675 
Q 3200 4400 3112 4662 
Q 3025 4925 3225 4862 
Q 3425 4800 3587 4675 
Q 3750 4550 3662 4450 
Q 3575 4350 3437 4000 
Q 3300 3650 3050 3100 
z
M 1725 2225 
Q 2050 2600 1875 2237 
Q 1700 1875 1437 1475 
Q 1175 1075 987 650 
Q 800 225 587 600 
Q 375 975 512 1012 
Q 650 1050 1025 1450 
Q 1400 1850 1725 2225 
z
M 1100 3425 
Q 950 3625 862 3775 
Q 775 3925 1162 3812 
Q 1550 3700 1662 3462 
Q 1775 3225 1700 3050 
Q 1625 2875 1437 3050 
Q 1250 3225 1100 3425 
z
" transform="scale(0.015625)"/>
       <path id="KaiTi-6570" d="M 4100 1300 
Q 4275 1625 4312 1987 
Q 4350 2350 4325 2725 
Q 4125 2700 3875 2725 
Q 3575 2375 3325 2225 
Q 3075 2075 3387 2462 
Q 3700 2850 3912 3487 
Q 4125 4125 4100 4275 
Q 4075 4425 4062 4537 
Q 4050 4650 4362 4487 
Q 4675 4325 4562 4175 
Q 4450 4025 4337 3712 
Q 4225 3400 3925 2850 
Q 4525 2975 4912 3162 
Q 5300 3350 5512 3212 
Q 5725 3075 5450 2975 
Q 5175 2875 4425 2725 
Q 4800 2600 4712 2350 
Q 4625 2100 4562 1775 
Q 4500 1450 4325 1025 
Q 4550 750 4837 512 
Q 5125 275 5437 150 
Q 5750 25 5975 -62 
Q 6200 -150 5737 -187 
Q 5275 -225 5037 -187 
Q 4800 -150 4687 25 
Q 4575 200 4125 800 
Q 3900 550 3675 400 
Q 3450 250 3175 175 
Q 2900 100 3162 262 
Q 3425 425 3625 625 
Q 3825 825 3975 1050 
Q 3800 1350 3637 1562 
Q 3475 1775 3362 1900 
Q 3250 2025 3387 2037 
Q 3525 2050 3612 1950 
Q 3700 1850 4100 1300 
z
M 2575 1600 
Q 2625 1750 2612 1862 
Q 2600 1975 2750 1875 
Q 2900 1775 2962 1700 
Q 3025 1625 2962 1500 
Q 2900 1375 2800 1112 
Q 2700 850 2525 550 
Q 2700 425 2837 300 
Q 2975 175 2925 -62 
Q 2875 -300 2712 -100 
Q 2550 100 2325 275 
Q 1925 -25 1587 -150 
Q 1250 -275 912 -300 
Q 575 -325 850 -212 
Q 1125 -100 1450 50 
Q 1775 200 2050 475 
Q 1750 700 1637 750 
Q 1525 800 1587 900 
Q 1650 1000 1700 1250 
Q 1050 1175 862 1062 
Q 675 950 425 1150 
Q 175 1350 500 1337 
Q 825 1325 1775 1475 
Q 1850 1800 1800 1987 
Q 1750 2175 2025 2037 
Q 2300 1900 2250 1825 
Q 2200 1750 2075 1525 
L 2575 1600 
z
M 2875 3425 
Q 3125 3475 3225 3387 
Q 3325 3300 3100 3225 
Q 2875 3150 2350 3075 
L 2350 2875 
Q 2775 2825 2975 2687 
Q 3175 2550 3112 2350 
Q 3050 2150 2812 2412 
Q 2575 2675 2350 2800 
Q 2350 2500 2300 2287 
Q 2250 2075 2137 2262 
Q 2025 2450 2062 2600 
Q 2100 2750 2075 2950 
Q 1475 2175 975 1937 
Q 475 1700 762 1925 
Q 1050 2150 1362 2475 
Q 1675 2800 1800 3050 
Q 1450 2925 1312 2900 
Q 1175 2875 975 3012 
Q 775 3150 1050 3137 
Q 1325 3125 2100 3275 
L 2100 4175 
Q 2100 4700 2012 4837 
Q 1925 4975 1987 4987 
Q 2050 5000 2300 4887 
Q 2550 4775 2462 4625 
Q 2375 4475 2375 3325 
L 2875 3425 
z
M 2250 675 
Q 2450 925 2575 1425 
L 2000 1325 
Q 1825 925 1837 875 
Q 1850 825 1937 800 
Q 2025 775 2250 675 
z
M 3250 4275 
Q 3450 4150 3300 4087 
Q 3150 4025 2762 3737 
Q 2375 3450 2600 3737 
Q 2825 4025 2900 4237 
Q 2975 4450 3025 4425 
Q 3075 4400 3250 4275 
z
M 1550 3600 
Q 1350 3875 1287 4000 
Q 1225 4125 1537 4050 
Q 1850 3975 1812 3662 
Q 1775 3350 1550 3600 
z
" transform="scale(0.015625)"/>
      </defs>
      <use xlink:href="#KaiTi-63d0"/>
      <use xlink:href="#KaiTi-4ea4" x="100"/>
      <use xlink:href="#KaiTi-6b21" x="200"/>
      <use xlink:href="#KaiTi-6570" x="300"/>
     </g>
    </g>
   </g>
   <g id="line2d_17">
    <path d="M 67.235511 53.022278 
L 130.644602 45.570665 
L 194.053693 117.377117 
L 257.462784 35.409375 
L 320.871875 39.473891 
L 384.280966 53.022278 
L 447.690057 95.022278 
L 511.099148 134.312601 
L 574.508239 171.570665 
" clip-path="url(#p64cb98df68)" style="fill: none; stroke: #1f77b4; stroke-width: 1.5; stroke-linecap: square"/>
   </g>
   <g id="line2d_18">
    <path d="M 67.235511 172.925504 
L 130.644602 180.377117 
L 194.053693 55.731956 
L 257.462784 68.602923 
L 320.871875 137.699698 
L 384.280966 174.957762 
L 447.690057 228.473891 
L 511.099148 118.731956 
L 574.508239 269.796472 
" clip-path="url(#p64cb98df68)" style="fill: none; stroke: #ff7f0e; stroke-width: 1.5; stroke-linecap: square"/>
   </g>
   <g id="line2d_19">
    <path d="M 67.235511 287.409375 
L 130.644602 280.635181 
L 194.053693 267.764214 
L 257.462784 286.054536 
L 320.871875 284.022278 
L 384.280966 276.570665 
L 447.690057 147.860988 
L 511.099148 142.441633 
L 574.508239 287.409375 
" clip-path="url(#p64cb98df68)" style="fill: none; stroke: #2ca02c; stroke-width: 1.5; stroke-linecap: square"/>
   </g>
   <g id="patch_3">
    <path d="M 41.871875 300.009375 
L 41.871875 22.809375 
" style="fill: none; stroke: #000000; stroke-width: 0.8; stroke-linejoin: miter; stroke-linecap: square"/>
   </g>
   <g id="patch_4">
    <path d="M 599.871875 300.009375 
L 599.871875 22.809375 
" style="fill: none; stroke: #000000; stroke-width: 0.8; stroke-linejoin: miter; stroke-linecap: square"/>
   </g>
   <g id="patch_5">
    <path d="M 41.871875 300.009375 
L 599.871875 300.009375 
" style="fill: none; stroke: #000000; stroke-width: 0.8; stroke-linejoin: miter; stroke-linecap: square"/>
   </g>
   <g id="patch_6">
    <path d="M 41.871875 22.809375 
L 599.871875 22.809375 
" style="fill: none; stroke: #000000; stroke-width: 0.8; stroke-linejoin: miter; stroke-linecap: square"/>
   </g>
   <g id="text_19">
    <!-- 开发者提交频率随时间变化 -->
    <g transform="translate(248.871875 16.809375) scale(0.12 -0.12)">
     <defs>
      <path id="KaiTi-5f00" d="M 3900 4075 
Q 4050 3950 4112 3850 
Q 4175 3750 4112 3650 
Q 4050 3550 4025 2900 
Q 5050 3000 5325 3062 
Q 5600 3125 5875 2925 
Q 6150 2725 5787 2712 
Q 5425 2700 4050 2600 
Q 4075 1050 4050 300 
Q 4025 -450 3912 -475 
Q 3800 -500 3775 212 
Q 3750 925 3725 2575 
L 2625 2475 
Q 2500 1500 2187 987 
Q 1875 475 1425 200 
Q 975 -75 1325 275 
Q 1675 625 1937 1112 
Q 2200 1600 2300 2425 
Q 1250 2325 1025 2287 
Q 800 2250 550 2450 
Q 300 2650 775 2637 
Q 1250 2625 2325 2725 
Q 2350 3675 2200 3850 
Q 1925 3850 1800 3887 
Q 1675 3925 1550 4037 
Q 1425 4150 1762 4162 
Q 2100 4175 2587 4237 
Q 3075 4300 3550 4375 
Q 4025 4450 4362 4525 
Q 4700 4600 4912 4425 
Q 5125 4250 4862 4200 
Q 4600 4150 3900 4075 
z
M 3700 2850 
Q 3700 3325 3687 3550 
Q 3675 3775 3550 4025 
Q 2775 3925 2500 3900 
Q 2775 3650 2725 3562 
Q 2675 3475 2650 2750 
L 3700 2850 
z
" transform="scale(0.015625)"/>
      <path id="KaiTi-53d1" d="M 3150 3400 
Q 4125 3625 4400 3662 
Q 4675 3700 4850 3537 
Q 5025 3375 4575 3350 
Q 4125 3325 3075 3125 
Q 2975 2850 2725 2250 
Q 3125 2300 3437 2387 
Q 3750 2475 3850 2587 
Q 3950 2700 4100 2637 
Q 4250 2575 4400 2462 
Q 4550 2350 4425 2237 
Q 4300 2125 4187 1750 
Q 4075 1375 3900 1000 
Q 4150 725 4700 400 
Q 5250 75 5737 -50 
Q 6225 -175 5712 -225 
Q 5200 -275 4875 -237 
Q 4550 -200 4325 25 
L 3700 750 
Q 3375 400 2975 212 
Q 2575 25 2237 -12 
Q 1900 -50 2225 87 
Q 2550 225 2887 462 
Q 3225 700 3450 1000 
Q 3225 1250 3025 1462 
Q 2825 1675 2675 1750 
Q 2525 1825 2725 1862 
Q 2925 1900 3050 1775 
L 3625 1200 
Q 3800 1575 3850 1912 
Q 3900 2250 3775 2250 
Q 3650 2250 3487 2200 
Q 3325 2150 3150 2087 
Q 2975 2025 2700 2175 
Q 2375 1450 1987 925 
Q 1600 400 1050 75 
Q 500 -250 1025 250 
Q 1550 750 1937 1387 
Q 2325 2025 2675 3050 
Q 2050 2925 1837 2750 
Q 1625 2575 1537 2700 
Q 1450 2825 1450 2950 
Q 1450 3100 1587 3212 
Q 1725 3325 1837 3600 
Q 1950 3875 1875 4100 
Q 1800 4325 2012 4250 
Q 2225 4175 2325 4050 
Q 2425 3925 2350 3850 
Q 2275 3775 2200 3637 
Q 2125 3500 2050 3325 
Q 1975 3150 2175 3175 
Q 2375 3200 2750 3325 
Q 2900 3675 2975 4175 
Q 3050 4675 2950 4875 
Q 2850 5075 3050 5025 
Q 3250 4975 3450 4862 
Q 3650 4750 3537 4612 
Q 3425 4475 3362 4237 
Q 3300 4000 3150 3400 
z
M 4250 4500 
Q 4075 4675 4412 4637 
Q 4750 4600 4937 4475 
Q 5125 4350 5112 4150 
Q 5100 3950 4962 3987 
Q 4825 4025 4625 4175 
Q 4425 4325 4250 4500 
z
" transform="scale(0.015625)"/>
      <path id="KaiTi-8005" d="M 3200 3950 
Q 3650 4050 3750 4050 
Q 3875 4050 4025 3950 
Q 4175 3850 4000 3787 
Q 3825 3725 3200 3650 
Q 3175 3250 3175 2875 
Q 3375 2900 3550 2925 
Q 4275 3825 4325 4025 
Q 4375 4225 4362 4362 
Q 4350 4500 4525 4425 
Q 4700 4350 4887 4212 
Q 5075 4075 4825 3887 
Q 4575 3700 3925 2925 
Q 4875 3025 5162 3087 
Q 5450 3150 5712 3050 
Q 5975 2950 5925 2850 
Q 5875 2750 5512 2762 
Q 5150 2775 4862 2762 
Q 4575 2750 3725 2700 
Q 3150 2100 2825 1850 
Q 3650 1950 3825 2062 
Q 4000 2175 4300 1987 
Q 4600 1800 4512 1700 
Q 4425 1600 4412 1337 
Q 4400 1075 4425 512 
Q 4450 -50 4262 -325 
Q 4075 -600 4000 -400 
L 3875 -25 
Q 3825 150 3575 137 
Q 3325 125 2650 100 
Q 2550 -400 2412 -137 
Q 2275 125 2325 337 
Q 2375 550 2375 825 
L 2375 1400 
Q 2175 1225 1675 875 
Q 1175 525 775 425 
Q 375 325 725 525 
Q 1075 725 1587 1112 
Q 2100 1500 2325 1700 
Q 2150 1950 2525 1850 
Q 3075 2400 3300 2675 
Q 2425 2550 1837 2475 
Q 1250 2400 987 2350 
Q 725 2300 512 2487 
Q 300 2675 525 2637 
Q 750 2600 2850 2850 
L 2850 3625 
Q 2600 3600 2425 3587 
Q 2250 3575 2062 3675 
Q 1875 3775 2075 3800 
Q 2275 3825 2850 3900 
L 2850 4450 
Q 2850 4700 2737 4925 
Q 2625 5150 2800 5125 
Q 2975 5100 3187 5012 
Q 3400 4925 3300 4750 
Q 3200 4575 3200 3950 
z
M 2650 1100 
Q 3000 1175 3250 1225 
Q 3500 1275 3600 1150 
Q 3700 1025 3300 987 
Q 2900 950 2650 950 
L 2650 250 
Q 3400 375 3600 337 
Q 3800 300 3912 187 
Q 4025 75 4050 475 
Q 4075 875 4037 1287 
Q 4000 1700 3912 1775 
Q 3825 1850 3637 1812 
Q 3450 1775 2650 1700 
L 2650 1100 
z
" transform="scale(0.015625)"/>
      <path id="KaiTi-9891" d="M 2475 3900 
Q 2600 3950 2812 4037 
Q 3025 4125 3150 4025 
Q 3275 3925 3025 3825 
Q 2775 3725 2475 3725 
L 2475 3150 
Q 2825 3225 2975 3237 
Q 3125 3250 3187 3137 
Q 3250 3025 3000 3012 
Q 2750 3000 2150 2875 
Q 2350 2775 2312 2562 
Q 2275 2350 2325 1625 
Q 2675 2175 2650 2412 
Q 2625 2650 2787 2575 
Q 2950 2500 3062 2400 
Q 3175 2300 3100 2212 
Q 3025 2125 2662 1575 
Q 2300 1025 1787 587 
Q 1275 150 787 12 
Q 300 -125 700 87 
Q 1100 300 1462 625 
Q 1825 950 2100 1350 
Q 1925 1550 2000 1937 
Q 2075 2325 1925 2825 
Q 1200 2650 1000 2587 
Q 800 2525 550 2675 
Q 300 2825 600 2850 
Q 900 2875 1400 2950 
Q 1325 3500 1175 3675 
Q 1025 3850 1337 3775 
Q 1650 3700 1637 3575 
Q 1625 3450 1650 3000 
Q 1800 3025 2225 3100 
Q 2225 3450 2175 3950 
Q 2125 4450 2000 4650 
Q 1875 4850 2250 4712 
Q 2625 4575 2550 4487 
Q 2475 4400 2475 3900 
z
M 4375 4150 
Q 4600 3950 4512 3862 
Q 4425 3775 4150 3325 
Q 4725 3425 4862 3487 
Q 5000 3550 5137 3500 
Q 5275 3450 5425 3350 
Q 5575 3250 5500 3125 
Q 5425 3000 5425 2600 
Q 5425 2225 5462 1900 
Q 5500 1575 5400 1212 
Q 5300 850 5200 1025 
Q 5100 1200 5125 1400 
Q 5150 1600 5125 2337 
Q 5100 3075 5000 3175 
Q 4900 3275 4512 3212 
Q 4125 3150 3750 3075 
Q 3750 1750 3675 1350 
Q 3600 950 3475 1162 
Q 3350 1375 3400 1625 
Q 3450 1875 3475 2425 
Q 3500 2975 3400 3150 
Q 3300 3325 3500 3275 
Q 3700 3225 3925 3250 
Q 4175 3825 4100 4100 
L 3675 4025 
Q 3550 4000 3362 4125 
Q 3175 4250 3437 4237 
Q 3700 4225 4300 4337 
Q 4900 4450 5137 4525 
Q 5375 4600 5587 4575 
Q 5800 4550 5937 4412 
Q 6075 4275 5650 4275 
Q 5225 4275 4375 4150 
z
M 4375 2775 
Q 4675 2675 4637 2550 
Q 4600 2425 4525 1787 
Q 4450 1150 4187 775 
Q 3925 400 3575 175 
Q 3225 -50 2737 -137 
Q 2250 -225 2812 25 
Q 3375 275 3712 650 
Q 4050 1025 4150 1437 
Q 4250 1850 4250 2175 
Q 4250 2525 4162 2712 
Q 4075 2900 4375 2775 
z
M 4650 900 
Q 4350 1250 4650 1125 
Q 4950 1000 5212 812 
Q 5475 625 5587 362 
Q 5700 100 5625 -125 
Q 5550 -350 5262 100 
Q 4975 550 4650 900 
z
M 1000 1875 
Q 1100 2025 1212 2287 
Q 1325 2550 1362 2300 
Q 1400 2050 1362 1850 
Q 1325 1650 1187 1487 
Q 1050 1325 987 1537 
Q 925 1750 1000 1875 
z
" transform="scale(0.015625)"/>
      <path id="KaiTi-7387" d="M 3575 2600 
Q 3450 2775 3387 2900 
Q 3325 3025 3512 2975 
Q 3700 2925 3825 2850 
Q 3950 2775 4012 2625 
Q 4075 2475 4012 2325 
Q 3950 2175 3850 2237 
Q 3750 2300 3675 2425 
Q 3350 2350 3125 2300 
Q 3350 2225 3450 2162 
Q 3550 2100 3487 2037 
Q 3425 1975 3400 1650 
Q 3850 1675 4512 1750 
Q 5175 1825 5387 1875 
Q 5600 1925 5800 1812 
Q 6000 1700 6037 1587 
Q 6075 1475 5600 1487 
Q 5125 1500 4637 1462 
Q 4150 1425 3400 1400 
Q 3375 850 3350 400 
Q 3325 -50 3275 -362 
Q 3225 -675 3150 -700 
Q 3075 -725 3050 -225 
Q 3025 275 3025 1375 
Q 2225 1300 1887 1250 
Q 1550 1200 1337 1162 
Q 1125 1125 950 1150 
Q 775 1175 600 1312 
Q 425 1450 775 1437 
Q 1125 1425 1750 1487 
Q 2375 1550 3025 1625 
Q 3025 2075 2950 2250 
Q 2550 2150 2412 2025 
Q 2275 1900 2175 2137 
Q 2075 2375 2325 2462 
Q 2575 2550 3125 3275 
Q 2625 3175 2450 3050 
Q 2275 2925 2212 3150 
Q 2150 3375 2287 3425 
Q 2425 3475 2575 3700 
Q 2725 3925 2750 4175 
Q 2450 4125 2312 4100 
Q 2175 4075 1975 4212 
Q 1775 4350 2100 4350 
Q 2425 4350 3275 4500 
L 2900 4875 
Q 2675 5100 2875 5100 
Q 3100 5100 3325 4962 
Q 3550 4825 3350 4550 
Q 3850 4650 4075 4712 
Q 4300 4775 4437 4637 
Q 4575 4500 4312 4450 
Q 4050 4400 3050 4250 
Q 3225 4000 3100 3925 
Q 2975 3850 2625 3400 
Q 2775 3400 3225 3425 
Q 3425 3725 3412 3900 
Q 3400 4075 3575 4000 
Q 3750 3925 3862 3800 
Q 3975 3675 3812 3600 
Q 3650 3525 2775 2450 
Q 3250 2550 3575 2600 
z
M 4550 2725 
Q 4375 2875 4200 3087 
Q 4025 3300 4425 3175 
Q 4825 3050 4987 2875 
Q 5150 2700 5087 2525 
Q 5025 2350 4875 2462 
Q 4725 2575 4550 2725 
z
M 1500 2775 
Q 1750 2900 1925 3012 
Q 2100 3125 1962 2950 
Q 1825 2775 1662 2587 
Q 1500 2400 1425 2225 
Q 1350 2050 1137 2337 
Q 925 2625 1100 2637 
Q 1275 2650 1500 2775 
z
M 5050 4000 
Q 5200 3900 5012 3825 
Q 4825 3750 4687 3662 
Q 4550 3575 4337 3462 
Q 4125 3350 4350 3637 
Q 4575 3925 4550 4075 
Q 4525 4225 4712 4175 
Q 4900 4125 5050 4000 
z
M 1375 3425 
Q 1300 3550 1237 3675 
Q 1175 3800 1425 3737 
Q 1675 3675 1775 3550 
Q 1875 3425 1800 3250 
Q 1725 3075 1600 3200 
L 1375 3425 
z
" transform="scale(0.015625)"/>
      <path id="KaiTi-968f" d="M 4125 4200 
Q 4400 4250 4812 4375 
Q 5225 4500 5400 4362 
Q 5575 4225 5012 4087 
Q 4450 3950 4025 3875 
Q 3925 3600 3675 3050 
Q 3925 3000 4175 3075 
Q 4425 3150 4537 3237 
Q 4650 3325 4800 3262 
Q 4950 3200 5075 3112 
Q 5200 3025 5125 2937 
Q 5050 2850 5050 2350 
Q 5050 1875 5100 1375 
Q 5150 875 4975 550 
Q 4800 225 4700 475 
Q 4600 725 4375 900 
Q 4150 1075 4325 1037 
Q 4500 1000 4575 1000 
Q 4750 925 4762 1400 
Q 4775 1875 4737 2437 
Q 4700 3000 4537 2987 
Q 4375 2975 3950 2875 
L 3950 2425 
Q 4150 2450 4275 2487 
Q 4400 2525 4500 2450 
Q 4600 2375 4437 2312 
Q 4275 2250 3950 2275 
L 3950 1800 
Q 4125 1825 4287 1862 
Q 4450 1900 4550 1812 
Q 4650 1725 4462 1675 
Q 4275 1625 3950 1650 
Q 3925 1325 3887 1087 
Q 3850 850 3775 712 
Q 3700 575 3625 825 
Q 3550 1075 3637 1387 
Q 3725 1700 3725 2275 
Q 3725 2850 3625 3000 
Q 3575 2900 3425 2687 
Q 3275 2475 3087 2337 
Q 2900 2200 3062 2462 
Q 3225 2725 3412 3112 
Q 3600 3500 3700 3800 
Q 3450 3775 3287 3750 
Q 3125 3725 2925 3812 
Q 2725 3900 2962 3925 
Q 3200 3950 3800 4125 
Q 3875 4350 3925 4650 
Q 3975 4950 3912 5075 
Q 3850 5200 4000 5162 
Q 4150 5125 4300 5037 
Q 4450 4950 4387 4837 
Q 4325 4725 4275 4587 
Q 4225 4450 4125 4200 
z
M 1150 4075 
Q 1175 1250 1087 312 
Q 1000 -625 812 -200 
Q 625 225 712 462 
Q 800 700 850 1225 
Q 900 1750 925 2762 
Q 950 3775 812 4012 
Q 675 4250 712 4262 
Q 750 4275 950 4250 
Q 1150 4225 1287 4250 
Q 1425 4275 1612 4375 
Q 1800 4475 1850 4537 
Q 1900 4600 2200 4437 
Q 2500 4275 2375 4212 
Q 2250 4150 2037 3837 
Q 1825 3525 1962 3062 
Q 2100 2600 2037 2375 
Q 1975 2150 1837 2350 
Q 1700 2550 1475 2700 
Q 1250 2850 1275 2850 
L 1475 2850 
Q 1625 2850 1700 2887 
Q 1775 2925 1712 3200 
Q 1650 3475 1737 3825 
Q 1825 4175 1700 4175 
Q 1600 4175 1150 4075 
z
M 2600 725 
Q 3950 225 4637 150 
Q 5325 75 5675 100 
Q 6025 125 6187 100 
Q 6350 75 5775 -150 
Q 5200 -375 4950 -412 
Q 4700 -450 4287 -250 
Q 3875 -50 3200 250 
Q 2525 550 2237 525 
Q 1950 500 1837 425 
Q 1725 350 1537 487 
Q 1350 625 1675 687 
Q 2000 750 2500 750 
Q 2450 1200 2362 1350 
Q 2275 1500 2312 1712 
Q 2350 1925 2312 1987 
Q 2275 2050 2100 1987 
Q 1925 1925 1812 2012 
Q 1700 2100 1825 2112 
Q 1950 2125 2125 2212 
Q 2300 2300 2350 2350 
Q 2400 2400 2525 2362 
Q 2650 2325 2787 2250 
Q 2925 2175 2750 2062 
Q 2575 1950 2562 1700 
Q 2550 1450 2650 1325 
Q 2750 1200 2600 725 
z
M 2350 3525 
Q 2250 3700 2525 3612 
Q 2800 3525 2875 3387 
Q 2950 3250 2875 3112 
Q 2800 2975 2625 3175 
Q 2450 3375 2350 3525 
z
" transform="scale(0.015625)"/>
      <path id="KaiTi-53d8" d="M 3350 700 
Q 3775 425 4262 237 
Q 4750 50 5300 -37 
Q 5850 -125 5850 -175 
Q 5850 -225 5487 -300 
Q 5125 -375 4712 -400 
Q 4300 -425 4000 -200 
Q 3700 25 3100 450 
Q 2650 100 2075 -87 
Q 1500 -275 1125 -262 
Q 750 -250 1162 -150 
Q 1575 -50 2050 175 
Q 2525 400 2800 675 
Q 2525 900 2250 1075 
Q 1975 1250 1762 1312 
Q 1550 1375 1800 1437 
Q 2050 1500 2287 1337 
Q 2525 1175 3025 850 
Q 3350 1225 3475 1562 
Q 3600 1900 3437 1887 
Q 3275 1875 2975 1812 
Q 2675 1750 2400 1675 
Q 2125 1600 1862 1750 
Q 1600 1900 1975 1900 
Q 2375 1900 2900 2012 
Q 3425 2125 3537 2200 
Q 3650 2275 3812 2212 
Q 3975 2150 4125 2025 
Q 4275 1900 4137 1825 
Q 4000 1750 3812 1387 
Q 3625 1025 3350 700 
z
M 3500 4050 
Q 3700 3825 3675 3725 
Q 3650 3625 3625 3387 
Q 3600 3150 3600 2875 
Q 3600 2600 3537 2425 
Q 3475 2250 3425 2250 
Q 3375 2250 3300 2400 
Q 3225 2550 3275 2862 
Q 3325 3175 3312 3450 
Q 3300 3725 3175 4000 
Q 2925 3975 2525 3925 
Q 2750 3725 2712 3575 
Q 2675 3425 2662 3112 
Q 2650 2800 2637 2600 
Q 2625 2400 2537 2262 
Q 2450 2125 2362 2362 
Q 2275 2600 2312 2700 
Q 2350 2800 2375 3125 
Q 2400 3450 2325 3875 
L 1650 3750 
Q 1425 3725 1187 3875 
Q 950 4025 1325 4037 
Q 1700 4050 2700 4175 
Q 4100 4400 4437 4450 
Q 4775 4500 5025 4362 
Q 5275 4225 5175 4162 
Q 5075 4100 4737 4112 
Q 4400 4125 3500 4050 
z
M 4675 2850 
Q 4125 3175 4012 3325 
Q 3900 3475 4387 3425 
Q 4875 3375 5025 3150 
Q 5175 2925 5137 2775 
Q 5100 2625 4675 2850 
z
M 1400 3125 
Q 1550 3300 1687 3475 
Q 1825 3650 1762 3200 
Q 1700 2750 1375 2425 
Q 1050 2100 1062 2387 
Q 1075 2675 1175 2812 
Q 1275 2950 1400 3125 
z
M 2950 4575 
Q 2600 4825 2562 4925 
Q 2525 5025 2862 5012 
Q 3200 5000 3350 4825 
Q 3500 4650 3400 4500 
Q 3300 4350 2950 4575 
z
" transform="scale(0.015625)"/>
      <path id="KaiTi-5316" d="M 3475 2550 
Q 3775 2850 4112 3287 
Q 4450 3725 4425 3937 
Q 4400 4150 4562 4075 
Q 4725 4000 4887 3812 
Q 5050 3625 4900 3537 
Q 4750 3450 4412 3062 
Q 4075 2675 3475 2100 
Q 3450 1600 3512 1237 
Q 3575 875 3837 687 
Q 4100 500 4662 537 
Q 5225 575 5437 762 
Q 5650 950 5750 1437 
Q 5850 1925 5850 1425 
Q 5850 950 5950 675 
Q 6050 400 5637 237 
Q 5225 75 4512 100 
Q 3800 125 3525 375 
Q 3250 625 3200 1037 
Q 3150 1450 3175 1825 
Q 2975 1650 2725 1512 
Q 2475 1375 2250 1312 
Q 2025 1250 2212 1387 
Q 2400 1525 2675 1762 
Q 2950 2000 3175 2275 
Q 3200 2925 3200 3350 
Q 3200 3800 3175 4100 
Q 3150 4400 3025 4625 
Q 2900 4850 3125 4800 
Q 3350 4750 3537 4637 
Q 3725 4525 3650 4375 
Q 3575 4225 3537 3650 
Q 3500 3075 3475 2550 
z
M 1600 3100 
Q 1975 2875 1925 2525 
Q 1875 2175 1887 1400 
Q 1900 625 1800 125 
Q 1700 -375 1537 -12 
Q 1375 350 1475 587 
Q 1575 825 1612 1312 
Q 1650 1800 1637 2350 
Q 1625 2900 1475 2950 
Q 1075 2350 612 2000 
Q 150 1650 525 2087 
Q 900 2525 1237 3137 
Q 1575 3750 1687 4112 
Q 1800 4475 1750 4675 
Q 1700 4875 1875 4812 
Q 2050 4750 2225 4587 
Q 2400 4425 2275 4312 
Q 2150 4200 1975 3837 
Q 1800 3475 1600 3100 
z
" transform="scale(0.015625)"/>
     </defs>
     <use xlink:href="#KaiTi-5f00"/>
     <use xlink:href="#KaiTi-53d1" x="100"/>
     <use xlink:href="#KaiTi-8005" x="200"/>
     <use xlink:href="#KaiTi-63d0" x="300"/>
     <use xlink:href="#KaiTi-4ea4" x="400"/>
     <use xlink:href="#KaiTi-9891" x="500"/>
     <use xlink:href="#KaiTi-7387" x="600"/>
     <use xlink:href="#KaiTi-968f" x="700"/>
     <use xlink:href="#KaiTi-65f6" x="800"/>
     <use xlink:href="#KaiTi-95f4" x="900"/>
     <use xlink:href="#KaiTi-53d8" x="1000"/>
     <use xlink:href="#KaiTi-5316" x="1100"/>
    </g>
   </g>
   <g id="legend_1">
    <g id="patch_7">
     <path d="M 510.871875 70.559375 
L 592.871875 70.559375 
Q 594.871875 70.559375 594.871875 68.559375 
L 594.871875 29.809375 
Q 594.871875 27.809375 592.871875 27.809375 
L 510.871875 27.809375 
Q 508.871875 27.809375 508.871875 29.809375 
L 508.871875 68.559375 
Q 508.871875 70.559375 510.871875 70.559375 
z
" style="fill: #ffffff; opacity: 0.8; stroke: #cccccc; stroke-linejoin: miter"/>
    </g>
    <g id="line2d_20">
     <path d="M 512.871875 35.309375 
L 522.871875 35.309375 
L 532.871875 35.309375 
" style="fill: none; stroke: #1f77b4; stroke-width: 1.5; stroke-linecap: square"/>
    </g>
    <g id="text_20">
     <!-- bdraco -->
     <g transform="translate(540.871875 38.809375) scale(0.1 -0.1)">
      <defs>
       <path id="KaiTi-62" d="M 2825 1525 
Q 2825 800 2475 437 
Q 2125 75 1625 75 
Q 1350 75 1150 175 
Q 950 275 800 500 
L 800 125 
L 300 125 
L 300 4400 
L 800 4400 
L 800 2550 
Q 950 2775 1150 2887 
Q 1350 3000 1625 3000 
Q 2125 3000 2475 2625 
Q 2825 2250 2825 1525 
z
M 2275 1525 
Q 2275 2000 2087 2275 
Q 1900 2550 1525 2550 
Q 1225 2550 1012 2275 
Q 800 2000 800 1525 
Q 800 1050 1012 787 
Q 1225 525 1525 525 
Q 1900 525 2087 787 
Q 2275 1050 2275 1525 
z
" transform="scale(0.015625)"/>
       <path id="KaiTi-64" d="M 2750 125 
L 2250 125 
L 2250 500 
Q 2100 275 1900 175 
Q 1700 75 1425 75 
Q 925 75 575 437 
Q 225 800 225 1525 
Q 225 2250 575 2625 
Q 925 3000 1425 3000 
Q 1700 3000 1900 2887 
Q 2100 2775 2250 2550 
L 2250 4400 
L 2750 4400 
L 2750 125 
z
M 2250 1525 
Q 2250 2000 2037 2275 
Q 1825 2550 1525 2550 
Q 1150 2550 962 2275 
Q 775 2000 775 1525 
Q 775 1050 962 787 
Q 1150 525 1525 525 
Q 1825 525 2037 787 
Q 2250 1050 2250 1525 
z
" transform="scale(0.015625)"/>
       <path id="KaiTi-72" d="M 2500 2425 
Q 2025 2500 1700 2287 
Q 1375 2075 1150 1550 
L 1150 125 
L 650 125 
L 650 2925 
L 1150 2925 
L 1150 2200 
Q 1375 2600 1712 2787 
Q 2050 2975 2500 2975 
L 2500 2425 
z
" transform="scale(0.015625)"/>
       <path id="KaiTi-61" d="M 2875 125 
L 2275 125 
Q 2225 175 2200 262 
Q 2175 350 2175 475 
Q 2000 275 1750 175 
Q 1500 75 1225 75 
Q 825 75 550 275 
Q 275 475 275 850 
Q 275 1225 525 1450 
Q 775 1675 1300 1750 
Q 1650 1800 1912 1875 
Q 2175 1950 2175 2075 
Q 2175 2225 2062 2375 
Q 1950 2525 1575 2525 
Q 1275 2525 1137 2412 
Q 1000 2300 950 2100 
L 400 2100 
Q 450 2500 762 2737 
Q 1075 2975 1575 2975 
Q 2125 2975 2400 2725 
Q 2675 2475 2675 2025 
L 2675 650 
Q 2675 500 2725 375 
Q 2775 250 2875 125 
z
M 2175 1050 
L 2175 1550 
Q 2025 1500 1887 1462 
Q 1750 1425 1425 1375 
Q 1050 1325 937 1200 
Q 825 1075 825 900 
Q 825 750 937 637 
Q 1050 525 1275 525 
Q 1500 525 1762 650 
Q 2025 775 2175 1050 
z
" transform="scale(0.015625)"/>
       <path id="KaiTi-63" d="M 2850 1250 
Q 2850 725 2487 400 
Q 2125 75 1575 75 
Q 1025 75 625 462 
Q 225 850 225 1525 
Q 225 2200 625 2587 
Q 1025 2975 1575 2975 
Q 2125 2975 2450 2687 
Q 2775 2400 2775 2000 
L 2225 2000 
Q 2200 2300 2012 2412 
Q 1825 2525 1575 2525 
Q 1275 2525 1025 2287 
Q 775 2050 775 1525 
Q 775 1000 1025 762 
Q 1275 525 1575 525 
Q 1900 525 2100 700 
Q 2300 875 2300 1250 
L 2850 1250 
z
" transform="scale(0.015625)"/>
       <path id="KaiTi-6f" d="M 2925 1525 
Q 2925 875 2525 475 
Q 2125 75 1575 75 
Q 1025 75 625 475 
Q 225 875 225 1525 
Q 225 2175 625 2575 
Q 1025 2975 1575 2975 
Q 2125 2975 2525 2575 
Q 2925 2175 2925 1525 
z
M 2375 1525 
Q 2375 2025 2125 2275 
Q 1875 2525 1575 2525 
Q 1275 2525 1025 2275 
Q 775 2025 775 1525 
Q 775 1025 1025 775 
Q 1275 525 1575 525 
Q 1875 525 2125 775 
Q 2375 1025 2375 1525 
z
" transform="scale(0.015625)"/>
      </defs>
      <use xlink:href="#KaiTi-62"/>
      <use xlink:href="#KaiTi-64" x="50"/>
      <use xlink:href="#KaiTi-72" x="100"/>
      <use xlink:href="#KaiTi-61" x="150"/>
      <use xlink:href="#KaiTi-63" x="200"/>
      <use xlink:href="#KaiTi-6f" x="250"/>
     </g>
    </g>
    <g id="line2d_21">
     <path d="M 512.871875 48.559375 
L 522.871875 48.559375 
L 532.871875 48.559375 
" style="fill: none; stroke: #ff7f0e; stroke-width: 1.5; stroke-linecap: square"/>
    </g>
    <g id="text_21">
     <!-- XuehaiPan -->
     <g transform="translate(540.871875 52.059375) scale(0.1 -0.1)">
      <defs>
       <path id="KaiTi-58" d="M 3000 125 
L 2400 125 
L 1550 1875 
L 700 125 
L 100 125 
L 1275 2375 
L 225 4400 
L 825 4400 
L 1550 2850 
L 2275 4400 
L 2875 4400 
L 1825 2375 
L 3000 125 
z
" transform="scale(0.015625)"/>
       <path id="KaiTi-75" d="M 2800 125 
L 2300 125 
L 2300 650 
Q 2100 375 1862 225 
Q 1625 75 1250 75 
Q 800 75 575 325 
Q 350 575 350 950 
L 350 2925 
L 850 2925 
L 850 1125 
Q 850 825 1000 650 
Q 1150 475 1400 475 
Q 1725 475 2012 812 
Q 2300 1150 2300 1650 
L 2300 2925 
L 2800 2925 
L 2800 125 
z
" transform="scale(0.015625)"/>
       <path id="KaiTi-65" d="M 2850 1075 
Q 2800 625 2450 350 
Q 2100 75 1625 75 
Q 1025 75 637 462 
Q 250 850 250 1525 
Q 250 2200 637 2587 
Q 1025 2975 1625 2975 
Q 2150 2975 2487 2637 
Q 2825 2300 2825 1525 
L 800 1525 
Q 800 975 1037 750 
Q 1275 525 1625 525 
Q 1900 525 2075 662 
Q 2250 800 2300 1075 
L 2850 1075 
z
M 2250 1925 
Q 2200 2275 2025 2412 
Q 1850 2550 1575 2550 
Q 1325 2550 1125 2412 
Q 925 2275 825 1925 
L 2250 1925 
z
" transform="scale(0.015625)"/>
       <path id="KaiTi-68" d="M 2800 125 
L 2300 125 
L 2300 1925 
Q 2300 2225 2150 2400 
Q 2000 2575 1750 2575 
Q 1425 2575 1137 2237 
Q 850 1900 850 1400 
L 850 125 
L 350 125 
L 350 4400 
L 850 4400 
L 850 2400 
Q 1050 2675 1287 2825 
Q 1525 2975 1900 2975 
Q 2350 2975 2575 2725 
Q 2800 2475 2800 2100 
L 2800 125 
z
" transform="scale(0.015625)"/>
       <path id="KaiTi-69" d="M 1800 125 
L 1300 125 
L 1300 2925 
L 1800 2925 
L 1800 125 
z
M 1912 4075 
Q 1925 3875 1750 3775 
Q 1575 3675 1400 3762 
Q 1225 3850 1212 4050 
Q 1200 4250 1375 4350 
Q 1550 4450 1725 4362 
Q 1900 4275 1912 4075 
z
" transform="scale(0.015625)"/>
       <path id="KaiTi-50" d="M 2950 3100 
Q 2950 2500 2600 2150 
Q 2250 1800 1625 1800 
L 900 1800 
L 900 125 
L 325 125 
L 325 4400 
L 1625 4400 
Q 2250 4400 2600 4050 
Q 2950 3700 2950 3100 
z
M 2375 3100 
Q 2375 3575 2150 3750 
Q 1925 3925 1475 3925 
L 900 3925 
L 900 2275 
L 1475 2275 
Q 1925 2275 2150 2450 
Q 2375 2625 2375 3100 
z
" transform="scale(0.015625)"/>
       <path id="KaiTi-6e" d="M 2800 125 
L 2300 125 
L 2300 1925 
Q 2300 2225 2150 2400 
Q 2000 2575 1750 2575 
Q 1425 2575 1137 2237 
Q 850 1900 850 1400 
L 850 125 
L 350 125 
L 350 2925 
L 850 2925 
L 850 2400 
Q 1050 2675 1287 2825 
Q 1525 2975 1900 2975 
Q 2350 2975 2575 2725 
Q 2800 2475 2800 2100 
L 2800 125 
z
" transform="scale(0.015625)"/>
      </defs>
      <use xlink:href="#KaiTi-58"/>
      <use xlink:href="#KaiTi-75" x="50"/>
      <use xlink:href="#KaiTi-65" x="100"/>
      <use xlink:href="#KaiTi-68" x="150"/>
      <use xlink:href="#KaiTi-61" x="200"/>
      <use xlink:href="#KaiTi-69" x="250"/>
      <use xlink:href="#KaiTi-50" x="300"/>
      <use xlink:href="#KaiTi-61" x="350"/>
      <use xlink:href="#KaiTi-6e" x="400"/>
     </g>
    </g>
    <g id="line2d_22">
     <path d="M 512.871875 61.809375 
L 522.871875 61.809375 
L 532.871875 61.809375 
" style="fill: none; stroke: #2ca02c; stroke-width: 1.5; stroke-linecap: square"/>
    </g>
    <g id="text_22">
     <!-- samsonasik -->
     <g transform="translate(540.871875 65.309375) scale(0.1 -0.1)">
      <defs>
       <path id="KaiTi-73" d="M 2750 900 
Q 2750 500 2437 287 
Q 2125 75 1650 75 
Q 1050 75 725 312 
Q 400 550 400 1000 
L 900 1000 
Q 900 700 1112 600 
Q 1325 500 1625 500 
Q 1925 500 2075 612 
Q 2225 725 2225 900 
Q 2225 1025 2100 1150 
Q 1975 1275 1475 1350 
Q 900 1425 687 1637 
Q 475 1850 475 2200 
Q 475 2500 762 2737 
Q 1050 2975 1600 2975 
Q 2100 2975 2387 2750 
Q 2675 2525 2675 2150 
L 2175 2150 
Q 2175 2375 2012 2462 
Q 1850 2550 1600 2550 
Q 1275 2550 1137 2437 
Q 1000 2325 1000 2175 
Q 1000 2000 1125 1900 
Q 1250 1800 1650 1750 
Q 2300 1650 2525 1437 
Q 2750 1225 2750 900 
z
" transform="scale(0.015625)"/>
       <path id="KaiTi-6d" d="M 3050 125 
L 2550 125 
L 2550 2150 
Q 2550 2300 2500 2400 
Q 2450 2500 2300 2500 
Q 2125 2500 1975 2312 
Q 1825 2125 1825 1825 
L 1825 125 
L 1325 125 
L 1325 2150 
Q 1325 2300 1275 2400 
Q 1225 2500 1075 2500 
Q 900 2500 750 2312 
Q 600 2125 600 1825 
L 600 125 
L 100 125 
L 100 2925 
L 600 2925 
L 600 2550 
Q 725 2750 900 2862 
Q 1075 2975 1275 2975 
Q 1475 2975 1612 2862 
Q 1750 2750 1800 2550 
Q 1925 2750 2087 2862 
Q 2250 2975 2450 2975 
Q 2750 2975 2900 2812 
Q 3050 2650 3050 2350 
L 3050 125 
z
" transform="scale(0.015625)"/>
       <path id="KaiTi-6b" d="M 2925 125 
L 2350 125 
L 1450 1650 
L 875 1100 
L 875 125 
L 375 125 
L 375 4400 
L 875 4400 
L 875 1675 
L 2125 2925 
L 2750 2925 
L 1775 1975 
L 2925 125 
z
" transform="scale(0.015625)"/>
      </defs>
      <use xlink:href="#KaiTi-73"/>
      <use xlink:href="#KaiTi-61" x="50"/>
      <use xlink:href="#KaiTi-6d" x="100"/>
      <use xlink:href="#KaiTi-73" x="150"/>
      <use xlink:href="#KaiTi-6f" x="200"/>
      <use xlink:href="#KaiTi-6e" x="250"/>
      <use xlink:href="#KaiTi-61" x="300"/>
      <use xlink:href="#KaiTi-73" x="350"/>
      <use xlink:href="#KaiTi-69" x="400"/>
      <use xlink:href="#KaiTi-6b" x="450"/>
     </g>
    </g>
   </g>
  </g>
 </g>
 <defs>
  <clipPath id="p64cb98df68">
   <rect x="41.871875" y="22.809375" width="558" height="277.2"/>
  </clipPath>
 </defs>
</svg>
