<?xml version="1.0" encoding="utf-8" standalone="no"?>
<!DOCTYPE svg PUBLIC "-//W3C//DTD SVG 1.1//EN"
  "http://www.w3.org/Graphics/SVG/1.1/DTD/svg11.dtd">
<svg xmlns:xlink="http://www.w3.org/1999/xlink" width="885.720312pt" height="371.2875pt" viewBox="0 0 885.720312 371.2875" xmlns="http://www.w3.org/2000/svg" version="1.1">
 <metadata>
  <rdf:RDF xmlns:dc="http://purl.org/dc/elements/1.1/" xmlns:cc="http://creativecommons.org/ns#" xmlns:rdf="http://www.w3.org/1999/02/22-rdf-syntax-ns#">
   <cc:Work>
    <dc:type rdf:resource="http://purl.org/dc/dcmitype/StillImage"/>
    <dc:date>2025-01-02T20:34:35.946228</dc:date>
    <dc:format>image/svg+xml</dc:format>
    <dc:creator>
     <cc:Agent>
      <dc:title>Matplotlib v3.9.2, https://matplotlib.org/</dc:title>
     </cc:Agent>
    </dc:creator>
   </cc:Work>
  </rdf:RDF>
 </metadata>
 <defs>
  <style type="text/css">*{stroke-linejoin: round; stroke-linecap: butt}</style>
 </defs>
 <g id="figure_1">
  <g id="patch_1">
   <path d="M 0 371.2875 
L 885.720312 371.2875 
L 885.720312 0 
L 0 0 
z
" style="fill: #ffffff"/>
  </g>
  <g id="axes_1">
   <g id="patch_2">
    <path d="M 41.520313 299.9625 
L 878.520313 299.9625 
L 878.520313 22.7625 
L 41.520313 22.7625 
z
" style="fill: #ffffff"/>
   </g>
   <g id="patch_3">
    <path d="M 79.565767 299.9625 
L 120.695988 299.9625 
L 120.695988 35.9625 
L 79.565767 35.9625 
z
" clip-path="url(#p7da14d8ee7)" style="fill: #87ceeb"/>
   </g>
   <g id="patch_4">
    <path d="M 130.978543 299.9625 
L 172.108765 299.9625 
L 172.108765 76.4625 
L 130.978543 76.4625 
z
" clip-path="url(#p7da14d8ee7)" style="fill: #87ceeb"/>
   </g>
   <g id="patch_5">
    <path d="M 182.39132 299.9625 
L 223.521541 299.9625 
L 223.521541 233.9625 
L 182.39132 233.9625 
z
" clip-path="url(#p7da14d8ee7)" style="fill: #87ceeb"/>
   </g>
   <g id="patch_6">
    <path d="M 233.804096 299.9625 
L 274.934317 299.9625 
L 274.934317 244.4625 
L 233.804096 244.4625 
z
" clip-path="url(#p7da14d8ee7)" style="fill: #87ceeb"/>
   </g>
   <g id="patch_7">
    <path d="M 285.216873 299.9625 
L 326.347094 299.9625 
L 326.347094 262.4625 
L 285.216873 262.4625 
z
" clip-path="url(#p7da14d8ee7)" style="fill: #87ceeb"/>
   </g>
   <g id="patch_8">
    <path d="M 336.629649 299.9625 
L 377.75987 299.9625 
L 377.75987 277.4625 
L 336.629649 277.4625 
z
" clip-path="url(#p7da14d8ee7)" style="fill: #87ceeb"/>
   </g>
   <g id="patch_9">
    <path d="M 388.042426 299.9625 
L 429.172647 299.9625 
L 429.172647 278.9625 
L 388.042426 278.9625 
z
" clip-path="url(#p7da14d8ee7)" style="fill: #87ceeb"/>
   </g>
   <g id="patch_10">
    <path d="M 439.455202 299.9625 
L 480.585423 299.9625 
L 480.585423 278.9625 
L 439.455202 278.9625 
z
" clip-path="url(#p7da14d8ee7)" style="fill: #87ceeb"/>
   </g>
   <g id="patch_11">
    <path d="M 490.867978 299.9625 
L 531.998199 299.9625 
L 531.998199 289.4625 
L 490.867978 289.4625 
z
" clip-path="url(#p7da14d8ee7)" style="fill: #87ceeb"/>
   </g>
   <g id="patch_12">
    <path d="M 542.280755 299.9625 
L 583.410976 299.9625 
L 583.410976 292.4625 
L 542.280755 292.4625 
z
" clip-path="url(#p7da14d8ee7)" style="fill: #87ceeb"/>
   </g>
   <g id="patch_13">
    <path d="M 593.693531 299.9625 
L 634.823752 299.9625 
L 634.823752 295.4625 
L 593.693531 295.4625 
z
" clip-path="url(#p7da14d8ee7)" style="fill: #87ceeb"/>
   </g>
   <g id="patch_14">
    <path d="M 645.106308 299.9625 
L 686.236529 299.9625 
L 686.236529 295.4625 
L 645.106308 295.4625 
z
" clip-path="url(#p7da14d8ee7)" style="fill: #87ceeb"/>
   </g>
   <g id="patch_15">
    <path d="M 696.519084 299.9625 
L 737.649305 299.9625 
L 737.649305 295.4625 
L 696.519084 295.4625 
z
" clip-path="url(#p7da14d8ee7)" style="fill: #87ceeb"/>
   </g>
   <g id="patch_16">
    <path d="M 747.93186 299.9625 
L 789.062082 299.9625 
L 789.062082 295.4625 
L 747.93186 295.4625 
z
" clip-path="url(#p7da14d8ee7)" style="fill: #87ceeb"/>
   </g>
   <g id="patch_17">
    <path d="M 799.344637 299.9625 
L 840.474858 299.9625 
L 840.474858 296.9625 
L 799.344637 296.9625 
z
" clip-path="url(#p7da14d8ee7)" style="fill: #87ceeb"/>
   </g>
   <g id="matplotlib.axis_1">
    <g id="xtick_1">
     <g id="line2d_1">
      <defs>
       <path id="m19aaaf1989" d="M 0 0 
L 0 3.5 
" style="stroke: #000000; stroke-width: 0.8"/>
      </defs>
      <g>
       <use xlink:href="#m19aaaf1989" x="100.130878" y="299.9625" style="stroke: #000000; stroke-width: 0.8"/>
      </g>
     </g>
     <g id="text_1">
      <!-- UTC+1:00 -->
      <g transform="translate(102.943378 346.9625) rotate(-90) scale(0.1 -0.1)">
       <defs>
        <path id="KaiTi-55" d="M 2875 1375 
Q 2875 775 2562 425 
Q 2250 75 1575 75 
Q 900 75 587 425 
Q 275 775 275 1375 
L 275 4400 
L 850 4400 
L 850 1375 
Q 850 950 1050 750 
Q 1250 550 1575 550 
Q 1900 550 2100 750 
Q 2300 950 2300 1375 
L 2300 4400 
L 2875 4400 
L 2875 1375 
z
" transform="scale(0.015625)"/>
        <path id="KaiTi-54" d="M 2850 3925 
L 1850 3925 
L 1850 125 
L 1275 125 
L 1275 3925 
L 275 3925 
L 275 4400 
L 2850 4400 
L 2850 3925 
z
" transform="scale(0.015625)"/>
        <path id="KaiTi-43" d="M 2975 1825 
Q 2950 875 2575 475 
Q 2200 75 1675 75 
Q 1075 75 650 562 
Q 225 1050 225 2125 
Q 225 3300 637 3875 
Q 1050 4450 1700 4450 
Q 2250 4450 2612 4037 
Q 2975 3625 2950 2875 
L 2400 2875 
Q 2400 3425 2225 3700 
Q 2050 3975 1700 3975 
Q 1300 3975 1062 3562 
Q 825 3150 825 2175 
Q 825 1275 1062 912 
Q 1300 550 1675 550 
Q 1950 550 2175 812 
Q 2400 1075 2400 1825 
L 2975 1825 
z
" transform="scale(0.015625)"/>
        <path id="KaiTi-2b" d="M 3000 2125 
L 1775 2125 
L 1775 900 
L 1350 900 
L 1350 2125 
L 125 2125 
L 125 2525 
L 1350 2525 
L 1350 3750 
L 1775 3750 
L 1775 2525 
L 3000 2525 
L 3000 2125 
z
" transform="scale(0.015625)"/>
        <path id="KaiTi-31" d="M 1400 3600 
Q 1075 3275 575 2975 
L 575 3450 
Q 1200 3875 1600 4450 
L 1900 4450 
L 1900 150 
L 1400 150 
L 1400 3600 
z
" transform="scale(0.015625)"/>
        <path id="KaiTi-3a" d="M 1850 2325 
Q 1850 2150 1737 2037 
Q 1625 1925 1475 1925 
Q 1325 1925 1212 2037 
Q 1100 2150 1100 2325 
Q 1100 2475 1212 2587 
Q 1325 2700 1475 2700 
Q 1625 2700 1737 2587 
Q 1850 2475 1850 2325 
z
M 1850 425 
Q 1850 250 1737 137 
Q 1625 25 1475 25 
Q 1325 25 1212 137 
Q 1100 250 1100 425 
Q 1100 575 1212 687 
Q 1325 800 1475 800 
Q 1625 800 1737 687 
Q 1850 575 1850 425 
z
" transform="scale(0.015625)"/>
        <path id="KaiTi-30" d="M 225 2537 
Q 250 3200 412 3587 
Q 575 3975 875 4225 
Q 1175 4475 1612 4475 
Q 2050 4475 2375 4112 
Q 2700 3750 2800 3200 
Q 2900 2650 2862 1937 
Q 2825 1225 2612 775 
Q 2400 325 1975 150 
Q 1550 -25 1125 187 
Q 700 400 525 750 
Q 350 1100 275 1487 
Q 200 1875 225 2537 
z
M 750 2687 
Q 675 2000 800 1462 
Q 925 925 1212 700 
Q 1500 475 1800 612 
Q 2100 750 2237 1162 
Q 2375 1575 2375 2062 
Q 2375 2550 2337 2950 
Q 2300 3350 2112 3675 
Q 1925 4000 1612 4012 
Q 1300 4025 1062 3700 
Q 825 3375 750 2687 
z
" transform="scale(0.015625)"/>
       </defs>
       <use xlink:href="#KaiTi-55"/>
       <use xlink:href="#KaiTi-54" x="50"/>
       <use xlink:href="#KaiTi-43" x="100"/>
       <use xlink:href="#KaiTi-2b" x="150"/>
       <use xlink:href="#KaiTi-31" x="200"/>
       <use xlink:href="#KaiTi-3a" x="250"/>
       <use xlink:href="#KaiTi-30" x="300"/>
       <use xlink:href="#KaiTi-30" x="350"/>
      </g>
     </g>
    </g>
    <g id="xtick_2">
     <g id="line2d_2">
      <g>
       <use xlink:href="#m19aaaf1989" x="151.543654" y="299.9625" style="stroke: #000000; stroke-width: 0.8"/>
      </g>
     </g>
     <g id="text_2">
      <!-- UTC-5:00 -->
      <g transform="translate(154.356154 346.9625) rotate(-90) scale(0.1 -0.1)">
       <defs>
        <path id="KaiTi-2d" d="M 2975 2125 
L 125 2125 
L 125 2525 
L 2975 2525 
L 2975 2125 
z
" transform="scale(0.015625)"/>
        <path id="KaiTi-35" d="M 550 1325 
Q 725 650 1150 575 
Q 1575 500 1837 662 
Q 2100 825 2212 1087 
Q 2325 1350 2312 1675 
Q 2300 2000 2137 2225 
Q 1975 2450 1725 2525 
Q 1475 2600 1162 2525 
Q 850 2450 650 2175 
L 225 2225 
Q 275 2375 700 4375 
L 2675 4375 
L 2675 3925 
L 1075 3925 
Q 950 3250 825 2850 
Q 1200 3025 1525 3012 
Q 1850 3000 2150 2862 
Q 2450 2725 2587 2487 
Q 2725 2250 2787 2012 
Q 2850 1775 2837 1500 
Q 2825 1225 2725 937 
Q 2625 650 2425 462 
Q 2225 275 1937 162 
Q 1650 50 1275 75 
Q 900 100 562 350 
Q 225 600 100 1200 
L 550 1325 
z
" transform="scale(0.015625)"/>
       </defs>
       <use xlink:href="#KaiTi-55"/>
       <use xlink:href="#KaiTi-54" x="50"/>
       <use xlink:href="#KaiTi-43" x="100"/>
       <use xlink:href="#KaiTi-2d" x="150"/>
       <use xlink:href="#KaiTi-35" x="200"/>
       <use xlink:href="#KaiTi-3a" x="250"/>
       <use xlink:href="#KaiTi-30" x="300"/>
       <use xlink:href="#KaiTi-30" x="350"/>
      </g>
     </g>
    </g>
    <g id="xtick_3">
     <g id="line2d_3">
      <g>
       <use xlink:href="#m19aaaf1989" x="202.95643" y="299.9625" style="stroke: #000000; stroke-width: 0.8"/>
      </g>
     </g>
     <g id="text_3">
      <!-- UTC+8:00 -->
      <g transform="translate(205.76893 346.9625) rotate(-90) scale(0.1 -0.1)">
       <defs>
        <path id="KaiTi-38" d="M 175 1375 
Q 175 1675 325 1962 
Q 475 2250 825 2425 
Q 525 2600 425 2812 
Q 325 3025 312 3300 
Q 300 3575 387 3775 
Q 475 3975 650 4150 
Q 825 4325 1037 4387 
Q 1250 4450 1500 4450 
Q 1750 4450 1950 4400 
Q 2150 4350 2375 4187 
Q 2600 4025 2700 3725 
Q 2800 3425 2687 3025 
Q 2575 2625 2100 2400 
Q 2525 2275 2700 2012 
Q 2875 1750 2875 1375 
Q 2875 1000 2762 775 
Q 2650 550 2512 400 
Q 2375 250 2137 162 
Q 1900 75 1537 75 
Q 1175 75 912 162 
Q 650 250 475 425 
Q 300 600 237 837 
Q 175 1075 175 1375 
z
M 687 1400 
Q 675 1100 787 875 
Q 900 650 1200 587 
Q 1500 525 1825 600 
Q 2150 675 2275 950 
Q 2400 1225 2362 1500 
Q 2325 1775 2050 1962 
Q 1775 2150 1450 2125 
Q 1125 2100 912 1900 
Q 700 1700 687 1400 
z
M 775 3350 
Q 775 3100 950 2875 
Q 1125 2650 1500 2650 
Q 1875 2650 2062 2875 
Q 2250 3100 2237 3412 
Q 2225 3725 2012 3875 
Q 1800 4025 1437 4000 
Q 1075 3975 925 3787 
Q 775 3600 775 3350 
z
" transform="scale(0.015625)"/>
       </defs>
       <use xlink:href="#KaiTi-55"/>
       <use xlink:href="#KaiTi-54" x="50"/>
       <use xlink:href="#KaiTi-43" x="100"/>
       <use xlink:href="#KaiTi-2b" x="150"/>
       <use xlink:href="#KaiTi-38" x="200"/>
       <use xlink:href="#KaiTi-3a" x="250"/>
       <use xlink:href="#KaiTi-30" x="300"/>
       <use xlink:href="#KaiTi-30" x="350"/>
      </g>
     </g>
    </g>
    <g id="xtick_4">
     <g id="line2d_4">
      <g>
       <use xlink:href="#m19aaaf1989" x="254.369207" y="299.9625" style="stroke: #000000; stroke-width: 0.8"/>
      </g>
     </g>
     <g id="text_4">
      <!-- Unknow -->
      <g transform="translate(257.181707 336.9625) rotate(-90) scale(0.1 -0.1)">
       <defs>
        <path id="KaiTi-6e" d="M 2800 125 
L 2300 125 
L 2300 1925 
Q 2300 2225 2150 2400 
Q 2000 2575 1750 2575 
Q 1425 2575 1137 2237 
Q 850 1900 850 1400 
L 850 125 
L 350 125 
L 350 2925 
L 850 2925 
L 850 2400 
Q 1050 2675 1287 2825 
Q 1525 2975 1900 2975 
Q 2350 2975 2575 2725 
Q 2800 2475 2800 2100 
L 2800 125 
z
" transform="scale(0.015625)"/>
        <path id="KaiTi-6b" d="M 2925 125 
L 2350 125 
L 1450 1650 
L 875 1100 
L 875 125 
L 375 125 
L 375 4400 
L 875 4400 
L 875 1675 
L 2125 2925 
L 2750 2925 
L 1775 1975 
L 2925 125 
z
" transform="scale(0.015625)"/>
        <path id="KaiTi-6f" d="M 2925 1525 
Q 2925 875 2525 475 
Q 2125 75 1575 75 
Q 1025 75 625 475 
Q 225 875 225 1525 
Q 225 2175 625 2575 
Q 1025 2975 1575 2975 
Q 2125 2975 2525 2575 
Q 2925 2175 2925 1525 
z
M 2375 1525 
Q 2375 2025 2125 2275 
Q 1875 2525 1575 2525 
Q 1275 2525 1025 2275 
Q 775 2025 775 1525 
Q 775 1025 1025 775 
Q 1275 525 1575 525 
Q 1875 525 2125 775 
Q 2375 1025 2375 1525 
z
" transform="scale(0.015625)"/>
        <path id="KaiTi-77" d="M 3075 2925 
L 2450 75 
L 1975 75 
L 1575 2250 
L 1525 2250 
L 1125 75 
L 650 75 
L 25 2925 
L 550 2925 
L 875 1050 
L 925 1050 
L 1275 2925 
L 1825 2925 
L 2175 1050 
L 2225 1050 
L 2550 2925 
L 3075 2925 
z
" transform="scale(0.015625)"/>
       </defs>
       <use xlink:href="#KaiTi-55"/>
       <use xlink:href="#KaiTi-6e" x="50"/>
       <use xlink:href="#KaiTi-6b" x="100"/>
       <use xlink:href="#KaiTi-6e" x="150"/>
       <use xlink:href="#KaiTi-6f" x="200"/>
       <use xlink:href="#KaiTi-77" x="250"/>
      </g>
     </g>
    </g>
    <g id="xtick_5">
     <g id="line2d_5">
      <g>
       <use xlink:href="#m19aaaf1989" x="305.781983" y="299.9625" style="stroke: #000000; stroke-width: 0.8"/>
      </g>
     </g>
     <g id="text_5">
      <!-- UTC±0:00 -->
      <g transform="translate(308.594483 351.9625) rotate(-90) scale(0.1 -0.1)">
       <defs>
        <path id="KaiTi-b1" d="M 3400 5025 
L 3400 3500 
L 5325 3500 
L 5325 3075 
L 3400 3075 
L 3400 1550 
L 2975 1550 
L 2975 3075 
L 975 3075 
L 975 3500 
L 2975 3500 
L 2975 5025 
L 3400 5025 
z
M 975 825 
L 5325 825 
L 5325 375 
L 975 375 
L 975 825 
z
" transform="scale(0.015625)"/>
       </defs>
       <use xlink:href="#KaiTi-55"/>
       <use xlink:href="#KaiTi-54" x="50"/>
       <use xlink:href="#KaiTi-43" x="100"/>
       <use xlink:href="#KaiTi-b1" x="150"/>
       <use xlink:href="#KaiTi-30" x="250"/>
       <use xlink:href="#KaiTi-3a" x="300"/>
       <use xlink:href="#KaiTi-30" x="350"/>
       <use xlink:href="#KaiTi-30" x="400"/>
      </g>
     </g>
    </g>
    <g id="xtick_6">
     <g id="line2d_6">
      <g>
       <use xlink:href="#m19aaaf1989" x="357.19476" y="299.9625" style="stroke: #000000; stroke-width: 0.8"/>
      </g>
     </g>
     <g id="text_6">
      <!-- UTC+10:00 -->
      <g transform="translate(360.00726 351.9625) rotate(-90) scale(0.1 -0.1)">
       <use xlink:href="#KaiTi-55"/>
       <use xlink:href="#KaiTi-54" x="50"/>
       <use xlink:href="#KaiTi-43" x="100"/>
       <use xlink:href="#KaiTi-2b" x="150"/>
       <use xlink:href="#KaiTi-31" x="200"/>
       <use xlink:href="#KaiTi-30" x="250"/>
       <use xlink:href="#KaiTi-3a" x="300"/>
       <use xlink:href="#KaiTi-30" x="350"/>
       <use xlink:href="#KaiTi-30" x="400"/>
      </g>
     </g>
    </g>
    <g id="xtick_7">
     <g id="line2d_7">
      <g>
       <use xlink:href="#m19aaaf1989" x="408.607536" y="299.9625" style="stroke: #000000; stroke-width: 0.8"/>
      </g>
     </g>
     <g id="text_7">
      <!-- UTC+2:00 -->
      <g transform="translate(411.420036 346.9625) rotate(-90) scale(0.1 -0.1)">
       <defs>
        <path id="KaiTi-32" d="M 300 250 
Q 325 625 650 925 
Q 975 1225 1475 1862 
Q 1975 2500 2125 2850 
Q 2275 3200 2237 3450 
Q 2200 3700 2000 3862 
Q 1800 4025 1537 4000 
Q 1275 3975 1037 3800 
Q 800 3625 675 3275 
L 200 3350 
Q 400 3925 712 4187 
Q 1025 4450 1450 4475 
Q 1700 4500 1900 4462 
Q 2100 4425 2312 4287 
Q 2525 4150 2662 3875 
Q 2800 3600 2762 3212 
Q 2725 2825 2375 2287 
Q 2025 1750 1025 600 
L 2825 600 
L 2825 150 
L 300 150 
L 300 250 
z
" transform="scale(0.015625)"/>
       </defs>
       <use xlink:href="#KaiTi-55"/>
       <use xlink:href="#KaiTi-54" x="50"/>
       <use xlink:href="#KaiTi-43" x="100"/>
       <use xlink:href="#KaiTi-2b" x="150"/>
       <use xlink:href="#KaiTi-32" x="200"/>
       <use xlink:href="#KaiTi-3a" x="250"/>
       <use xlink:href="#KaiTi-30" x="300"/>
       <use xlink:href="#KaiTi-30" x="350"/>
      </g>
     </g>
    </g>
    <g id="xtick_8">
     <g id="line2d_8">
      <g>
       <use xlink:href="#m19aaaf1989" x="460.020312" y="299.9625" style="stroke: #000000; stroke-width: 0.8"/>
      </g>
     </g>
     <g id="text_8">
      <!-- UTC+9:00 -->
      <g transform="translate(462.832812 346.9625) rotate(-90) scale(0.1 -0.1)">
       <defs>
        <path id="KaiTi-39" d="M 800 75 
Q 1350 1000 1700 1750 
Q 1075 1650 662 1912 
Q 250 2175 162 2625 
Q 75 3075 175 3437 
Q 275 3800 487 4037 
Q 700 4275 1000 4375 
Q 1300 4475 1537 4475 
Q 1775 4475 2025 4375 
Q 2275 4275 2475 4075 
Q 2675 3875 2750 3662 
Q 2825 3450 2825 3112 
Q 2825 2775 2575 2250 
Q 2325 1725 1350 75 
L 800 75 
z
M 662 2875 
Q 700 2550 937 2337 
Q 1175 2125 1450 2150 
Q 1725 2175 1887 2300 
Q 2050 2425 2200 2725 
Q 2300 3100 2250 3362 
Q 2200 3625 1987 3800 
Q 1775 3975 1525 3975 
Q 1375 4000 1137 3900 
Q 900 3800 762 3500 
Q 625 3200 662 2875 
z
" transform="scale(0.015625)"/>
       </defs>
       <use xlink:href="#KaiTi-55"/>
       <use xlink:href="#KaiTi-54" x="50"/>
       <use xlink:href="#KaiTi-43" x="100"/>
       <use xlink:href="#KaiTi-2b" x="150"/>
       <use xlink:href="#KaiTi-39" x="200"/>
       <use xlink:href="#KaiTi-3a" x="250"/>
       <use xlink:href="#KaiTi-30" x="300"/>
       <use xlink:href="#KaiTi-30" x="350"/>
      </g>
     </g>
    </g>
    <g id="xtick_9">
     <g id="line2d_9">
      <g>
       <use xlink:href="#m19aaaf1989" x="511.433089" y="299.9625" style="stroke: #000000; stroke-width: 0.8"/>
      </g>
     </g>
     <g id="text_9">
      <!-- UTC+12:00 -->
      <g transform="translate(514.245589 351.9625) rotate(-90) scale(0.1 -0.1)">
       <use xlink:href="#KaiTi-55"/>
       <use xlink:href="#KaiTi-54" x="50"/>
       <use xlink:href="#KaiTi-43" x="100"/>
       <use xlink:href="#KaiTi-2b" x="150"/>
       <use xlink:href="#KaiTi-31" x="200"/>
       <use xlink:href="#KaiTi-32" x="250"/>
       <use xlink:href="#KaiTi-3a" x="300"/>
       <use xlink:href="#KaiTi-30" x="350"/>
       <use xlink:href="#KaiTi-30" x="400"/>
      </g>
     </g>
    </g>
    <g id="xtick_10">
     <g id="line2d_10">
      <g>
       <use xlink:href="#m19aaaf1989" x="562.845865" y="299.9625" style="stroke: #000000; stroke-width: 0.8"/>
      </g>
     </g>
     <g id="text_10">
      <!-- UTC+3:00 -->
      <g transform="translate(565.658365 346.9625) rotate(-90) scale(0.1 -0.1)">
       <defs>
        <path id="KaiTi-33" d="M 250 1225 
L 700 1300 
Q 800 975 1025 762 
Q 1250 550 1587 562 
Q 1925 575 2125 837 
Q 2325 1100 2300 1437 
Q 2275 1775 2037 1962 
Q 1800 2150 1275 2225 
L 1275 2550 
Q 1800 2600 2037 2825 
Q 2275 3050 2250 3412 
Q 2225 3775 1925 3937 
Q 1625 4100 1287 3975 
Q 950 3850 750 3275 
L 300 3350 
Q 450 3800 712 4100 
Q 975 4400 1425 4450 
Q 1875 4500 2212 4337 
Q 2550 4175 2687 3837 
Q 2825 3500 2725 3100 
Q 2625 2700 2150 2400 
Q 2500 2250 2687 1950 
Q 2875 1650 2812 1162 
Q 2750 675 2375 375 
Q 2000 75 1525 87 
Q 1050 100 700 387 
Q 350 675 250 1225 
z
" transform="scale(0.015625)"/>
       </defs>
       <use xlink:href="#KaiTi-55"/>
       <use xlink:href="#KaiTi-54" x="50"/>
       <use xlink:href="#KaiTi-43" x="100"/>
       <use xlink:href="#KaiTi-2b" x="150"/>
       <use xlink:href="#KaiTi-33" x="200"/>
       <use xlink:href="#KaiTi-3a" x="250"/>
       <use xlink:href="#KaiTi-30" x="300"/>
       <use xlink:href="#KaiTi-30" x="350"/>
      </g>
     </g>
    </g>
    <g id="xtick_11">
     <g id="line2d_11">
      <g>
       <use xlink:href="#m19aaaf1989" x="614.258642" y="299.9625" style="stroke: #000000; stroke-width: 0.8"/>
      </g>
     </g>
     <g id="text_11">
      <!-- UTC+7:00 -->
      <g transform="translate(617.071142 346.9625) rotate(-90) scale(0.1 -0.1)">
       <defs>
        <path id="KaiTi-37" d="M 850 150 
Q 1300 2050 2425 3925 
L 275 3925 
L 275 4375 
L 2950 4375 
L 2950 3950 
Q 1775 2050 1400 150 
L 850 150 
z
" transform="scale(0.015625)"/>
       </defs>
       <use xlink:href="#KaiTi-55"/>
       <use xlink:href="#KaiTi-54" x="50"/>
       <use xlink:href="#KaiTi-43" x="100"/>
       <use xlink:href="#KaiTi-2b" x="150"/>
       <use xlink:href="#KaiTi-37" x="200"/>
       <use xlink:href="#KaiTi-3a" x="250"/>
       <use xlink:href="#KaiTi-30" x="300"/>
       <use xlink:href="#KaiTi-30" x="350"/>
      </g>
     </g>
    </g>
    <g id="xtick_12">
     <g id="line2d_12">
      <g>
       <use xlink:href="#m19aaaf1989" x="665.671418" y="299.9625" style="stroke: #000000; stroke-width: 0.8"/>
      </g>
     </g>
     <g id="text_12">
      <!-- UTC+4:00 -->
      <g transform="translate(668.483918 346.9625) rotate(-90) scale(0.1 -0.1)">
       <defs>
        <path id="KaiTi-34" d="M 2000 1100 
L 75 1100 
L 75 1525 
L 2100 4450 
L 2475 4450 
L 2475 1525 
L 3075 1525 
L 3075 1100 
L 2475 1100 
L 2475 150 
L 2000 150 
L 2000 1100 
z
M 2000 1525 
L 2000 3500 
L 600 1525 
L 2000 1525 
z
" transform="scale(0.015625)"/>
       </defs>
       <use xlink:href="#KaiTi-55"/>
       <use xlink:href="#KaiTi-54" x="50"/>
       <use xlink:href="#KaiTi-43" x="100"/>
       <use xlink:href="#KaiTi-2b" x="150"/>
       <use xlink:href="#KaiTi-34" x="200"/>
       <use xlink:href="#KaiTi-3a" x="250"/>
       <use xlink:href="#KaiTi-30" x="300"/>
       <use xlink:href="#KaiTi-30" x="350"/>
      </g>
     </g>
    </g>
    <g id="xtick_13">
     <g id="line2d_13">
      <g>
       <use xlink:href="#m19aaaf1989" x="717.084195" y="299.9625" style="stroke: #000000; stroke-width: 0.8"/>
      </g>
     </g>
     <g id="text_13">
      <!-- UTC+5:30 -->
      <g transform="translate(719.896695 346.9625) rotate(-90) scale(0.1 -0.1)">
       <use xlink:href="#KaiTi-55"/>
       <use xlink:href="#KaiTi-54" x="50"/>
       <use xlink:href="#KaiTi-43" x="100"/>
       <use xlink:href="#KaiTi-2b" x="150"/>
       <use xlink:href="#KaiTi-35" x="200"/>
       <use xlink:href="#KaiTi-3a" x="250"/>
       <use xlink:href="#KaiTi-33" x="300"/>
       <use xlink:href="#KaiTi-30" x="350"/>
      </g>
     </g>
    </g>
    <g id="xtick_14">
     <g id="line2d_14">
      <g>
       <use xlink:href="#m19aaaf1989" x="768.496971" y="299.9625" style="stroke: #000000; stroke-width: 0.8"/>
      </g>
     </g>
     <g id="text_14">
      <!-- UTC-3:00 -->
      <g transform="translate(771.309471 346.9625) rotate(-90) scale(0.1 -0.1)">
       <use xlink:href="#KaiTi-55"/>
       <use xlink:href="#KaiTi-54" x="50"/>
       <use xlink:href="#KaiTi-43" x="100"/>
       <use xlink:href="#KaiTi-2d" x="150"/>
       <use xlink:href="#KaiTi-33" x="200"/>
       <use xlink:href="#KaiTi-3a" x="250"/>
       <use xlink:href="#KaiTi-30" x="300"/>
       <use xlink:href="#KaiTi-30" x="350"/>
      </g>
     </g>
    </g>
    <g id="xtick_15">
     <g id="line2d_15">
      <g>
       <use xlink:href="#m19aaaf1989" x="819.909747" y="299.9625" style="stroke: #000000; stroke-width: 0.8"/>
      </g>
     </g>
     <g id="text_15">
      <!-- UTC+5:00 -->
      <g transform="translate(822.722247 346.9625) rotate(-90) scale(0.1 -0.1)">
       <use xlink:href="#KaiTi-55"/>
       <use xlink:href="#KaiTi-54" x="50"/>
       <use xlink:href="#KaiTi-43" x="100"/>
       <use xlink:href="#KaiTi-2b" x="150"/>
       <use xlink:href="#KaiTi-35" x="200"/>
       <use xlink:href="#KaiTi-3a" x="250"/>
       <use xlink:href="#KaiTi-30" x="300"/>
       <use xlink:href="#KaiTi-30" x="350"/>
      </g>
     </g>
    </g>
    <g id="text_16">
     <!-- timezone -->
     <g transform="translate(440.020312 362.8375) scale(0.1 -0.1)">
      <defs>
       <path id="KaiTi-74" d="M 2750 200 
Q 2625 150 2462 112 
Q 2300 75 2025 75 
Q 1575 75 1300 325 
Q 1025 575 1025 1025 
L 1025 2525 
L 175 2525 
L 175 2925 
L 1025 2925 
L 1025 3900 
L 1525 3900 
L 1525 2925 
L 2550 2925 
L 2550 2525 
L 1525 2525 
L 1525 1000 
Q 1525 800 1625 662 
Q 1725 525 2000 525 
Q 2275 525 2450 575 
Q 2625 625 2750 700 
L 2750 200 
z
" transform="scale(0.015625)"/>
       <path id="KaiTi-69" d="M 1800 125 
L 1300 125 
L 1300 2925 
L 1800 2925 
L 1800 125 
z
M 1912 4075 
Q 1925 3875 1750 3775 
Q 1575 3675 1400 3762 
Q 1225 3850 1212 4050 
Q 1200 4250 1375 4350 
Q 1550 4450 1725 4362 
Q 1900 4275 1912 4075 
z
" transform="scale(0.015625)"/>
       <path id="KaiTi-6d" d="M 3050 125 
L 2550 125 
L 2550 2150 
Q 2550 2300 2500 2400 
Q 2450 2500 2300 2500 
Q 2125 2500 1975 2312 
Q 1825 2125 1825 1825 
L 1825 125 
L 1325 125 
L 1325 2150 
Q 1325 2300 1275 2400 
Q 1225 2500 1075 2500 
Q 900 2500 750 2312 
Q 600 2125 600 1825 
L 600 125 
L 100 125 
L 100 2925 
L 600 2925 
L 600 2550 
Q 725 2750 900 2862 
Q 1075 2975 1275 2975 
Q 1475 2975 1612 2862 
Q 1750 2750 1800 2550 
Q 1925 2750 2087 2862 
Q 2250 2975 2450 2975 
Q 2750 2975 2900 2812 
Q 3050 2650 3050 2350 
L 3050 125 
z
" transform="scale(0.015625)"/>
       <path id="KaiTi-65" d="M 2850 1075 
Q 2800 625 2450 350 
Q 2100 75 1625 75 
Q 1025 75 637 462 
Q 250 850 250 1525 
Q 250 2200 637 2587 
Q 1025 2975 1625 2975 
Q 2150 2975 2487 2637 
Q 2825 2300 2825 1525 
L 800 1525 
Q 800 975 1037 750 
Q 1275 525 1625 525 
Q 1900 525 2075 662 
Q 2250 800 2300 1075 
L 2850 1075 
z
M 2250 1925 
Q 2200 2275 2025 2412 
Q 1850 2550 1575 2550 
Q 1325 2550 1125 2412 
Q 925 2275 825 1925 
L 2250 1925 
z
" transform="scale(0.015625)"/>
       <path id="KaiTi-7a" d="M 2775 125 
L 350 125 
L 350 525 
L 2050 2525 
L 450 2525 
L 450 2925 
L 2650 2925 
L 2650 2525 
L 950 525 
L 2775 525 
L 2775 125 
z
" transform="scale(0.015625)"/>
      </defs>
      <use xlink:href="#KaiTi-74"/>
      <use xlink:href="#KaiTi-69" x="50"/>
      <use xlink:href="#KaiTi-6d" x="100"/>
      <use xlink:href="#KaiTi-65" x="150"/>
      <use xlink:href="#KaiTi-7a" x="200"/>
      <use xlink:href="#KaiTi-6f" x="250"/>
      <use xlink:href="#KaiTi-6e" x="300"/>
      <use xlink:href="#KaiTi-65" x="350"/>
     </g>
    </g>
   </g>
   <g id="matplotlib.axis_2">
    <g id="ytick_1">
     <g id="line2d_16">
      <defs>
       <path id="m62f30de4d4" d="M 0 0 
L -3.5 0 
" style="stroke: #000000; stroke-width: 0.8"/>
      </defs>
      <g>
       <use xlink:href="#m62f30de4d4" x="41.520313" y="299.9625" style="stroke: #000000; stroke-width: 0.8"/>
      </g>
     </g>
     <g id="text_17">
      <!-- 0 -->
      <g transform="translate(29.520313 303.4) scale(0.1 -0.1)">
       <use xlink:href="#KaiTi-30"/>
      </g>
     </g>
    </g>
    <g id="ytick_2">
     <g id="line2d_17">
      <g>
       <use xlink:href="#m62f30de4d4" x="41.520313" y="262.4625" style="stroke: #000000; stroke-width: 0.8"/>
      </g>
     </g>
     <g id="text_18">
      <!-- 25 -->
      <g transform="translate(24.520313 265.9) scale(0.1 -0.1)">
       <use xlink:href="#KaiTi-32"/>
       <use xlink:href="#KaiTi-35" x="50"/>
      </g>
     </g>
    </g>
    <g id="ytick_3">
     <g id="line2d_18">
      <g>
       <use xlink:href="#m62f30de4d4" x="41.520313" y="224.9625" style="stroke: #000000; stroke-width: 0.8"/>
      </g>
     </g>
     <g id="text_19">
      <!-- 50 -->
      <g transform="translate(24.520313 228.4) scale(0.1 -0.1)">
       <use xlink:href="#KaiTi-35"/>
       <use xlink:href="#KaiTi-30" x="50"/>
      </g>
     </g>
    </g>
    <g id="ytick_4">
     <g id="line2d_19">
      <g>
       <use xlink:href="#m62f30de4d4" x="41.520313" y="187.4625" style="stroke: #000000; stroke-width: 0.8"/>
      </g>
     </g>
     <g id="text_20">
      <!-- 75 -->
      <g transform="translate(24.520313 190.9) scale(0.1 -0.1)">
       <use xlink:href="#KaiTi-37"/>
       <use xlink:href="#KaiTi-35" x="50"/>
      </g>
     </g>
    </g>
    <g id="ytick_5">
     <g id="line2d_20">
      <g>
       <use xlink:href="#m62f30de4d4" x="41.520313" y="149.9625" style="stroke: #000000; stroke-width: 0.8"/>
      </g>
     </g>
     <g id="text_21">
      <!-- 100 -->
      <g transform="translate(19.520313 153.4) scale(0.1 -0.1)">
       <use xlink:href="#KaiTi-31"/>
       <use xlink:href="#KaiTi-30" x="50"/>
       <use xlink:href="#KaiTi-30" x="100"/>
      </g>
     </g>
    </g>
    <g id="ytick_6">
     <g id="line2d_21">
      <g>
       <use xlink:href="#m62f30de4d4" x="41.520313" y="112.4625" style="stroke: #000000; stroke-width: 0.8"/>
      </g>
     </g>
     <g id="text_22">
      <!-- 125 -->
      <g transform="translate(19.520313 115.9) scale(0.1 -0.1)">
       <use xlink:href="#KaiTi-31"/>
       <use xlink:href="#KaiTi-32" x="50"/>
       <use xlink:href="#KaiTi-35" x="100"/>
      </g>
     </g>
    </g>
    <g id="ytick_7">
     <g id="line2d_22">
      <g>
       <use xlink:href="#m62f30de4d4" x="41.520313" y="74.9625" style="stroke: #000000; stroke-width: 0.8"/>
      </g>
     </g>
     <g id="text_23">
      <!-- 150 -->
      <g transform="translate(19.520313 78.4) scale(0.1 -0.1)">
       <use xlink:href="#KaiTi-31"/>
       <use xlink:href="#KaiTi-35" x="50"/>
       <use xlink:href="#KaiTi-30" x="100"/>
      </g>
     </g>
    </g>
    <g id="ytick_8">
     <g id="line2d_23">
      <g>
       <use xlink:href="#m62f30de4d4" x="41.520313" y="37.4625" style="stroke: #000000; stroke-width: 0.8"/>
      </g>
     </g>
     <g id="text_24">
      <!-- 175 -->
      <g transform="translate(19.520313 40.9) scale(0.1 -0.1)">
       <use xlink:href="#KaiTi-31"/>
       <use xlink:href="#KaiTi-37" x="50"/>
       <use xlink:href="#KaiTi-35" x="100"/>
      </g>
     </g>
    </g>
    <g id="text_25">
     <!-- 人数 -->
     <g transform="translate(14.270313 171.3625) rotate(-90) scale(0.1 -0.1)">
      <defs>
       <path id="KaiTi-4eba" d="M 2900 2975 
Q 3325 2450 3975 1812 
Q 4625 1175 5037 937 
Q 5450 700 5950 537 
Q 6450 375 5925 312 
Q 5400 250 5037 287 
Q 4675 325 4487 587 
Q 4300 850 3775 1537 
Q 3250 2225 2825 2850 
Q 2375 2075 2000 1562 
Q 1625 1050 1262 750 
Q 900 450 500 300 
Q 100 150 550 487 
Q 1000 825 1450 1375 
Q 1900 1925 2250 2612 
Q 2600 3300 2750 3737 
Q 2900 4175 2812 4450 
Q 2725 4725 3000 4600 
Q 3275 4475 3425 4350 
Q 3575 4225 3450 4087 
Q 3325 3950 3187 3637 
Q 3050 3325 2900 2975 
z
" transform="scale(0.015625)"/>
       <path id="KaiTi-6570" d="M 4100 1300 
Q 4275 1625 4312 1987 
Q 4350 2350 4325 2725 
Q 4125 2700 3875 2725 
Q 3575 2375 3325 2225 
Q 3075 2075 3387 2462 
Q 3700 2850 3912 3487 
Q 4125 4125 4100 4275 
Q 4075 4425 4062 4537 
Q 4050 4650 4362 4487 
Q 4675 4325 4562 4175 
Q 4450 4025 4337 3712 
Q 4225 3400 3925 2850 
Q 4525 2975 4912 3162 
Q 5300 3350 5512 3212 
Q 5725 3075 5450 2975 
Q 5175 2875 4425 2725 
Q 4800 2600 4712 2350 
Q 4625 2100 4562 1775 
Q 4500 1450 4325 1025 
Q 4550 750 4837 512 
Q 5125 275 5437 150 
Q 5750 25 5975 -62 
Q 6200 -150 5737 -187 
Q 5275 -225 5037 -187 
Q 4800 -150 4687 25 
Q 4575 200 4125 800 
Q 3900 550 3675 400 
Q 3450 250 3175 175 
Q 2900 100 3162 262 
Q 3425 425 3625 625 
Q 3825 825 3975 1050 
Q 3800 1350 3637 1562 
Q 3475 1775 3362 1900 
Q 3250 2025 3387 2037 
Q 3525 2050 3612 1950 
Q 3700 1850 4100 1300 
z
M 2575 1600 
Q 2625 1750 2612 1862 
Q 2600 1975 2750 1875 
Q 2900 1775 2962 1700 
Q 3025 1625 2962 1500 
Q 2900 1375 2800 1112 
Q 2700 850 2525 550 
Q 2700 425 2837 300 
Q 2975 175 2925 -62 
Q 2875 -300 2712 -100 
Q 2550 100 2325 275 
Q 1925 -25 1587 -150 
Q 1250 -275 912 -300 
Q 575 -325 850 -212 
Q 1125 -100 1450 50 
Q 1775 200 2050 475 
Q 1750 700 1637 750 
Q 1525 800 1587 900 
Q 1650 1000 1700 1250 
Q 1050 1175 862 1062 
Q 675 950 425 1150 
Q 175 1350 500 1337 
Q 825 1325 1775 1475 
Q 1850 1800 1800 1987 
Q 1750 2175 2025 2037 
Q 2300 1900 2250 1825 
Q 2200 1750 2075 1525 
L 2575 1600 
z
M 2875 3425 
Q 3125 3475 3225 3387 
Q 3325 3300 3100 3225 
Q 2875 3150 2350 3075 
L 2350 2875 
Q 2775 2825 2975 2687 
Q 3175 2550 3112 2350 
Q 3050 2150 2812 2412 
Q 2575 2675 2350 2800 
Q 2350 2500 2300 2287 
Q 2250 2075 2137 2262 
Q 2025 2450 2062 2600 
Q 2100 2750 2075 2950 
Q 1475 2175 975 1937 
Q 475 1700 762 1925 
Q 1050 2150 1362 2475 
Q 1675 2800 1800 3050 
Q 1450 2925 1312 2900 
Q 1175 2875 975 3012 
Q 775 3150 1050 3137 
Q 1325 3125 2100 3275 
L 2100 4175 
Q 2100 4700 2012 4837 
Q 1925 4975 1987 4987 
Q 2050 5000 2300 4887 
Q 2550 4775 2462 4625 
Q 2375 4475 2375 3325 
L 2875 3425 
z
M 2250 675 
Q 2450 925 2575 1425 
L 2000 1325 
Q 1825 925 1837 875 
Q 1850 825 1937 800 
Q 2025 775 2250 675 
z
M 3250 4275 
Q 3450 4150 3300 4087 
Q 3150 4025 2762 3737 
Q 2375 3450 2600 3737 
Q 2825 4025 2900 4237 
Q 2975 4450 3025 4425 
Q 3075 4400 3250 4275 
z
M 1550 3600 
Q 1350 3875 1287 4000 
Q 1225 4125 1537 4050 
Q 1850 3975 1812 3662 
Q 1775 3350 1550 3600 
z
" transform="scale(0.015625)"/>
      </defs>
      <use xlink:href="#KaiTi-4eba"/>
      <use xlink:href="#KaiTi-6570" x="100"/>
     </g>
    </g>
   </g>
   <g id="patch_18">
    <path d="M 41.520313 299.9625 
L 41.520313 22.7625 
" style="fill: none; stroke: #000000; stroke-width: 0.8; stroke-linejoin: miter; stroke-linecap: square"/>
   </g>
   <g id="patch_19">
    <path d="M 878.520313 299.9625 
L 878.520313 22.7625 
" style="fill: none; stroke: #000000; stroke-width: 0.8; stroke-linejoin: miter; stroke-linecap: square"/>
   </g>
   <g id="patch_20">
    <path d="M 41.520312 299.9625 
L 878.520312 299.9625 
" style="fill: none; stroke: #000000; stroke-width: 0.8; stroke-linejoin: miter; stroke-linecap: square"/>
   </g>
   <g id="patch_21">
    <path d="M 41.520312 22.7625 
L 878.520312 22.7625 
" style="fill: none; stroke: #000000; stroke-width: 0.8; stroke-linejoin: miter; stroke-linecap: square"/>
   </g>
   <g id="text_26">
    <!-- 176 -->
    <g transform="translate(92.630878 34.7125) scale(0.1 -0.1)">
     <defs>
      <path id="KaiTi-36" d="M 250 1612 
Q 275 1975 387 2225 
Q 500 2475 725 2850 
L 1750 4450 
L 2325 4450 
L 1275 2800 
Q 1950 2975 2350 2750 
Q 2750 2525 2887 2237 
Q 3025 1950 3037 1612 
Q 3050 1275 2937 950 
Q 2825 625 2537 362 
Q 2250 100 1737 75 
Q 1225 50 862 262 
Q 500 475 362 862 
Q 225 1250 250 1612 
z
M 1025 787 
Q 1250 550 1625 525 
Q 2000 500 2250 775 
Q 2500 1050 2500 1575 
Q 2500 2100 2187 2300 
Q 1875 2500 1487 2450 
Q 1100 2400 925 2075 
Q 750 1750 775 1387 
Q 800 1025 1025 787 
z
" transform="scale(0.015625)"/>
     </defs>
     <use xlink:href="#KaiTi-31"/>
     <use xlink:href="#KaiTi-37" x="50"/>
     <use xlink:href="#KaiTi-36" x="100"/>
    </g>
   </g>
   <g id="text_27">
    <!-- 149 -->
    <g transform="translate(144.043654 75.2125) scale(0.1 -0.1)">
     <use xlink:href="#KaiTi-31"/>
     <use xlink:href="#KaiTi-34" x="50"/>
     <use xlink:href="#KaiTi-39" x="100"/>
    </g>
   </g>
   <g id="text_28">
    <!-- 44 -->
    <g transform="translate(197.95643 232.7125) scale(0.1 -0.1)">
     <use xlink:href="#KaiTi-34"/>
     <use xlink:href="#KaiTi-34" x="50"/>
    </g>
   </g>
   <g id="text_29">
    <!-- 37 -->
    <g transform="translate(249.369207 243.2125) scale(0.1 -0.1)">
     <use xlink:href="#KaiTi-33"/>
     <use xlink:href="#KaiTi-37" x="50"/>
    </g>
   </g>
   <g id="text_30">
    <!-- 25 -->
    <g transform="translate(300.781983 261.2125) scale(0.1 -0.1)">
     <use xlink:href="#KaiTi-32"/>
     <use xlink:href="#KaiTi-35" x="50"/>
    </g>
   </g>
   <g id="text_31">
    <!-- 15 -->
    <g transform="translate(352.19476 276.2125) scale(0.1 -0.1)">
     <use xlink:href="#KaiTi-31"/>
     <use xlink:href="#KaiTi-35" x="50"/>
    </g>
   </g>
   <g id="text_32">
    <!-- 14 -->
    <g transform="translate(403.607536 277.7125) scale(0.1 -0.1)">
     <use xlink:href="#KaiTi-31"/>
     <use xlink:href="#KaiTi-34" x="50"/>
    </g>
   </g>
   <g id="text_33">
    <!-- 14 -->
    <g transform="translate(455.020312 277.7125) scale(0.1 -0.1)">
     <use xlink:href="#KaiTi-31"/>
     <use xlink:href="#KaiTi-34" x="50"/>
    </g>
   </g>
   <g id="text_34">
    <!-- 7 -->
    <g transform="translate(508.933089 288.2125) scale(0.1 -0.1)">
     <use xlink:href="#KaiTi-37"/>
    </g>
   </g>
   <g id="text_35">
    <!-- 5 -->
    <g transform="translate(560.345865 291.2125) scale(0.1 -0.1)">
     <use xlink:href="#KaiTi-35"/>
    </g>
   </g>
   <g id="text_36">
    <!-- 3 -->
    <g transform="translate(611.758642 294.2125) scale(0.1 -0.1)">
     <use xlink:href="#KaiTi-33"/>
    </g>
   </g>
   <g id="text_37">
    <!-- 3 -->
    <g transform="translate(663.171418 294.2125) scale(0.1 -0.1)">
     <use xlink:href="#KaiTi-33"/>
    </g>
   </g>
   <g id="text_38">
    <!-- 3 -->
    <g transform="translate(714.584195 294.2125) scale(0.1 -0.1)">
     <use xlink:href="#KaiTi-33"/>
    </g>
   </g>
   <g id="text_39">
    <!-- 3 -->
    <g transform="translate(765.996971 294.2125) scale(0.1 -0.1)">
     <use xlink:href="#KaiTi-33"/>
    </g>
   </g>
   <g id="text_40">
    <!-- 2 -->
    <g transform="translate(817.409747 295.7125) scale(0.1 -0.1)">
     <use xlink:href="#KaiTi-32"/>
    </g>
   </g>
   <g id="text_41">
    <!-- 人数-timezone分布图 -->
    <g transform="translate(403.020312 16.7625) scale(0.12 -0.12)">
     <defs>
      <path id="KaiTi-5206" d="M 4250 2425 
Q 4625 2175 4462 2025 
Q 4300 1875 4200 1600 
Q 4125 625 3900 200 
Q 3675 -225 3325 -387 
Q 2975 -550 2962 -300 
Q 2950 -50 2762 212 
Q 2575 475 2737 400 
Q 2900 325 3200 200 
Q 3475 200 3637 662 
Q 3800 1125 3825 1512 
Q 3850 1900 3825 2075 
Q 3800 2250 3612 2237 
Q 3425 2225 2600 2075 
Q 2925 1925 2800 1775 
Q 2675 1625 2612 1450 
Q 2550 1275 2262 862 
Q 1975 450 1600 162 
Q 1225 -125 950 -162 
Q 675 -200 887 -75 
Q 1100 50 1425 350 
Q 1750 650 2050 1162 
Q 2350 1675 2300 2000 
Q 2075 1950 1875 1887 
Q 1675 1825 1450 2000 
Q 1250 2150 1600 2162 
Q 1950 2175 2750 2300 
Q 3475 2425 3662 2550 
Q 3850 2675 4250 2425 
z
M 2775 5075 
Q 3150 5075 3325 4787 
Q 3500 4500 3950 4025 
Q 4400 3550 4825 3187 
Q 5250 2825 5762 2625 
Q 6275 2425 6062 2375 
Q 5850 2325 5300 2350 
Q 4750 2375 4625 2550 
Q 4500 2725 4187 3175 
Q 3875 3625 3662 3912 
Q 3450 4200 3250 4475 
Q 3050 4750 2912 4825 
Q 2775 4900 2687 4925 
Q 2600 4950 2575 5012 
Q 2550 5075 2775 5075 
z
M 2350 3575 
Q 2000 3050 1637 2700 
Q 1275 2350 950 2137 
Q 625 1925 475 1887 
Q 325 1850 475 1987 
Q 625 2125 950 2412 
Q 1275 2700 1600 3162 
Q 1925 3625 1962 3825 
Q 2000 4025 1962 4150 
Q 1925 4275 2050 4275 
Q 2175 4275 2462 4162 
Q 2750 4050 2600 3912 
Q 2450 3775 2350 3575 
z
" transform="scale(0.015625)"/>
      <path id="KaiTi-5e03" d="M 2625 2350 
Q 2625 2000 2612 1587 
Q 2600 1175 2500 875 
Q 2400 575 2275 850 
Q 2150 1125 2225 1287 
Q 2300 1450 2325 1887 
Q 2350 2325 2250 2550 
Q 2000 2175 1625 1825 
Q 1250 1475 700 1237 
Q 150 1000 687 1375 
Q 1225 1750 1725 2362 
Q 2225 2975 2625 3725 
Q 1775 3625 1500 3562 
Q 1225 3500 975 3712 
Q 725 3925 1062 3900 
Q 1400 3875 2750 4025 
Q 2850 4300 2925 4575 
Q 3000 4850 2962 5025 
Q 2925 5200 3100 5125 
Q 3275 5050 3412 4950 
Q 3550 4850 3450 4712 
Q 3350 4575 3175 4075 
Q 3875 4150 4187 4187 
Q 4500 4225 4912 4287 
Q 5325 4350 5537 4250 
Q 5750 4150 5800 4025 
Q 5850 3900 5512 3925 
Q 5175 3950 4562 3912 
Q 3950 3875 3075 3800 
Q 2575 2975 2375 2700 
Q 2550 2575 2725 2575 
Q 2900 2575 3475 2650 
Q 3475 3350 3362 3550 
Q 3250 3750 3475 3700 
Q 3700 3650 3812 3587 
Q 3925 3525 3875 3375 
Q 3825 3225 3800 2675 
Q 4425 2750 4575 2812 
Q 4725 2875 4887 2800 
Q 5050 2725 5187 2625 
Q 5325 2525 5225 2375 
Q 5125 2225 5112 1837 
Q 5100 1450 5037 1237 
Q 4975 1025 4800 825 
Q 4625 625 4575 825 
Q 4525 1025 4200 1262 
Q 3875 1500 4225 1412 
Q 4575 1325 4662 1437 
Q 4750 1550 4750 1975 
Q 4750 2425 4662 2487 
Q 4575 2550 4362 2537 
Q 4150 2525 3800 2450 
Q 3800 850 3787 512 
Q 3775 175 3725 -262 
Q 3675 -700 3587 -687 
Q 3500 -675 3487 -112 
Q 3475 450 3475 2425 
Q 2900 2375 2625 2350 
z
" transform="scale(0.015625)"/>
      <path id="KaiTi-56fe" d="M 4750 150 
Q 4000 175 1475 50 
Q 1450 -425 1250 -87 
Q 1050 250 1150 625 
Q 1250 1000 1287 1725 
Q 1325 2450 1325 3300 
Q 1325 4150 1175 4362 
Q 1025 4575 1125 4575 
Q 1250 4575 1412 4525 
Q 1575 4475 2000 4500 
Q 2425 4525 3287 4650 
Q 4150 4775 4350 4862 
Q 4550 4950 4800 4837 
Q 5050 4725 5212 4550 
Q 5375 4375 5287 4200 
Q 5200 4025 5237 2800 
Q 5275 1575 5337 962 
Q 5400 350 5337 -25 
Q 5275 -400 5162 -512 
Q 5050 -625 5000 -425 
Q 4950 -225 4750 150 
z
M 1500 275 
Q 3050 375 3537 425 
Q 4025 475 4262 487 
Q 4500 500 4662 375 
Q 4825 250 4887 487 
Q 4950 725 4937 1562 
Q 4925 2400 4900 3250 
Q 4875 4100 4712 4337 
Q 4550 4575 4150 4537 
Q 3750 4500 1625 4275 
Q 1625 2375 1500 275 
z
M 2825 3650 
Q 3025 3625 3212 3675 
Q 3400 3725 3487 3787 
Q 3575 3850 3725 3800 
Q 3875 3750 4000 3650 
Q 4125 3550 3987 3462 
Q 3850 3375 3725 3175 
Q 3600 2975 3400 2725 
Q 3825 2400 4100 2275 
Q 4375 2150 4687 2050 
Q 5000 1950 4700 1887 
Q 4400 1825 4125 1812 
Q 3850 1800 3712 1987 
Q 3575 2175 3200 2500 
Q 2950 2225 2562 1950 
Q 2175 1675 1825 1575 
Q 1475 1475 1775 1650 
Q 2075 1825 2412 2137 
Q 2750 2450 3000 2750 
Q 2650 3025 2475 3125 
Q 2175 2850 1987 2762 
Q 1800 2675 2025 2900 
Q 2250 3125 2437 3537 
Q 2625 3950 2587 4175 
Q 2550 4400 2750 4325 
Q 2950 4250 3050 4137 
Q 3150 4025 3062 3937 
Q 2975 3850 2825 3650 
z
M 2825 1175 
Q 2600 1500 2962 1387 
Q 3325 1275 3500 1112 
Q 3675 950 3625 712 
Q 3575 475 3325 675 
Q 3075 875 2825 1175 
z
M 2550 3225 
Q 2725 3200 2825 3125 
Q 2925 3050 3125 2925 
Q 3325 3175 3375 3337 
Q 3425 3500 3275 3500 
Q 3150 3500 3025 3462 
Q 2900 3425 2750 3525 
L 2550 3225 
z
M 3325 1550 
Q 3050 1800 2950 1975 
Q 2850 2150 3237 2025 
Q 3625 1900 3625 1600 
Q 3625 1325 3325 1550 
z
" transform="scale(0.015625)"/>
     </defs>
     <use xlink:href="#KaiTi-4eba"/>
     <use xlink:href="#KaiTi-6570" x="100"/>
     <use xlink:href="#KaiTi-2d" x="200"/>
     <use xlink:href="#KaiTi-74" x="250"/>
     <use xlink:href="#KaiTi-69" x="300"/>
     <use xlink:href="#KaiTi-6d" x="350"/>
     <use xlink:href="#KaiTi-65" x="400"/>
     <use xlink:href="#KaiTi-7a" x="450"/>
     <use xlink:href="#KaiTi-6f" x="500"/>
     <use xlink:href="#KaiTi-6e" x="550"/>
     <use xlink:href="#KaiTi-65" x="600"/>
     <use xlink:href="#KaiTi-5206" x="650"/>
     <use xlink:href="#KaiTi-5e03" x="750"/>
     <use xlink:href="#KaiTi-56fe" x="850"/>
    </g>
   </g>
  </g>
 </g>
 <defs>
  <clipPath id="p7da14d8ee7">
   <rect x="41.520313" y="22.7625" width="837" height="277.2"/>
  </clipPath>
 </defs>
</svg>
