<?xml version="1.0" encoding="utf-8" standalone="no"?>
<!DOCTYPE svg PUBLIC "-//W3C//DTD SVG 1.1//EN"
  "http://www.w3.org/Graphics/SVG/1.1/DTD/svg11.dtd">
<svg xmlns:xlink="http://www.w3.org/1999/xlink" width="880.720312pt" height="436.2875pt" viewBox="0 0 880.720312 436.2875" xmlns="http://www.w3.org/2000/svg" version="1.1">
 <metadata>
  <rdf:RDF xmlns:dc="http://purl.org/dc/elements/1.1/" xmlns:cc="http://creativecommons.org/ns#" xmlns:rdf="http://www.w3.org/1999/02/22-rdf-syntax-ns#">
   <cc:Work>
    <dc:type rdf:resource="http://purl.org/dc/dcmitype/StillImage"/>
    <dc:date>2025-01-02T20:34:35.809042</dc:date>
    <dc:format>image/svg+xml</dc:format>
    <dc:creator>
     <cc:Agent>
      <dc:title>Matplotlib v3.9.2, https://matplotlib.org/</dc:title>
     </cc:Agent>
    </dc:creator>
   </cc:Work>
  </rdf:RDF>
 </metadata>
 <defs>
  <style type="text/css">*{stroke-linejoin: round; stroke-linecap: butt}</style>
 </defs>
 <g id="figure_1">
  <g id="patch_1">
   <path d="M 0 436.2875 
L 880.720312 436.2875 
L 880.720312 -0 
L 0 -0 
z
" style="fill: #ffffff"/>
  </g>
  <g id="axes_1">
   <g id="patch_2">
    <path d="M 36.520313 299.9625 
L 873.520313 299.9625 
L 873.520313 22.7625 
L 36.520313 22.7625 
z
" style="fill: #ffffff"/>
   </g>
   <g id="patch_3">
    <path d="M 74.565767 299.9625 
L 94.992857 299.9625 
L 94.992857 35.9625 
L 74.565767 35.9625 
z
" clip-path="url(#pafc381d8c7)" style="fill: #87ceeb"/>
   </g>
   <g id="patch_4">
    <path d="M 100.099629 299.9625 
L 120.526719 299.9625 
L 120.526719 219.614674 
L 100.099629 219.614674 
z
" clip-path="url(#pafc381d8c7)" style="fill: #87ceeb"/>
   </g>
   <g id="patch_5">
    <path d="M 125.633491 299.9625 
L 146.060581 299.9625 
L 146.060581 219.614674 
L 125.633491 219.614674 
z
" clip-path="url(#pafc381d8c7)" style="fill: #87ceeb"/>
   </g>
   <g id="patch_6">
    <path d="M 151.167353 299.9625 
L 171.594443 299.9625 
L 171.594443 231.092935 
L 151.167353 231.092935 
z
" clip-path="url(#pafc381d8c7)" style="fill: #87ceeb"/>
   </g>
   <g id="patch_7">
    <path d="M 176.701215 299.9625 
L 197.128305 299.9625 
L 197.128305 231.092935 
L 176.701215 231.092935 
z
" clip-path="url(#pafc381d8c7)" style="fill: #87ceeb"/>
   </g>
   <g id="patch_8">
    <path d="M 202.235078 299.9625 
L 222.662167 299.9625 
L 222.662167 231.092935 
L 202.235078 231.092935 
z
" clip-path="url(#pafc381d8c7)" style="fill: #87ceeb"/>
   </g>
   <g id="patch_9">
    <path d="M 227.76894 299.9625 
L 248.196029 299.9625 
L 248.196029 242.571196 
L 227.76894 242.571196 
z
" clip-path="url(#pafc381d8c7)" style="fill: #87ceeb"/>
   </g>
   <g id="patch_10">
    <path d="M 253.302802 299.9625 
L 273.729892 299.9625 
L 273.729892 242.571196 
L 253.302802 242.571196 
z
" clip-path="url(#pafc381d8c7)" style="fill: #87ceeb"/>
   </g>
   <g id="patch_11">
    <path d="M 278.836664 299.9625 
L 299.263754 299.9625 
L 299.263754 242.571196 
L 278.836664 242.571196 
z
" clip-path="url(#pafc381d8c7)" style="fill: #87ceeb"/>
   </g>
   <g id="patch_12">
    <path d="M 304.370526 299.9625 
L 324.797616 299.9625 
L 324.797616 254.049457 
L 304.370526 254.049457 
z
" clip-path="url(#pafc381d8c7)" style="fill: #87ceeb"/>
   </g>
   <g id="patch_13">
    <path d="M 329.904388 299.9625 
L 350.331478 299.9625 
L 350.331478 254.049457 
L 329.904388 254.049457 
z
" clip-path="url(#pafc381d8c7)" style="fill: #87ceeb"/>
   </g>
   <g id="patch_14">
    <path d="M 355.43825 299.9625 
L 375.86534 299.9625 
L 375.86534 254.049457 
L 355.43825 254.049457 
z
" clip-path="url(#pafc381d8c7)" style="fill: #87ceeb"/>
   </g>
   <g id="patch_15">
    <path d="M 380.972112 299.9625 
L 401.399202 299.9625 
L 401.399202 254.049457 
L 380.972112 254.049457 
z
" clip-path="url(#pafc381d8c7)" style="fill: #87ceeb"/>
   </g>
   <g id="patch_16">
    <path d="M 406.505974 299.9625 
L 426.933064 299.9625 
L 426.933064 254.049457 
L 406.505974 254.049457 
z
" clip-path="url(#pafc381d8c7)" style="fill: #87ceeb"/>
   </g>
   <g id="patch_17">
    <path d="M 432.039837 299.9625 
L 452.466926 299.9625 
L 452.466926 254.049457 
L 432.039837 254.049457 
z
" clip-path="url(#pafc381d8c7)" style="fill: #87ceeb"/>
   </g>
   <g id="patch_18">
    <path d="M 457.573699 299.9625 
L 478.000788 299.9625 
L 478.000788 254.049457 
L 457.573699 254.049457 
z
" clip-path="url(#pafc381d8c7)" style="fill: #87ceeb"/>
   </g>
   <g id="patch_19">
    <path d="M 483.107561 299.9625 
L 503.534651 299.9625 
L 503.534651 265.527717 
L 483.107561 265.527717 
z
" clip-path="url(#pafc381d8c7)" style="fill: #87ceeb"/>
   </g>
   <g id="patch_20">
    <path d="M 508.641423 299.9625 
L 529.068513 299.9625 
L 529.068513 265.527717 
L 508.641423 265.527717 
z
" clip-path="url(#pafc381d8c7)" style="fill: #87ceeb"/>
   </g>
   <g id="patch_21">
    <path d="M 534.175285 299.9625 
L 554.602375 299.9625 
L 554.602375 265.527717 
L 534.175285 265.527717 
z
" clip-path="url(#pafc381d8c7)" style="fill: #87ceeb"/>
   </g>
   <g id="patch_22">
    <path d="M 559.709147 299.9625 
L 580.136237 299.9625 
L 580.136237 265.527717 
L 559.709147 265.527717 
z
" clip-path="url(#pafc381d8c7)" style="fill: #87ceeb"/>
   </g>
   <g id="patch_23">
    <path d="M 585.243009 299.9625 
L 605.670099 299.9625 
L 605.670099 265.527717 
L 585.243009 265.527717 
z
" clip-path="url(#pafc381d8c7)" style="fill: #87ceeb"/>
   </g>
   <g id="patch_24">
    <path d="M 610.776871 299.9625 
L 631.203961 299.9625 
L 631.203961 265.527717 
L 610.776871 265.527717 
z
" clip-path="url(#pafc381d8c7)" style="fill: #87ceeb"/>
   </g>
   <g id="patch_25">
    <path d="M 636.310733 299.9625 
L 656.737823 299.9625 
L 656.737823 265.527717 
L 636.310733 265.527717 
z
" clip-path="url(#pafc381d8c7)" style="fill: #87ceeb"/>
   </g>
   <g id="patch_26">
    <path d="M 661.844596 299.9625 
L 682.271685 299.9625 
L 682.271685 265.527717 
L 661.844596 265.527717 
z
" clip-path="url(#pafc381d8c7)" style="fill: #87ceeb"/>
   </g>
   <g id="patch_27">
    <path d="M 687.378458 299.9625 
L 707.805547 299.9625 
L 707.805547 265.527717 
L 687.378458 265.527717 
z
" clip-path="url(#pafc381d8c7)" style="fill: #87ceeb"/>
   </g>
   <g id="patch_28">
    <path d="M 712.91232 299.9625 
L 733.33941 299.9625 
L 733.33941 265.527717 
L 712.91232 265.527717 
z
" clip-path="url(#pafc381d8c7)" style="fill: #87ceeb"/>
   </g>
   <g id="patch_29">
    <path d="M 738.446182 299.9625 
L 758.873272 299.9625 
L 758.873272 265.527717 
L 738.446182 265.527717 
z
" clip-path="url(#pafc381d8c7)" style="fill: #87ceeb"/>
   </g>
   <g id="patch_30">
    <path d="M 763.980044 299.9625 
L 784.407134 299.9625 
L 784.407134 265.527717 
L 763.980044 265.527717 
z
" clip-path="url(#pafc381d8c7)" style="fill: #87ceeb"/>
   </g>
   <g id="patch_31">
    <path d="M 789.513906 299.9625 
L 809.940996 299.9625 
L 809.940996 265.527717 
L 789.513906 265.527717 
z
" clip-path="url(#pafc381d8c7)" style="fill: #87ceeb"/>
   </g>
   <g id="patch_32">
    <path d="M 815.047768 299.9625 
L 835.474858 299.9625 
L 835.474858 265.527717 
L 815.047768 265.527717 
z
" clip-path="url(#pafc381d8c7)" style="fill: #87ceeb"/>
   </g>
   <g id="matplotlib.axis_1">
    <g id="xtick_1">
     <g id="line2d_1">
      <defs>
       <path id="m57f5db518b" d="M 0 0 
L 0 3.5 
" style="stroke: #000000; stroke-width: 0.8"/>
      </defs>
      <g>
       <use xlink:href="#m57f5db518b" x="84.779312" y="299.9625" style="stroke: #000000; stroke-width: 0.8"/>
      </g>
     </g>
     <g id="text_1">
      <!-- Germany -->
      <g transform="translate(87.630874 341.9625) rotate(-90) scale(0.1 -0.1)">
       <defs>
        <path id="KaiTi-47" d="M 2850 75 
L 2425 75 
L 2350 425 
Q 2250 275 2037 175 
Q 1825 75 1575 75 
Q 1050 75 637 562 
Q 225 1050 225 2125 
Q 225 3300 600 3875 
Q 975 4450 1625 4450 
Q 2200 4450 2525 4025 
Q 2850 3600 2850 2925 
L 2300 2925 
Q 2300 3450 2125 3712 
Q 1950 3975 1625 3975 
Q 1225 3975 1025 3562 
Q 825 3150 825 2175 
Q 825 1250 1075 900 
Q 1325 550 1650 550 
Q 1975 550 2162 787 
Q 2350 1025 2350 1525 
L 2350 1800 
L 1575 1800 
L 1575 2275 
L 2850 2275 
L 2850 75 
z
" transform="scale(0.015625)"/>
        <path id="KaiTi-65" d="M 2850 1075 
Q 2800 625 2450 350 
Q 2100 75 1625 75 
Q 1025 75 637 462 
Q 250 850 250 1525 
Q 250 2200 637 2587 
Q 1025 2975 1625 2975 
Q 2150 2975 2487 2637 
Q 2825 2300 2825 1525 
L 800 1525 
Q 800 975 1037 750 
Q 1275 525 1625 525 
Q 1900 525 2075 662 
Q 2250 800 2300 1075 
L 2850 1075 
z
M 2250 1925 
Q 2200 2275 2025 2412 
Q 1850 2550 1575 2550 
Q 1325 2550 1125 2412 
Q 925 2275 825 1925 
L 2250 1925 
z
" transform="scale(0.015625)"/>
        <path id="KaiTi-72" d="M 2500 2425 
Q 2025 2500 1700 2287 
Q 1375 2075 1150 1550 
L 1150 125 
L 650 125 
L 650 2925 
L 1150 2925 
L 1150 2200 
Q 1375 2600 1712 2787 
Q 2050 2975 2500 2975 
L 2500 2425 
z
" transform="scale(0.015625)"/>
        <path id="KaiTi-6d" d="M 3050 125 
L 2550 125 
L 2550 2150 
Q 2550 2300 2500 2400 
Q 2450 2500 2300 2500 
Q 2125 2500 1975 2312 
Q 1825 2125 1825 1825 
L 1825 125 
L 1325 125 
L 1325 2150 
Q 1325 2300 1275 2400 
Q 1225 2500 1075 2500 
Q 900 2500 750 2312 
Q 600 2125 600 1825 
L 600 125 
L 100 125 
L 100 2925 
L 600 2925 
L 600 2550 
Q 725 2750 900 2862 
Q 1075 2975 1275 2975 
Q 1475 2975 1612 2862 
Q 1750 2750 1800 2550 
Q 1925 2750 2087 2862 
Q 2250 2975 2450 2975 
Q 2750 2975 2900 2812 
Q 3050 2650 3050 2350 
L 3050 125 
z
" transform="scale(0.015625)"/>
        <path id="KaiTi-61" d="M 2875 125 
L 2275 125 
Q 2225 175 2200 262 
Q 2175 350 2175 475 
Q 2000 275 1750 175 
Q 1500 75 1225 75 
Q 825 75 550 275 
Q 275 475 275 850 
Q 275 1225 525 1450 
Q 775 1675 1300 1750 
Q 1650 1800 1912 1875 
Q 2175 1950 2175 2075 
Q 2175 2225 2062 2375 
Q 1950 2525 1575 2525 
Q 1275 2525 1137 2412 
Q 1000 2300 950 2100 
L 400 2100 
Q 450 2500 762 2737 
Q 1075 2975 1575 2975 
Q 2125 2975 2400 2725 
Q 2675 2475 2675 2025 
L 2675 650 
Q 2675 500 2725 375 
Q 2775 250 2875 125 
z
M 2175 1050 
L 2175 1550 
Q 2025 1500 1887 1462 
Q 1750 1425 1425 1375 
Q 1050 1325 937 1200 
Q 825 1075 825 900 
Q 825 750 937 637 
Q 1050 525 1275 525 
Q 1500 525 1762 650 
Q 2025 775 2175 1050 
z
" transform="scale(0.015625)"/>
        <path id="KaiTi-6e" d="M 2800 125 
L 2300 125 
L 2300 1925 
Q 2300 2225 2150 2400 
Q 2000 2575 1750 2575 
Q 1425 2575 1137 2237 
Q 850 1900 850 1400 
L 850 125 
L 350 125 
L 350 2925 
L 850 2925 
L 850 2400 
Q 1050 2675 1287 2825 
Q 1525 2975 1900 2975 
Q 2350 2975 2575 2725 
Q 2800 2475 2800 2100 
L 2800 125 
z
" transform="scale(0.015625)"/>
        <path id="KaiTi-79" d="M 2900 2925 
L 1750 -100 
Q 1650 -450 1450 -625 
Q 1250 -800 950 -800 
Q 825 -800 712 -787 
Q 600 -775 500 -725 
L 500 -225 
Q 600 -275 700 -300 
Q 800 -325 875 -325 
Q 1075 -325 1150 -262 
Q 1225 -200 1300 25 
L 200 2925 
L 750 2925 
L 1550 725 
L 1575 725 
L 2350 2925 
L 2900 2925 
z
" transform="scale(0.015625)"/>
       </defs>
       <use xlink:href="#KaiTi-47"/>
       <use xlink:href="#KaiTi-65" x="50"/>
       <use xlink:href="#KaiTi-72" x="100"/>
       <use xlink:href="#KaiTi-6d" x="150"/>
       <use xlink:href="#KaiTi-61" x="200"/>
       <use xlink:href="#KaiTi-6e" x="250"/>
       <use xlink:href="#KaiTi-79" x="300"/>
      </g>
     </g>
    </g>
    <g id="xtick_2">
     <g id="line2d_2">
      <g>
       <use xlink:href="#m57f5db518b" x="110.313174" y="299.9625" style="stroke: #000000; stroke-width: 0.8"/>
      </g>
     </g>
     <g id="text_2">
      <!-- San Francisco -->
      <g transform="translate(113.125674 371.9625) rotate(-90) scale(0.1 -0.1)">
       <defs>
        <path id="KaiTi-53" d="M 2900 1325 
Q 2900 750 2537 412 
Q 2175 75 1550 75 
Q 925 75 575 425 
Q 225 775 225 1300 
L 225 1475 
L 800 1475 
L 800 1325 
Q 800 950 1025 750 
Q 1250 550 1550 550 
Q 1950 550 2137 762 
Q 2325 975 2325 1275 
Q 2325 1525 2100 1737 
Q 1875 1950 1450 2125 
Q 850 2350 587 2625 
Q 325 2900 325 3275 
Q 325 3800 687 4125 
Q 1050 4450 1550 4450 
Q 2200 4450 2487 4062 
Q 2775 3675 2775 3225 
L 2200 3225 
Q 2225 3500 2050 3725 
Q 1875 3950 1550 3950 
Q 1250 3950 1075 3787 
Q 900 3625 900 3350 
Q 900 3125 1037 2962 
Q 1175 2800 1750 2575 
Q 2300 2350 2600 2037 
Q 2900 1725 2900 1325 
z
" transform="scale(0.015625)"/>
        <path id="KaiTi-20" transform="scale(0.015625)"/>
        <path id="KaiTi-46" d="M 2925 3925 
L 875 3925 
L 875 2525 
L 2425 2525 
L 2425 2050 
L 875 2050 
L 875 125 
L 300 125 
L 300 4400 
L 2925 4400 
L 2925 3925 
z
" transform="scale(0.015625)"/>
        <path id="KaiTi-63" d="M 2850 1250 
Q 2850 725 2487 400 
Q 2125 75 1575 75 
Q 1025 75 625 462 
Q 225 850 225 1525 
Q 225 2200 625 2587 
Q 1025 2975 1575 2975 
Q 2125 2975 2450 2687 
Q 2775 2400 2775 2000 
L 2225 2000 
Q 2200 2300 2012 2412 
Q 1825 2525 1575 2525 
Q 1275 2525 1025 2287 
Q 775 2050 775 1525 
Q 775 1000 1025 762 
Q 1275 525 1575 525 
Q 1900 525 2100 700 
Q 2300 875 2300 1250 
L 2850 1250 
z
" transform="scale(0.015625)"/>
        <path id="KaiTi-69" d="M 1800 125 
L 1300 125 
L 1300 2925 
L 1800 2925 
L 1800 125 
z
M 1912 4075 
Q 1925 3875 1750 3775 
Q 1575 3675 1400 3762 
Q 1225 3850 1212 4050 
Q 1200 4250 1375 4350 
Q 1550 4450 1725 4362 
Q 1900 4275 1912 4075 
z
" transform="scale(0.015625)"/>
        <path id="KaiTi-73" d="M 2750 900 
Q 2750 500 2437 287 
Q 2125 75 1650 75 
Q 1050 75 725 312 
Q 400 550 400 1000 
L 900 1000 
Q 900 700 1112 600 
Q 1325 500 1625 500 
Q 1925 500 2075 612 
Q 2225 725 2225 900 
Q 2225 1025 2100 1150 
Q 1975 1275 1475 1350 
Q 900 1425 687 1637 
Q 475 1850 475 2200 
Q 475 2500 762 2737 
Q 1050 2975 1600 2975 
Q 2100 2975 2387 2750 
Q 2675 2525 2675 2150 
L 2175 2150 
Q 2175 2375 2012 2462 
Q 1850 2550 1600 2550 
Q 1275 2550 1137 2437 
Q 1000 2325 1000 2175 
Q 1000 2000 1125 1900 
Q 1250 1800 1650 1750 
Q 2300 1650 2525 1437 
Q 2750 1225 2750 900 
z
" transform="scale(0.015625)"/>
        <path id="KaiTi-6f" d="M 2925 1525 
Q 2925 875 2525 475 
Q 2125 75 1575 75 
Q 1025 75 625 475 
Q 225 875 225 1525 
Q 225 2175 625 2575 
Q 1025 2975 1575 2975 
Q 2125 2975 2525 2575 
Q 2925 2175 2925 1525 
z
M 2375 1525 
Q 2375 2025 2125 2275 
Q 1875 2525 1575 2525 
Q 1275 2525 1025 2275 
Q 775 2025 775 1525 
Q 775 1025 1025 775 
Q 1275 525 1575 525 
Q 1875 525 2125 775 
Q 2375 1025 2375 1525 
z
" transform="scale(0.015625)"/>
       </defs>
       <use xlink:href="#KaiTi-53"/>
       <use xlink:href="#KaiTi-61" x="50"/>
       <use xlink:href="#KaiTi-6e" x="100"/>
       <use xlink:href="#KaiTi-20" x="150"/>
       <use xlink:href="#KaiTi-46" x="200"/>
       <use xlink:href="#KaiTi-72" x="250"/>
       <use xlink:href="#KaiTi-61" x="300"/>
       <use xlink:href="#KaiTi-6e" x="350"/>
       <use xlink:href="#KaiTi-63" x="400"/>
       <use xlink:href="#KaiTi-69" x="450"/>
       <use xlink:href="#KaiTi-73" x="500"/>
       <use xlink:href="#KaiTi-63" x="550"/>
       <use xlink:href="#KaiTi-6f" x="600"/>
      </g>
     </g>
    </g>
    <g id="xtick_3">
     <g id="line2d_3">
      <g>
       <use xlink:href="#m57f5db518b" x="135.847036" y="299.9625" style="stroke: #000000; stroke-width: 0.8"/>
      </g>
     </g>
     <g id="text_3">
      <!-- Berlin, Germany -->
      <g transform="translate(138.659536 381.9625) rotate(-90) scale(0.1 -0.1)">
       <defs>
        <path id="KaiTi-42" d="M 2950 1400 
Q 2950 675 2550 400 
Q 2150 125 1525 125 
L 275 125 
L 275 4400 
L 1575 4400 
Q 2200 4400 2512 4075 
Q 2825 3750 2825 3300 
Q 2825 2850 2612 2637 
Q 2400 2425 2175 2350 
Q 2475 2275 2712 2037 
Q 2950 1800 2950 1400 
z
M 2250 3300 
Q 2250 3625 2062 3775 
Q 1875 3925 1600 3925 
L 850 3925 
L 850 2600 
L 1575 2600 
Q 1850 2600 2050 2762 
Q 2250 2925 2250 3300 
z
M 2350 1400 
Q 2350 1800 2087 1962 
Q 1825 2125 1500 2125 
L 850 2125 
L 850 600 
L 1425 600 
Q 1875 600 2112 775 
Q 2350 950 2350 1400 
z
" transform="scale(0.015625)"/>
        <path id="KaiTi-6c" d="M 1825 125 
L 1325 125 
L 1325 4400 
L 1825 4400 
L 1825 125 
z
" transform="scale(0.015625)"/>
        <path id="KaiTi-2c" d="M 450 450 
Q 450 550 500 662 
Q 550 775 775 850 
Q 1050 875 1200 687 
Q 1350 500 1300 250 
Q 1250 -125 1037 -412 
Q 825 -700 450 -850 
L 350 -725 
Q 600 -575 725 -412 
Q 850 -250 850 -75 
Q 825 25 637 112 
Q 450 200 450 450 
z
" transform="scale(0.015625)"/>
       </defs>
       <use xlink:href="#KaiTi-42"/>
       <use xlink:href="#KaiTi-65" x="50"/>
       <use xlink:href="#KaiTi-72" x="100"/>
       <use xlink:href="#KaiTi-6c" x="150"/>
       <use xlink:href="#KaiTi-69" x="200"/>
       <use xlink:href="#KaiTi-6e" x="250"/>
       <use xlink:href="#KaiTi-2c" x="300"/>
       <use xlink:href="#KaiTi-20" x="350"/>
       <use xlink:href="#KaiTi-47" x="400"/>
       <use xlink:href="#KaiTi-65" x="450"/>
       <use xlink:href="#KaiTi-72" x="500"/>
       <use xlink:href="#KaiTi-6d" x="550"/>
       <use xlink:href="#KaiTi-61" x="600"/>
       <use xlink:href="#KaiTi-6e" x="650"/>
       <use xlink:href="#KaiTi-79" x="700"/>
      </g>
     </g>
    </g>
    <g id="xtick_4">
     <g id="line2d_4">
      <g>
       <use xlink:href="#m57f5db518b" x="161.380898" y="299.9625" style="stroke: #000000; stroke-width: 0.8"/>
      </g>
     </g>
     <g id="text_4">
      <!-- Switzerland -->
      <g transform="translate(164.193398 361.9625) rotate(-90) scale(0.1 -0.1)">
       <defs>
        <path id="KaiTi-77" d="M 3075 2925 
L 2450 75 
L 1975 75 
L 1575 2250 
L 1525 2250 
L 1125 75 
L 650 75 
L 25 2925 
L 550 2925 
L 875 1050 
L 925 1050 
L 1275 2925 
L 1825 2925 
L 2175 1050 
L 2225 1050 
L 2550 2925 
L 3075 2925 
z
" transform="scale(0.015625)"/>
        <path id="KaiTi-74" d="M 2750 200 
Q 2625 150 2462 112 
Q 2300 75 2025 75 
Q 1575 75 1300 325 
Q 1025 575 1025 1025 
L 1025 2525 
L 175 2525 
L 175 2925 
L 1025 2925 
L 1025 3900 
L 1525 3900 
L 1525 2925 
L 2550 2925 
L 2550 2525 
L 1525 2525 
L 1525 1000 
Q 1525 800 1625 662 
Q 1725 525 2000 525 
Q 2275 525 2450 575 
Q 2625 625 2750 700 
L 2750 200 
z
" transform="scale(0.015625)"/>
        <path id="KaiTi-7a" d="M 2775 125 
L 350 125 
L 350 525 
L 2050 2525 
L 450 2525 
L 450 2925 
L 2650 2925 
L 2650 2525 
L 950 525 
L 2775 525 
L 2775 125 
z
" transform="scale(0.015625)"/>
        <path id="KaiTi-64" d="M 2750 125 
L 2250 125 
L 2250 500 
Q 2100 275 1900 175 
Q 1700 75 1425 75 
Q 925 75 575 437 
Q 225 800 225 1525 
Q 225 2250 575 2625 
Q 925 3000 1425 3000 
Q 1700 3000 1900 2887 
Q 2100 2775 2250 2550 
L 2250 4400 
L 2750 4400 
L 2750 125 
z
M 2250 1525 
Q 2250 2000 2037 2275 
Q 1825 2550 1525 2550 
Q 1150 2550 962 2275 
Q 775 2000 775 1525 
Q 775 1050 962 787 
Q 1150 525 1525 525 
Q 1825 525 2037 787 
Q 2250 1050 2250 1525 
z
" transform="scale(0.015625)"/>
       </defs>
       <use xlink:href="#KaiTi-53"/>
       <use xlink:href="#KaiTi-77" x="50"/>
       <use xlink:href="#KaiTi-69" x="100"/>
       <use xlink:href="#KaiTi-74" x="150"/>
       <use xlink:href="#KaiTi-7a" x="200"/>
       <use xlink:href="#KaiTi-65" x="250"/>
       <use xlink:href="#KaiTi-72" x="300"/>
       <use xlink:href="#KaiTi-6c" x="350"/>
       <use xlink:href="#KaiTi-61" x="400"/>
       <use xlink:href="#KaiTi-6e" x="450"/>
       <use xlink:href="#KaiTi-64" x="500"/>
      </g>
     </g>
    </g>
    <g id="xtick_5">
     <g id="line2d_5">
      <g>
       <use xlink:href="#m57f5db518b" x="186.91476" y="299.9625" style="stroke: #000000; stroke-width: 0.8"/>
      </g>
     </g>
     <g id="text_5">
      <!-- Paris, France -->
      <g transform="translate(189.72726 371.9625) rotate(-90) scale(0.1 -0.1)">
       <defs>
        <path id="KaiTi-50" d="M 2950 3100 
Q 2950 2500 2600 2150 
Q 2250 1800 1625 1800 
L 900 1800 
L 900 125 
L 325 125 
L 325 4400 
L 1625 4400 
Q 2250 4400 2600 4050 
Q 2950 3700 2950 3100 
z
M 2375 3100 
Q 2375 3575 2150 3750 
Q 1925 3925 1475 3925 
L 900 3925 
L 900 2275 
L 1475 2275 
Q 1925 2275 2150 2450 
Q 2375 2625 2375 3100 
z
" transform="scale(0.015625)"/>
       </defs>
       <use xlink:href="#KaiTi-50"/>
       <use xlink:href="#KaiTi-61" x="50"/>
       <use xlink:href="#KaiTi-72" x="100"/>
       <use xlink:href="#KaiTi-69" x="150"/>
       <use xlink:href="#KaiTi-73" x="200"/>
       <use xlink:href="#KaiTi-2c" x="250"/>
       <use xlink:href="#KaiTi-20" x="300"/>
       <use xlink:href="#KaiTi-46" x="350"/>
       <use xlink:href="#KaiTi-72" x="400"/>
       <use xlink:href="#KaiTi-61" x="450"/>
       <use xlink:href="#KaiTi-6e" x="500"/>
       <use xlink:href="#KaiTi-63" x="550"/>
       <use xlink:href="#KaiTi-65" x="600"/>
      </g>
     </g>
    </g>
    <g id="xtick_6">
     <g id="line2d_6">
      <g>
       <use xlink:href="#m57f5db518b" x="212.448622" y="299.9625" style="stroke: #000000; stroke-width: 0.8"/>
      </g>
     </g>
     <g id="text_6">
      <!-- Japan -->
      <g transform="translate(215.261122 331.9625) rotate(-90) scale(0.1 -0.1)">
       <defs>
        <path id="KaiTi-4a" d="M 2800 1550 
Q 2800 775 2462 425 
Q 2125 75 1550 75 
Q 1025 75 675 412 
Q 325 750 325 1500 
L 325 1775 
L 900 1775 
L 900 1425 
Q 900 975 1087 787 
Q 1275 600 1525 600 
Q 1875 600 2050 800 
Q 2225 1000 2225 1525 
L 2225 4400 
L 2800 4400 
L 2800 1550 
z
" transform="scale(0.015625)"/>
        <path id="KaiTi-70" d="M 2825 1525 
Q 2825 800 2475 425 
Q 2125 50 1625 50 
Q 1350 50 1150 162 
Q 950 275 800 500 
L 800 -800 
L 300 -800 
L 300 2925 
L 800 2925 
L 800 2550 
Q 950 2775 1150 2875 
Q 1350 2975 1625 2975 
Q 2125 2975 2475 2612 
Q 2825 2250 2825 1525 
z
M 2275 1525 
Q 2275 2000 2087 2262 
Q 1900 2525 1525 2525 
Q 1225 2525 1012 2262 
Q 800 2000 800 1525 
Q 800 1050 1012 775 
Q 1225 500 1525 500 
Q 1900 500 2087 775 
Q 2275 1050 2275 1525 
z
" transform="scale(0.015625)"/>
       </defs>
       <use xlink:href="#KaiTi-4a"/>
       <use xlink:href="#KaiTi-61" x="50"/>
       <use xlink:href="#KaiTi-70" x="100"/>
       <use xlink:href="#KaiTi-61" x="150"/>
       <use xlink:href="#KaiTi-6e" x="200"/>
      </g>
     </g>
    </g>
    <g id="xtick_7">
     <g id="line2d_7">
      <g>
       <use xlink:href="#m57f5db518b" x="237.982485" y="299.9625" style="stroke: #000000; stroke-width: 0.8"/>
      </g>
     </g>
     <g id="text_7">
      <!-- France -->
      <g transform="translate(240.794985 336.9625) rotate(-90) scale(0.1 -0.1)">
       <use xlink:href="#KaiTi-46"/>
       <use xlink:href="#KaiTi-72" x="50"/>
       <use xlink:href="#KaiTi-61" x="100"/>
       <use xlink:href="#KaiTi-6e" x="150"/>
       <use xlink:href="#KaiTi-63" x="200"/>
       <use xlink:href="#KaiTi-65" x="250"/>
      </g>
     </g>
    </g>
    <g id="xtick_8">
     <g id="line2d_8">
      <g>
       <use xlink:href="#m57f5db518b" x="263.516347" y="299.9625" style="stroke: #000000; stroke-width: 0.8"/>
      </g>
     </g>
     <g id="text_8">
      <!-- Tokyo, Japan -->
      <g transform="translate(266.289784 366.9625) rotate(-90) scale(0.1 -0.1)">
       <defs>
        <path id="KaiTi-54" d="M 2850 3925 
L 1850 3925 
L 1850 125 
L 1275 125 
L 1275 3925 
L 275 3925 
L 275 4400 
L 2850 4400 
L 2850 3925 
z
" transform="scale(0.015625)"/>
        <path id="KaiTi-6b" d="M 2925 125 
L 2350 125 
L 1450 1650 
L 875 1100 
L 875 125 
L 375 125 
L 375 4400 
L 875 4400 
L 875 1675 
L 2125 2925 
L 2750 2925 
L 1775 1975 
L 2925 125 
z
" transform="scale(0.015625)"/>
       </defs>
       <use xlink:href="#KaiTi-54"/>
       <use xlink:href="#KaiTi-6f" x="50"/>
       <use xlink:href="#KaiTi-6b" x="100"/>
       <use xlink:href="#KaiTi-79" x="150"/>
       <use xlink:href="#KaiTi-6f" x="200"/>
       <use xlink:href="#KaiTi-2c" x="250"/>
       <use xlink:href="#KaiTi-20" x="300"/>
       <use xlink:href="#KaiTi-4a" x="350"/>
       <use xlink:href="#KaiTi-61" x="400"/>
       <use xlink:href="#KaiTi-70" x="450"/>
       <use xlink:href="#KaiTi-61" x="500"/>
       <use xlink:href="#KaiTi-6e" x="550"/>
      </g>
     </g>
    </g>
    <g id="xtick_9">
     <g id="line2d_9">
      <g>
       <use xlink:href="#m57f5db518b" x="289.050209" y="299.9625" style="stroke: #000000; stroke-width: 0.8"/>
      </g>
     </g>
     <g id="text_9">
      <!-- Berlin -->
      <g transform="translate(291.862709 336.9625) rotate(-90) scale(0.1 -0.1)">
       <use xlink:href="#KaiTi-42"/>
       <use xlink:href="#KaiTi-65" x="50"/>
       <use xlink:href="#KaiTi-72" x="100"/>
       <use xlink:href="#KaiTi-6c" x="150"/>
       <use xlink:href="#KaiTi-69" x="200"/>
       <use xlink:href="#KaiTi-6e" x="250"/>
      </g>
     </g>
    </g>
    <g id="xtick_10">
     <g id="line2d_10">
      <g>
       <use xlink:href="#m57f5db518b" x="314.584071" y="299.9625" style="stroke: #000000; stroke-width: 0.8"/>
      </g>
     </g>
     <g id="text_10">
      <!-- San Francisco, CA -->
      <g transform="translate(317.396571 391.9625) rotate(-90) scale(0.1 -0.1)">
       <defs>
        <path id="KaiTi-43" d="M 2975 1825 
Q 2950 875 2575 475 
Q 2200 75 1675 75 
Q 1075 75 650 562 
Q 225 1050 225 2125 
Q 225 3300 637 3875 
Q 1050 4450 1700 4450 
Q 2250 4450 2612 4037 
Q 2975 3625 2950 2875 
L 2400 2875 
Q 2400 3425 2225 3700 
Q 2050 3975 1700 3975 
Q 1300 3975 1062 3562 
Q 825 3150 825 2175 
Q 825 1275 1062 912 
Q 1300 550 1675 550 
Q 1950 550 2175 812 
Q 2400 1075 2400 1825 
L 2975 1825 
z
" transform="scale(0.015625)"/>
        <path id="KaiTi-41" d="M 3075 125 
L 2475 125 
L 2125 1450 
L 1025 1450 
L 675 125 
L 75 125 
L 1325 4450 
L 1825 4450 
L 3075 125 
z
M 2000 1925 
L 1600 3450 
L 1550 3450 
L 1150 1925 
L 2000 1925 
z
" transform="scale(0.015625)"/>
       </defs>
       <use xlink:href="#KaiTi-53"/>
       <use xlink:href="#KaiTi-61" x="50"/>
       <use xlink:href="#KaiTi-6e" x="100"/>
       <use xlink:href="#KaiTi-20" x="150"/>
       <use xlink:href="#KaiTi-46" x="200"/>
       <use xlink:href="#KaiTi-72" x="250"/>
       <use xlink:href="#KaiTi-61" x="300"/>
       <use xlink:href="#KaiTi-6e" x="350"/>
       <use xlink:href="#KaiTi-63" x="400"/>
       <use xlink:href="#KaiTi-69" x="450"/>
       <use xlink:href="#KaiTi-73" x="500"/>
       <use xlink:href="#KaiTi-63" x="550"/>
       <use xlink:href="#KaiTi-6f" x="600"/>
       <use xlink:href="#KaiTi-2c" x="650"/>
       <use xlink:href="#KaiTi-20" x="700"/>
       <use xlink:href="#KaiTi-43" x="750"/>
       <use xlink:href="#KaiTi-41" x="800"/>
      </g>
     </g>
    </g>
    <g id="xtick_11">
     <g id="line2d_11">
      <g>
       <use xlink:href="#m57f5db518b" x="340.117933" y="299.9625" style="stroke: #000000; stroke-width: 0.8"/>
      </g>
     </g>
     <g id="text_11">
      <!-- NYC -->
      <g transform="translate(342.930433 321.9625) rotate(-90) scale(0.1 -0.1)">
       <defs>
        <path id="KaiTi-4e" d="M 2850 125 
L 2225 125 
L 850 3225 
L 825 3225 
L 825 125 
L 250 125 
L 250 4400 
L 875 4400 
L 2250 1300 
L 2275 1300 
L 2275 4400 
L 2850 4400 
L 2850 125 
z
" transform="scale(0.015625)"/>
        <path id="KaiTi-59" d="M 3025 4400 
L 1850 2050 
L 1850 125 
L 1275 125 
L 1275 2050 
L 100 4400 
L 675 4400 
L 1550 2575 
L 1575 2575 
L 2450 4400 
L 3025 4400 
z
" transform="scale(0.015625)"/>
       </defs>
       <use xlink:href="#KaiTi-4e"/>
       <use xlink:href="#KaiTi-59" x="50"/>
       <use xlink:href="#KaiTi-43" x="100"/>
      </g>
     </g>
    </g>
    <g id="xtick_12">
     <g id="line2d_12">
      <g>
       <use xlink:href="#m57f5db518b" x="365.651795" y="299.9625" style="stroke: #000000; stroke-width: 0.8"/>
      </g>
     </g>
     <g id="text_12">
      <!-- Beijing, China -->
      <g transform="translate(368.464295 376.9625) rotate(-90) scale(0.1 -0.1)">
       <defs>
        <path id="KaiTi-6a" d="M 2300 150 
Q 2300 -300 2025 -550 
Q 1750 -800 1300 -800 
Q 1025 -800 862 -762 
Q 700 -725 575 -675 
L 575 -175 
Q 700 -250 875 -300 
Q 1050 -350 1325 -350 
Q 1600 -350 1700 -212 
Q 1800 -75 1800 125 
L 1800 2925 
L 2300 2925 
L 2300 150 
z
M 2412 4075 
Q 2425 3875 2250 3775 
Q 2075 3675 1900 3762 
Q 1725 3850 1712 4050 
Q 1700 4250 1875 4350 
Q 2050 4450 2225 4362 
Q 2400 4275 2412 4075 
z
" transform="scale(0.015625)"/>
        <path id="KaiTi-67" d="M 2975 2500 
Q 2800 2550 2637 2562 
Q 2475 2575 2300 2525 
Q 2375 2450 2425 2337 
Q 2475 2225 2475 2000 
Q 2475 1575 2187 1300 
Q 1900 1025 1475 1025 
Q 1375 1025 1212 1062 
Q 1050 1100 950 1150 
Q 875 1100 850 1050 
Q 825 1000 825 925 
Q 825 800 1000 737 
Q 1175 675 1625 675 
Q 2350 675 2612 475 
Q 2875 275 2875 -25 
Q 2875 -425 2487 -612 
Q 2100 -800 1575 -800 
Q 900 -800 575 -625 
Q 250 -450 250 -150 
Q 250 0 375 150 
Q 500 300 700 400 
Q 550 475 462 587 
Q 375 700 375 875 
Q 375 1025 487 1137 
Q 600 1250 750 1325 
Q 625 1450 550 1625 
Q 475 1800 475 2000 
Q 475 2425 762 2700 
Q 1050 2975 1475 2975 
Q 1700 2975 1862 2912 
Q 2025 2850 2150 2725 
Q 2350 2875 2550 2937 
Q 2750 3000 2975 2975 
L 2975 2500 
z
M 1975 2000 
Q 1975 2250 1850 2400 
Q 1725 2550 1475 2550 
Q 1225 2550 1100 2400 
Q 975 2250 975 2000 
Q 975 1750 1100 1600 
Q 1225 1450 1475 1450 
Q 1725 1450 1850 1600 
Q 1975 1750 1975 2000 
z
M 2400 -75 
Q 2400 25 2287 125 
Q 2175 225 1725 225 
Q 1625 225 1450 237 
Q 1275 250 1050 275 
Q 850 200 775 100 
Q 700 0 700 -100 
Q 700 -250 900 -350 
Q 1100 -450 1600 -450 
Q 2025 -450 2212 -337 
Q 2400 -225 2400 -75 
z
" transform="scale(0.015625)"/>
        <path id="KaiTi-68" d="M 2800 125 
L 2300 125 
L 2300 1925 
Q 2300 2225 2150 2400 
Q 2000 2575 1750 2575 
Q 1425 2575 1137 2237 
Q 850 1900 850 1400 
L 850 125 
L 350 125 
L 350 4400 
L 850 4400 
L 850 2400 
Q 1050 2675 1287 2825 
Q 1525 2975 1900 2975 
Q 2350 2975 2575 2725 
Q 2800 2475 2800 2100 
L 2800 125 
z
" transform="scale(0.015625)"/>
       </defs>
       <use xlink:href="#KaiTi-42"/>
       <use xlink:href="#KaiTi-65" x="50"/>
       <use xlink:href="#KaiTi-69" x="100"/>
       <use xlink:href="#KaiTi-6a" x="150"/>
       <use xlink:href="#KaiTi-69" x="200"/>
       <use xlink:href="#KaiTi-6e" x="250"/>
       <use xlink:href="#KaiTi-67" x="300"/>
       <use xlink:href="#KaiTi-2c" x="350"/>
       <use xlink:href="#KaiTi-20" x="400"/>
       <use xlink:href="#KaiTi-43" x="450"/>
       <use xlink:href="#KaiTi-68" x="500"/>
       <use xlink:href="#KaiTi-69" x="550"/>
       <use xlink:href="#KaiTi-6e" x="600"/>
       <use xlink:href="#KaiTi-61" x="650"/>
      </g>
     </g>
    </g>
    <g id="xtick_13">
     <g id="line2d_13">
      <g>
       <use xlink:href="#m57f5db518b" x="391.185657" y="299.9625" style="stroke: #000000; stroke-width: 0.8"/>
      </g>
     </g>
     <g id="text_13">
      <!-- Zurich, Switzerland -->
      <g transform="translate(393.998157 401.9625) rotate(-90) scale(0.1 -0.1)">
       <defs>
        <path id="KaiTi-5a" d="M 2900 125 
L 225 125 
L 225 600 
L 2250 3925 
L 375 3925 
L 375 4400 
L 2825 4400 
L 2825 3925 
L 800 600 
L 2900 600 
L 2900 125 
z
" transform="scale(0.015625)"/>
        <path id="KaiTi-75" d="M 2800 125 
L 2300 125 
L 2300 650 
Q 2100 375 1862 225 
Q 1625 75 1250 75 
Q 800 75 575 325 
Q 350 575 350 950 
L 350 2925 
L 850 2925 
L 850 1125 
Q 850 825 1000 650 
Q 1150 475 1400 475 
Q 1725 475 2012 812 
Q 2300 1150 2300 1650 
L 2300 2925 
L 2800 2925 
L 2800 125 
z
" transform="scale(0.015625)"/>
       </defs>
       <use xlink:href="#KaiTi-5a"/>
       <use xlink:href="#KaiTi-75" x="50"/>
       <use xlink:href="#KaiTi-72" x="100"/>
       <use xlink:href="#KaiTi-69" x="150"/>
       <use xlink:href="#KaiTi-63" x="200"/>
       <use xlink:href="#KaiTi-68" x="250"/>
       <use xlink:href="#KaiTi-2c" x="300"/>
       <use xlink:href="#KaiTi-20" x="350"/>
       <use xlink:href="#KaiTi-53" x="400"/>
       <use xlink:href="#KaiTi-77" x="450"/>
       <use xlink:href="#KaiTi-69" x="500"/>
       <use xlink:href="#KaiTi-74" x="550"/>
       <use xlink:href="#KaiTi-7a" x="600"/>
       <use xlink:href="#KaiTi-65" x="650"/>
       <use xlink:href="#KaiTi-72" x="700"/>
       <use xlink:href="#KaiTi-6c" x="750"/>
       <use xlink:href="#KaiTi-61" x="800"/>
       <use xlink:href="#KaiTi-6e" x="850"/>
       <use xlink:href="#KaiTi-64" x="900"/>
      </g>
     </g>
    </g>
    <g id="xtick_14">
     <g id="line2d_14">
      <g>
       <use xlink:href="#m57f5db518b" x="416.719519" y="299.9625" style="stroke: #000000; stroke-width: 0.8"/>
      </g>
     </g>
     <g id="text_14">
      <!-- Poland -->
      <g transform="translate(419.532019 336.9625) rotate(-90) scale(0.1 -0.1)">
       <use xlink:href="#KaiTi-50"/>
       <use xlink:href="#KaiTi-6f" x="50"/>
       <use xlink:href="#KaiTi-6c" x="100"/>
       <use xlink:href="#KaiTi-61" x="150"/>
       <use xlink:href="#KaiTi-6e" x="200"/>
       <use xlink:href="#KaiTi-64" x="250"/>
      </g>
     </g>
    </g>
    <g id="xtick_15">
     <g id="line2d_15">
      <g>
       <use xlink:href="#m57f5db518b" x="442.253381" y="299.9625" style="stroke: #000000; stroke-width: 0.8"/>
      </g>
     </g>
     <g id="text_15">
      <!-- New Zealand -->
      <g transform="translate(445.065881 361.9625) rotate(-90) scale(0.1 -0.1)">
       <use xlink:href="#KaiTi-4e"/>
       <use xlink:href="#KaiTi-65" x="50"/>
       <use xlink:href="#KaiTi-77" x="100"/>
       <use xlink:href="#KaiTi-20" x="150"/>
       <use xlink:href="#KaiTi-5a" x="200"/>
       <use xlink:href="#KaiTi-65" x="250"/>
       <use xlink:href="#KaiTi-61" x="300"/>
       <use xlink:href="#KaiTi-6c" x="350"/>
       <use xlink:href="#KaiTi-61" x="400"/>
       <use xlink:href="#KaiTi-6e" x="450"/>
       <use xlink:href="#KaiTi-64" x="500"/>
      </g>
     </g>
    </g>
    <g id="xtick_16">
     <g id="line2d_16">
      <g>
       <use xlink:href="#m57f5db518b" x="467.787244" y="299.9625" style="stroke: #000000; stroke-width: 0.8"/>
      </g>
     </g>
     <g id="text_16">
      <!-- Singapore -->
      <g transform="translate(470.638806 351.9625) rotate(-90) scale(0.1 -0.1)">
       <use xlink:href="#KaiTi-53"/>
       <use xlink:href="#KaiTi-69" x="50"/>
       <use xlink:href="#KaiTi-6e" x="100"/>
       <use xlink:href="#KaiTi-67" x="150"/>
       <use xlink:href="#KaiTi-61" x="200"/>
       <use xlink:href="#KaiTi-70" x="250"/>
       <use xlink:href="#KaiTi-6f" x="300"/>
       <use xlink:href="#KaiTi-72" x="350"/>
       <use xlink:href="#KaiTi-65" x="400"/>
      </g>
     </g>
    </g>
    <g id="xtick_17">
     <g id="line2d_17">
      <g>
       <use xlink:href="#m57f5db518b" x="493.321106" y="299.9625" style="stroke: #000000; stroke-width: 0.8"/>
      </g>
     </g>
     <g id="text_17">
      <!-- Houston, TX -->
      <g transform="translate(496.094543 361.9625) rotate(-90) scale(0.1 -0.1)">
       <defs>
        <path id="KaiTi-48" d="M 2850 125 
L 2275 125 
L 2275 2125 
L 850 2125 
L 850 125 
L 275 125 
L 275 4400 
L 850 4400 
L 850 2600 
L 2275 2600 
L 2275 4400 
L 2850 4400 
L 2850 125 
z
" transform="scale(0.015625)"/>
        <path id="KaiTi-58" d="M 3000 125 
L 2400 125 
L 1550 1875 
L 700 125 
L 100 125 
L 1275 2375 
L 225 4400 
L 825 4400 
L 1550 2850 
L 2275 4400 
L 2875 4400 
L 1825 2375 
L 3000 125 
z
" transform="scale(0.015625)"/>
       </defs>
       <use xlink:href="#KaiTi-48"/>
       <use xlink:href="#KaiTi-6f" x="50"/>
       <use xlink:href="#KaiTi-75" x="100"/>
       <use xlink:href="#KaiTi-73" x="150"/>
       <use xlink:href="#KaiTi-74" x="200"/>
       <use xlink:href="#KaiTi-6f" x="250"/>
       <use xlink:href="#KaiTi-6e" x="300"/>
       <use xlink:href="#KaiTi-2c" x="350"/>
       <use xlink:href="#KaiTi-20" x="400"/>
       <use xlink:href="#KaiTi-54" x="450"/>
       <use xlink:href="#KaiTi-58" x="500"/>
      </g>
     </g>
    </g>
    <g id="xtick_18">
     <g id="line2d_18">
      <g>
       <use xlink:href="#m57f5db518b" x="518.854968" y="299.9625" style="stroke: #000000; stroke-width: 0.8"/>
      </g>
     </g>
     <g id="text_18">
      <!-- UK -->
      <g transform="translate(521.667468 316.9625) rotate(-90) scale(0.1 -0.1)">
       <defs>
        <path id="KaiTi-55" d="M 2875 1375 
Q 2875 775 2562 425 
Q 2250 75 1575 75 
Q 900 75 587 425 
Q 275 775 275 1375 
L 275 4400 
L 850 4400 
L 850 1375 
Q 850 950 1050 750 
Q 1250 550 1575 550 
Q 1900 550 2100 750 
Q 2300 950 2300 1375 
L 2300 4400 
L 2875 4400 
L 2875 1375 
z
" transform="scale(0.015625)"/>
        <path id="KaiTi-4b" d="M 3050 125 
L 2400 125 
L 1250 2250 
L 850 1725 
L 850 125 
L 275 125 
L 275 4400 
L 850 4400 
L 850 2550 
L 2275 4400 
L 2950 4400 
L 1625 2725 
L 3050 125 
z
" transform="scale(0.015625)"/>
       </defs>
       <use xlink:href="#KaiTi-55"/>
       <use xlink:href="#KaiTi-4b" x="50"/>
      </g>
     </g>
    </g>
    <g id="xtick_19">
     <g id="line2d_19">
      <g>
       <use xlink:href="#m57f5db518b" x="544.38883" y="299.9625" style="stroke: #000000; stroke-width: 0.8"/>
      </g>
     </g>
     <g id="text_19">
      <!-- Cambridge, MA -->
      <g transform="translate(547.20133 371.9625) rotate(-90) scale(0.1 -0.1)">
       <defs>
        <path id="KaiTi-62" d="M 2825 1525 
Q 2825 800 2475 437 
Q 2125 75 1625 75 
Q 1350 75 1150 175 
Q 950 275 800 500 
L 800 125 
L 300 125 
L 300 4400 
L 800 4400 
L 800 2550 
Q 950 2775 1150 2887 
Q 1350 3000 1625 3000 
Q 2125 3000 2475 2625 
Q 2825 2250 2825 1525 
z
M 2275 1525 
Q 2275 2000 2087 2275 
Q 1900 2550 1525 2550 
Q 1225 2550 1012 2275 
Q 800 2000 800 1525 
Q 800 1050 1012 787 
Q 1225 525 1525 525 
Q 1900 525 2087 787 
Q 2275 1050 2275 1525 
z
" transform="scale(0.015625)"/>
        <path id="KaiTi-4d" d="M 2925 125 
L 2425 125 
L 2425 3175 
L 2375 3175 
L 1775 125 
L 1375 125 
L 775 3175 
L 725 3175 
L 725 125 
L 225 125 
L 225 4400 
L 1000 4400 
L 1550 1575 
L 1600 1575 
L 2150 4400 
L 2925 4400 
L 2925 125 
z
" transform="scale(0.015625)"/>
       </defs>
       <use xlink:href="#KaiTi-43"/>
       <use xlink:href="#KaiTi-61" x="50"/>
       <use xlink:href="#KaiTi-6d" x="100"/>
       <use xlink:href="#KaiTi-62" x="150"/>
       <use xlink:href="#KaiTi-72" x="200"/>
       <use xlink:href="#KaiTi-69" x="250"/>
       <use xlink:href="#KaiTi-64" x="300"/>
       <use xlink:href="#KaiTi-67" x="350"/>
       <use xlink:href="#KaiTi-65" x="400"/>
       <use xlink:href="#KaiTi-2c" x="450"/>
       <use xlink:href="#KaiTi-20" x="500"/>
       <use xlink:href="#KaiTi-4d" x="550"/>
       <use xlink:href="#KaiTi-41" x="600"/>
      </g>
     </g>
    </g>
    <g id="xtick_20">
     <g id="line2d_20">
      <g>
       <use xlink:href="#m57f5db518b" x="569.922692" y="299.9625" style="stroke: #000000; stroke-width: 0.8"/>
      </g>
     </g>
     <g id="text_20">
      <!-- Netherlands -->
      <g transform="translate(572.735192 361.9625) rotate(-90) scale(0.1 -0.1)">
       <use xlink:href="#KaiTi-4e"/>
       <use xlink:href="#KaiTi-65" x="50"/>
       <use xlink:href="#KaiTi-74" x="100"/>
       <use xlink:href="#KaiTi-68" x="150"/>
       <use xlink:href="#KaiTi-65" x="200"/>
       <use xlink:href="#KaiTi-72" x="250"/>
       <use xlink:href="#KaiTi-6c" x="300"/>
       <use xlink:href="#KaiTi-61" x="350"/>
       <use xlink:href="#KaiTi-6e" x="400"/>
       <use xlink:href="#KaiTi-64" x="450"/>
       <use xlink:href="#KaiTi-73" x="500"/>
      </g>
     </g>
    </g>
    <g id="xtick_21">
     <g id="line2d_21">
      <g>
       <use xlink:href="#m57f5db518b" x="595.456554" y="299.9625" style="stroke: #000000; stroke-width: 0.8"/>
      </g>
     </g>
     <g id="text_21">
      <!-- Italy -->
      <g transform="translate(598.269054 331.9625) rotate(-90) scale(0.1 -0.1)">
       <defs>
        <path id="KaiTi-49" d="M 1850 125 
L 1275 125 
L 1275 4400 
L 1850 4400 
L 1850 125 
z
" transform="scale(0.015625)"/>
       </defs>
       <use xlink:href="#KaiTi-49"/>
       <use xlink:href="#KaiTi-74" x="50"/>
       <use xlink:href="#KaiTi-61" x="100"/>
       <use xlink:href="#KaiTi-6c" x="150"/>
       <use xlink:href="#KaiTi-79" x="200"/>
      </g>
     </g>
    </g>
    <g id="xtick_22">
     <g id="line2d_22">
      <g>
       <use xlink:href="#m57f5db518b" x="620.990416" y="299.9625" style="stroke: #000000; stroke-width: 0.8"/>
      </g>
     </g>
     <g id="text_22">
      <!-- London, UK -->
      <g transform="translate(623.763854 356.9625) rotate(-90) scale(0.1 -0.1)">
       <defs>
        <path id="KaiTi-4c" d="M 2900 125 
L 300 125 
L 300 4400 
L 875 4400 
L 875 600 
L 2900 600 
L 2900 125 
z
" transform="scale(0.015625)"/>
       </defs>
       <use xlink:href="#KaiTi-4c"/>
       <use xlink:href="#KaiTi-6f" x="50"/>
       <use xlink:href="#KaiTi-6e" x="100"/>
       <use xlink:href="#KaiTi-64" x="150"/>
       <use xlink:href="#KaiTi-6f" x="200"/>
       <use xlink:href="#KaiTi-6e" x="250"/>
       <use xlink:href="#KaiTi-2c" x="300"/>
       <use xlink:href="#KaiTi-20" x="350"/>
       <use xlink:href="#KaiTi-55" x="400"/>
       <use xlink:href="#KaiTi-4b" x="450"/>
      </g>
     </g>
    </g>
    <g id="xtick_23">
     <g id="line2d_23">
      <g>
       <use xlink:href="#m57f5db518b" x="646.524278" y="299.9625" style="stroke: #000000; stroke-width: 0.8"/>
      </g>
     </g>
     <g id="text_23">
      <!-- Shanghai -->
      <g transform="translate(649.375841 346.9625) rotate(-90) scale(0.1 -0.1)">
       <use xlink:href="#KaiTi-53"/>
       <use xlink:href="#KaiTi-68" x="50"/>
       <use xlink:href="#KaiTi-61" x="100"/>
       <use xlink:href="#KaiTi-6e" x="150"/>
       <use xlink:href="#KaiTi-67" x="200"/>
       <use xlink:href="#KaiTi-68" x="250"/>
       <use xlink:href="#KaiTi-61" x="300"/>
       <use xlink:href="#KaiTi-69" x="350"/>
      </g>
     </g>
    </g>
    <g id="xtick_24">
     <g id="line2d_24">
      <g>
       <use xlink:href="#m57f5db518b" x="672.05814" y="299.9625" style="stroke: #000000; stroke-width: 0.8"/>
      </g>
     </g>
     <g id="text_24">
      <!-- London -->
      <g transform="translate(674.87064 336.9625) rotate(-90) scale(0.1 -0.1)">
       <use xlink:href="#KaiTi-4c"/>
       <use xlink:href="#KaiTi-6f" x="50"/>
       <use xlink:href="#KaiTi-6e" x="100"/>
       <use xlink:href="#KaiTi-64" x="150"/>
       <use xlink:href="#KaiTi-6f" x="200"/>
       <use xlink:href="#KaiTi-6e" x="250"/>
      </g>
     </g>
    </g>
    <g id="xtick_25">
     <g id="line2d_25">
      <g>
       <use xlink:href="#m57f5db518b" x="697.592003" y="299.9625" style="stroke: #000000; stroke-width: 0.8"/>
      </g>
     </g>
     <g id="text_25">
      <!-- Vienna, Austria -->
      <g transform="translate(700.404503 381.9625) rotate(-90) scale(0.1 -0.1)">
       <defs>
        <path id="KaiTi-56" d="M 3050 4400 
L 1800 75 
L 1300 75 
L 50 4400 
L 650 4400 
L 1525 1125 
L 1575 1125 
L 2450 4400 
L 3050 4400 
z
" transform="scale(0.015625)"/>
       </defs>
       <use xlink:href="#KaiTi-56"/>
       <use xlink:href="#KaiTi-69" x="50"/>
       <use xlink:href="#KaiTi-65" x="100"/>
       <use xlink:href="#KaiTi-6e" x="150"/>
       <use xlink:href="#KaiTi-6e" x="200"/>
       <use xlink:href="#KaiTi-61" x="250"/>
       <use xlink:href="#KaiTi-2c" x="300"/>
       <use xlink:href="#KaiTi-20" x="350"/>
       <use xlink:href="#KaiTi-41" x="400"/>
       <use xlink:href="#KaiTi-75" x="450"/>
       <use xlink:href="#KaiTi-73" x="500"/>
       <use xlink:href="#KaiTi-74" x="550"/>
       <use xlink:href="#KaiTi-72" x="600"/>
       <use xlink:href="#KaiTi-69" x="650"/>
       <use xlink:href="#KaiTi-61" x="700"/>
      </g>
     </g>
    </g>
    <g id="xtick_26">
     <g id="line2d_26">
      <g>
       <use xlink:href="#m57f5db518b" x="723.125865" y="299.9625" style="stroke: #000000; stroke-width: 0.8"/>
      </g>
     </g>
     <g id="text_26">
      <!-- California -->
      <g transform="translate(725.938365 356.9625) rotate(-90) scale(0.1 -0.1)">
       <defs>
        <path id="KaiTi-66" d="M 2850 3825 
Q 2725 3900 2550 3950 
Q 2375 4000 2100 4000 
Q 1825 4000 1725 3862 
Q 1625 3725 1625 3525 
L 1625 2925 
L 2650 2925 
L 2650 2525 
L 1625 2525 
L 1625 125 
L 1125 125 
L 1125 2525 
L 275 2525 
L 275 2925 
L 1125 2925 
L 1125 3500 
Q 1125 3950 1400 4200 
Q 1675 4450 2125 4450 
Q 2400 4450 2562 4412 
Q 2725 4375 2850 4325 
L 2850 3825 
z
" transform="scale(0.015625)"/>
       </defs>
       <use xlink:href="#KaiTi-43"/>
       <use xlink:href="#KaiTi-61" x="50"/>
       <use xlink:href="#KaiTi-6c" x="100"/>
       <use xlink:href="#KaiTi-69" x="150"/>
       <use xlink:href="#KaiTi-66" x="200"/>
       <use xlink:href="#KaiTi-6f" x="250"/>
       <use xlink:href="#KaiTi-72" x="300"/>
       <use xlink:href="#KaiTi-6e" x="350"/>
       <use xlink:href="#KaiTi-69" x="400"/>
       <use xlink:href="#KaiTi-61" x="450"/>
      </g>
     </g>
    </g>
    <g id="xtick_27">
     <g id="line2d_27">
      <g>
       <use xlink:href="#m57f5db518b" x="748.659727" y="299.9625" style="stroke: #000000; stroke-width: 0.8"/>
      </g>
     </g>
     <g id="text_27">
      <!-- United States -->
      <g transform="translate(751.472227 371.9625) rotate(-90) scale(0.1 -0.1)">
       <use xlink:href="#KaiTi-55"/>
       <use xlink:href="#KaiTi-6e" x="50"/>
       <use xlink:href="#KaiTi-69" x="100"/>
       <use xlink:href="#KaiTi-74" x="150"/>
       <use xlink:href="#KaiTi-65" x="200"/>
       <use xlink:href="#KaiTi-64" x="250"/>
       <use xlink:href="#KaiTi-20" x="300"/>
       <use xlink:href="#KaiTi-53" x="350"/>
       <use xlink:href="#KaiTi-74" x="400"/>
       <use xlink:href="#KaiTi-61" x="450"/>
       <use xlink:href="#KaiTi-74" x="500"/>
       <use xlink:href="#KaiTi-65" x="550"/>
       <use xlink:href="#KaiTi-73" x="600"/>
      </g>
     </g>
    </g>
    <g id="xtick_28">
     <g id="line2d_28">
      <g>
       <use xlink:href="#m57f5db518b" x="774.193589" y="299.9625" style="stroke: #000000; stroke-width: 0.8"/>
      </g>
     </g>
     <g id="text_28">
      <!-- Sweden -->
      <g transform="translate(777.006089 336.9625) rotate(-90) scale(0.1 -0.1)">
       <use xlink:href="#KaiTi-53"/>
       <use xlink:href="#KaiTi-77" x="50"/>
       <use xlink:href="#KaiTi-65" x="100"/>
       <use xlink:href="#KaiTi-64" x="150"/>
       <use xlink:href="#KaiTi-65" x="200"/>
       <use xlink:href="#KaiTi-6e" x="250"/>
      </g>
     </g>
    </g>
    <g id="xtick_29">
     <g id="line2d_29">
      <g>
       <use xlink:href="#m57f5db518b" x="799.727451" y="299.9625" style="stroke: #000000; stroke-width: 0.8"/>
      </g>
     </g>
     <g id="text_29">
      <!-- Amsterdam, Netherlands -->
      <g transform="translate(802.539951 416.9625) rotate(-90) scale(0.1 -0.1)">
       <use xlink:href="#KaiTi-41"/>
       <use xlink:href="#KaiTi-6d" x="50"/>
       <use xlink:href="#KaiTi-73" x="100"/>
       <use xlink:href="#KaiTi-74" x="150"/>
       <use xlink:href="#KaiTi-65" x="200"/>
       <use xlink:href="#KaiTi-72" x="250"/>
       <use xlink:href="#KaiTi-64" x="300"/>
       <use xlink:href="#KaiTi-61" x="350"/>
       <use xlink:href="#KaiTi-6d" x="400"/>
       <use xlink:href="#KaiTi-2c" x="450"/>
       <use xlink:href="#KaiTi-20" x="500"/>
       <use xlink:href="#KaiTi-4e" x="550"/>
       <use xlink:href="#KaiTi-65" x="600"/>
       <use xlink:href="#KaiTi-74" x="650"/>
       <use xlink:href="#KaiTi-68" x="700"/>
       <use xlink:href="#KaiTi-65" x="750"/>
       <use xlink:href="#KaiTi-72" x="800"/>
       <use xlink:href="#KaiTi-6c" x="850"/>
       <use xlink:href="#KaiTi-61" x="900"/>
       <use xlink:href="#KaiTi-6e" x="950"/>
       <use xlink:href="#KaiTi-64" x="1000"/>
       <use xlink:href="#KaiTi-73" x="1050"/>
      </g>
     </g>
    </g>
    <g id="xtick_30">
     <g id="line2d_30">
      <g>
       <use xlink:href="#m57f5db518b" x="825.261313" y="299.9625" style="stroke: #000000; stroke-width: 0.8"/>
      </g>
     </g>
     <g id="text_30">
      <!-- Australia -->
      <g transform="translate(828.073813 351.9625) rotate(-90) scale(0.1 -0.1)">
       <use xlink:href="#KaiTi-41"/>
       <use xlink:href="#KaiTi-75" x="50"/>
       <use xlink:href="#KaiTi-73" x="100"/>
       <use xlink:href="#KaiTi-74" x="150"/>
       <use xlink:href="#KaiTi-72" x="200"/>
       <use xlink:href="#KaiTi-61" x="250"/>
       <use xlink:href="#KaiTi-6c" x="300"/>
       <use xlink:href="#KaiTi-69" x="350"/>
       <use xlink:href="#KaiTi-61" x="400"/>
      </g>
     </g>
    </g>
    <g id="text_31">
     <!-- location -->
     <g transform="translate(435.020312 427.8375) scale(0.1 -0.1)">
      <use xlink:href="#KaiTi-6c"/>
      <use xlink:href="#KaiTi-6f" x="50"/>
      <use xlink:href="#KaiTi-63" x="100"/>
      <use xlink:href="#KaiTi-61" x="150"/>
      <use xlink:href="#KaiTi-74" x="200"/>
      <use xlink:href="#KaiTi-69" x="250"/>
      <use xlink:href="#KaiTi-6f" x="300"/>
      <use xlink:href="#KaiTi-6e" x="350"/>
     </g>
    </g>
   </g>
   <g id="matplotlib.axis_2">
    <g id="ytick_1">
     <g id="line2d_31">
      <defs>
       <path id="m8033d82369" d="M 0 0 
L -3.5 0 
" style="stroke: #000000; stroke-width: 0.8"/>
      </defs>
      <g>
       <use xlink:href="#m8033d82369" x="36.520313" y="299.9625" style="stroke: #000000; stroke-width: 0.8"/>
      </g>
     </g>
     <g id="text_32">
      <!-- 0 -->
      <g transform="translate(24.520313 303.4) scale(0.1 -0.1)">
       <defs>
        <path id="KaiTi-30" d="M 225 2537 
Q 250 3200 412 3587 
Q 575 3975 875 4225 
Q 1175 4475 1612 4475 
Q 2050 4475 2375 4112 
Q 2700 3750 2800 3200 
Q 2900 2650 2862 1937 
Q 2825 1225 2612 775 
Q 2400 325 1975 150 
Q 1550 -25 1125 187 
Q 700 400 525 750 
Q 350 1100 275 1487 
Q 200 1875 225 2537 
z
M 750 2687 
Q 675 2000 800 1462 
Q 925 925 1212 700 
Q 1500 475 1800 612 
Q 2100 750 2237 1162 
Q 2375 1575 2375 2062 
Q 2375 2550 2337 2950 
Q 2300 3350 2112 3675 
Q 1925 4000 1612 4012 
Q 1300 4025 1062 3700 
Q 825 3375 750 2687 
z
" transform="scale(0.015625)"/>
       </defs>
       <use xlink:href="#KaiTi-30"/>
      </g>
     </g>
    </g>
    <g id="ytick_2">
     <g id="line2d_32">
      <g>
       <use xlink:href="#m8033d82369" x="36.520313" y="242.571196" style="stroke: #000000; stroke-width: 0.8"/>
      </g>
     </g>
     <g id="text_33">
      <!-- 5 -->
      <g transform="translate(24.520313 246.008696) scale(0.1 -0.1)">
       <defs>
        <path id="KaiTi-35" d="M 550 1325 
Q 725 650 1150 575 
Q 1575 500 1837 662 
Q 2100 825 2212 1087 
Q 2325 1350 2312 1675 
Q 2300 2000 2137 2225 
Q 1975 2450 1725 2525 
Q 1475 2600 1162 2525 
Q 850 2450 650 2175 
L 225 2225 
Q 275 2375 700 4375 
L 2675 4375 
L 2675 3925 
L 1075 3925 
Q 950 3250 825 2850 
Q 1200 3025 1525 3012 
Q 1850 3000 2150 2862 
Q 2450 2725 2587 2487 
Q 2725 2250 2787 2012 
Q 2850 1775 2837 1500 
Q 2825 1225 2725 937 
Q 2625 650 2425 462 
Q 2225 275 1937 162 
Q 1650 50 1275 75 
Q 900 100 562 350 
Q 225 600 100 1200 
L 550 1325 
z
" transform="scale(0.015625)"/>
       </defs>
       <use xlink:href="#KaiTi-35"/>
      </g>
     </g>
    </g>
    <g id="ytick_3">
     <g id="line2d_33">
      <g>
       <use xlink:href="#m8033d82369" x="36.520313" y="185.179891" style="stroke: #000000; stroke-width: 0.8"/>
      </g>
     </g>
     <g id="text_34">
      <!-- 10 -->
      <g transform="translate(19.520313 188.617391) scale(0.1 -0.1)">
       <defs>
        <path id="KaiTi-31" d="M 1400 3600 
Q 1075 3275 575 2975 
L 575 3450 
Q 1200 3875 1600 4450 
L 1900 4450 
L 1900 150 
L 1400 150 
L 1400 3600 
z
" transform="scale(0.015625)"/>
       </defs>
       <use xlink:href="#KaiTi-31"/>
       <use xlink:href="#KaiTi-30" x="50"/>
      </g>
     </g>
    </g>
    <g id="ytick_4">
     <g id="line2d_34">
      <g>
       <use xlink:href="#m8033d82369" x="36.520313" y="127.788587" style="stroke: #000000; stroke-width: 0.8"/>
      </g>
     </g>
     <g id="text_35">
      <!-- 15 -->
      <g transform="translate(19.520313 131.226087) scale(0.1 -0.1)">
       <use xlink:href="#KaiTi-31"/>
       <use xlink:href="#KaiTi-35" x="50"/>
      </g>
     </g>
    </g>
    <g id="ytick_5">
     <g id="line2d_35">
      <g>
       <use xlink:href="#m8033d82369" x="36.520313" y="70.397283" style="stroke: #000000; stroke-width: 0.8"/>
      </g>
     </g>
     <g id="text_36">
      <!-- 20 -->
      <g transform="translate(19.520313 73.834783) scale(0.1 -0.1)">
       <defs>
        <path id="KaiTi-32" d="M 300 250 
Q 325 625 650 925 
Q 975 1225 1475 1862 
Q 1975 2500 2125 2850 
Q 2275 3200 2237 3450 
Q 2200 3700 2000 3862 
Q 1800 4025 1537 4000 
Q 1275 3975 1037 3800 
Q 800 3625 675 3275 
L 200 3350 
Q 400 3925 712 4187 
Q 1025 4450 1450 4475 
Q 1700 4500 1900 4462 
Q 2100 4425 2312 4287 
Q 2525 4150 2662 3875 
Q 2800 3600 2762 3212 
Q 2725 2825 2375 2287 
Q 2025 1750 1025 600 
L 2825 600 
L 2825 150 
L 300 150 
L 300 250 
z
" transform="scale(0.015625)"/>
       </defs>
       <use xlink:href="#KaiTi-32"/>
       <use xlink:href="#KaiTi-30" x="50"/>
      </g>
     </g>
    </g>
    <g id="text_37">
     <!--  -->
     <g transform="translate(14.270313 171.3625) rotate(-90) scale(0.1 -0.1)">
      <defs>
       <path id="KaiTi-4eba" d="M 2900 2975 
Q 3325 2450 3975 1812 
Q 4625 1175 5037 937 
Q 5450 700 5950 537 
Q 6450 375 5925 312 
Q 5400 250 5037 287 
Q 4675 325 4487 587 
Q 4300 850 3775 1537 
Q 3250 2225 2825 2850 
Q 2375 2075 2000 1562 
Q 1625 1050 1262 750 
Q 900 450 500 300 
Q 100 150 550 487 
Q 1000 825 1450 1375 
Q 1900 1925 2250 2612 
Q 2600 3300 2750 3737 
Q 2900 4175 2812 4450 
Q 2725 4725 3000 4600 
Q 3275 4475 3425 4350 
Q 3575 4225 3450 4087 
Q 3325 3950 3187 3637 
Q 3050 3325 2900 2975 
z
" transform="scale(0.015625)"/>
       <path id="KaiTi-6570" d="M 4100 1300 
Q 4275 1625 4312 1987 
Q 4350 2350 4325 2725 
Q 4125 2700 3875 2725 
Q 3575 2375 3325 2225 
Q 3075 2075 3387 2462 
Q 3700 2850 3912 3487 
Q 4125 4125 4100 4275 
Q 4075 4425 4062 4537 
Q 4050 4650 4362 4487 
Q 4675 4325 4562 4175 
Q 4450 4025 4337 3712 
Q 4225 3400 3925 2850 
Q 4525 2975 4912 3162 
Q 5300 3350 5512 3212 
Q 5725 3075 5450 2975 
Q 5175 2875 4425 2725 
Q 4800 2600 4712 2350 
Q 4625 2100 4562 1775 
Q 4500 1450 4325 1025 
Q 4550 750 4837 512 
Q 5125 275 5437 150 
Q 5750 25 5975 -62 
Q 6200 -150 5737 -187 
Q 5275 -225 5037 -187 
Q 4800 -150 4687 25 
Q 4575 200 4125 800 
Q 3900 550 3675 400 
Q 3450 250 3175 175 
Q 2900 100 3162 262 
Q 3425 425 3625 625 
Q 3825 825 3975 1050 
Q 3800 1350 3637 1562 
Q 3475 1775 3362 1900 
Q 3250 2025 3387 2037 
Q 3525 2050 3612 1950 
Q 3700 1850 4100 1300 
z
M 2575 1600 
Q 2625 1750 2612 1862 
Q 2600 1975 2750 1875 
Q 2900 1775 2962 1700 
Q 3025 1625 2962 1500 
Q 2900 1375 2800 1112 
Q 2700 850 2525 550 
Q 2700 425 2837 300 
Q 2975 175 2925 -62 
Q 2875 -300 2712 -100 
Q 2550 100 2325 275 
Q 1925 -25 1587 -150 
Q 1250 -275 912 -300 
Q 575 -325 850 -212 
Q 1125 -100 1450 50 
Q 1775 200 2050 475 
Q 1750 700 1637 750 
Q 1525 800 1587 900 
Q 1650 1000 1700 1250 
Q 1050 1175 862 1062 
Q 675 950 425 1150 
Q 175 1350 500 1337 
Q 825 1325 1775 1475 
Q 1850 1800 1800 1987 
Q 1750 2175 2025 2037 
Q 2300 1900 2250 1825 
Q 2200 1750 2075 1525 
L 2575 1600 
z
M 2875 3425 
Q 3125 3475 3225 3387 
Q 3325 3300 3100 3225 
Q 2875 3150 2350 3075 
L 2350 2875 
Q 2775 2825 2975 2687 
Q 3175 2550 3112 2350 
Q 3050 2150 2812 2412 
Q 2575 2675 2350 2800 
Q 2350 2500 2300 2287 
Q 2250 2075 2137 2262 
Q 2025 2450 2062 2600 
Q 2100 2750 2075 2950 
Q 1475 2175 975 1937 
Q 475 1700 762 1925 
Q 1050 2150 1362 2475 
Q 1675 2800 1800 3050 
Q 1450 2925 1312 2900 
Q 1175 2875 975 3012 
Q 775 3150 1050 3137 
Q 1325 3125 2100 3275 
L 2100 4175 
Q 2100 4700 2012 4837 
Q 1925 4975 1987 4987 
Q 2050 5000 2300 4887 
Q 2550 4775 2462 4625 
Q 2375 4475 2375 3325 
L 2875 3425 
z
M 2250 675 
Q 2450 925 2575 1425 
L 2000 1325 
Q 1825 925 1837 875 
Q 1850 825 1937 800 
Q 2025 775 2250 675 
z
M 3250 4275 
Q 3450 4150 3300 4087 
Q 3150 4025 2762 3737 
Q 2375 3450 2600 3737 
Q 2825 4025 2900 4237 
Q 2975 4450 3025 4425 
Q 3075 4400 3250 4275 
z
M 1550 3600 
Q 1350 3875 1287 4000 
Q 1225 4125 1537 4050 
Q 1850 3975 1812 3662 
Q 1775 3350 1550 3600 
z
" transform="scale(0.015625)"/>
      </defs>
      <use xlink:href="#KaiTi-4eba"/>
      <use xlink:href="#KaiTi-6570" x="100"/>
     </g>
    </g>
   </g>
   <g id="patch_33">
    <path d="M 36.520313 299.9625 
L 36.520313 22.7625 
" style="fill: none; stroke: #000000; stroke-width: 0.8; stroke-linejoin: miter; stroke-linecap: square"/>
   </g>
   <g id="patch_34">
    <path d="M 873.520313 299.9625 
L 873.520313 22.7625 
" style="fill: none; stroke: #000000; stroke-width: 0.8; stroke-linejoin: miter; stroke-linecap: square"/>
   </g>
   <g id="patch_35">
    <path d="M 36.520313 299.9625 
L 873.520313 299.9625 
" style="fill: none; stroke: #000000; stroke-width: 0.8; stroke-linejoin: miter; stroke-linecap: square"/>
   </g>
   <g id="patch_36">
    <path d="M 36.520313 22.7625 
L 873.520313 22.7625 
" style="fill: none; stroke: #000000; stroke-width: 0.8; stroke-linejoin: miter; stroke-linecap: square"/>
   </g>
   <g id="text_38">
    <!-- 23 -->
    <g transform="translate(79.779312 34.7125) scale(0.1 -0.1)">
     <defs>
      <path id="KaiTi-33" d="M 250 1225 
L 700 1300 
Q 800 975 1025 762 
Q 1250 550 1587 562 
Q 1925 575 2125 837 
Q 2325 1100 2300 1437 
Q 2275 1775 2037 1962 
Q 1800 2150 1275 2225 
L 1275 2550 
Q 1800 2600 2037 2825 
Q 2275 3050 2250 3412 
Q 2225 3775 1925 3937 
Q 1625 4100 1287 3975 
Q 950 3850 750 3275 
L 300 3350 
Q 450 3800 712 4100 
Q 975 4400 1425 4450 
Q 1875 4500 2212 4337 
Q 2550 4175 2687 3837 
Q 2825 3500 2725 3100 
Q 2625 2700 2150 2400 
Q 2500 2250 2687 1950 
Q 2875 1650 2812 1162 
Q 2750 675 2375 375 
Q 2000 75 1525 87 
Q 1050 100 700 387 
Q 350 675 250 1225 
z
" transform="scale(0.015625)"/>
     </defs>
     <use xlink:href="#KaiTi-32"/>
     <use xlink:href="#KaiTi-33" x="50"/>
    </g>
   </g>
   <g id="text_39">
    <!-- 7 -->
    <g transform="translate(107.813174 218.364674) scale(0.1 -0.1)">
     <defs>
      <path id="KaiTi-37" d="M 850 150 
Q 1300 2050 2425 3925 
L 275 3925 
L 275 4375 
L 2950 4375 
L 2950 3950 
Q 1775 2050 1400 150 
L 850 150 
z
" transform="scale(0.015625)"/>
     </defs>
     <use xlink:href="#KaiTi-37"/>
    </g>
   </g>
   <g id="text_40">
    <!-- 7 -->
    <g transform="translate(133.347036 218.364674) scale(0.1 -0.1)">
     <use xlink:href="#KaiTi-37"/>
    </g>
   </g>
   <g id="text_41">
    <!-- 6 -->
    <g transform="translate(158.880898 229.842935) scale(0.1 -0.1)">
     <defs>
      <path id="KaiTi-36" d="M 250 1612 
Q 275 1975 387 2225 
Q 500 2475 725 2850 
L 1750 4450 
L 2325 4450 
L 1275 2800 
Q 1950 2975 2350 2750 
Q 2750 2525 2887 2237 
Q 3025 1950 3037 1612 
Q 3050 1275 2937 950 
Q 2825 625 2537 362 
Q 2250 100 1737 75 
Q 1225 50 862 262 
Q 500 475 362 862 
Q 225 1250 250 1612 
z
M 1025 787 
Q 1250 550 1625 525 
Q 2000 500 2250 775 
Q 2500 1050 2500 1575 
Q 2500 2100 2187 2300 
Q 1875 2500 1487 2450 
Q 1100 2400 925 2075 
Q 750 1750 775 1387 
Q 800 1025 1025 787 
z
" transform="scale(0.015625)"/>
     </defs>
     <use xlink:href="#KaiTi-36"/>
    </g>
   </g>
   <g id="text_42">
    <!-- 6 -->
    <g transform="translate(184.41476 229.842935) scale(0.1 -0.1)">
     <use xlink:href="#KaiTi-36"/>
    </g>
   </g>
   <g id="text_43">
    <!-- 6 -->
    <g transform="translate(209.948622 229.842935) scale(0.1 -0.1)">
     <use xlink:href="#KaiTi-36"/>
    </g>
   </g>
   <g id="text_44">
    <!-- 5 -->
    <g transform="translate(235.482485 241.321196) scale(0.1 -0.1)">
     <use xlink:href="#KaiTi-35"/>
    </g>
   </g>
   <g id="text_45">
    <!-- 5 -->
    <g transform="translate(261.016347 241.321196) scale(0.1 -0.1)">
     <use xlink:href="#KaiTi-35"/>
    </g>
   </g>
   <g id="text_46">
    <!-- 5 -->
    <g transform="translate(286.550209 241.321196) scale(0.1 -0.1)">
     <use xlink:href="#KaiTi-35"/>
    </g>
   </g>
   <g id="text_47">
    <!-- 4 -->
    <g transform="translate(312.084071 252.799457) scale(0.1 -0.1)">
     <defs>
      <path id="KaiTi-34" d="M 2000 1100 
L 75 1100 
L 75 1525 
L 2100 4450 
L 2475 4450 
L 2475 1525 
L 3075 1525 
L 3075 1100 
L 2475 1100 
L 2475 150 
L 2000 150 
L 2000 1100 
z
M 2000 1525 
L 2000 3500 
L 600 1525 
L 2000 1525 
z
" transform="scale(0.015625)"/>
     </defs>
     <use xlink:href="#KaiTi-34"/>
    </g>
   </g>
   <g id="text_48">
    <!-- 4 -->
    <g transform="translate(337.617933 252.799457) scale(0.1 -0.1)">
     <use xlink:href="#KaiTi-34"/>
    </g>
   </g>
   <g id="text_49">
    <!-- 4 -->
    <g transform="translate(363.151795 252.799457) scale(0.1 -0.1)">
     <use xlink:href="#KaiTi-34"/>
    </g>
   </g>
   <g id="text_50">
    <!-- 4 -->
    <g transform="translate(388.685657 252.799457) scale(0.1 -0.1)">
     <use xlink:href="#KaiTi-34"/>
    </g>
   </g>
   <g id="text_51">
    <!-- 4 -->
    <g transform="translate(414.219519 252.799457) scale(0.1 -0.1)">
     <use xlink:href="#KaiTi-34"/>
    </g>
   </g>
   <g id="text_52">
    <!-- 4 -->
    <g transform="translate(439.753381 252.799457) scale(0.1 -0.1)">
     <use xlink:href="#KaiTi-34"/>
    </g>
   </g>
   <g id="text_53">
    <!-- 4 -->
    <g transform="translate(465.287244 252.799457) scale(0.1 -0.1)">
     <use xlink:href="#KaiTi-34"/>
    </g>
   </g>
   <g id="text_54">
    <!-- 3 -->
    <g transform="translate(490.821106 264.277717) scale(0.1 -0.1)">
     <use xlink:href="#KaiTi-33"/>
    </g>
   </g>
   <g id="text_55">
    <!-- 3 -->
    <g transform="translate(516.354968 264.277717) scale(0.1 -0.1)">
     <use xlink:href="#KaiTi-33"/>
    </g>
   </g>
   <g id="text_56">
    <!-- 3 -->
    <g transform="translate(541.88883 264.277717) scale(0.1 -0.1)">
     <use xlink:href="#KaiTi-33"/>
    </g>
   </g>
   <g id="text_57">
    <!-- 3 -->
    <g transform="translate(567.422692 264.277717) scale(0.1 -0.1)">
     <use xlink:href="#KaiTi-33"/>
    </g>
   </g>
   <g id="text_58">
    <!-- 3 -->
    <g transform="translate(592.956554 264.277717) scale(0.1 -0.1)">
     <use xlink:href="#KaiTi-33"/>
    </g>
   </g>
   <g id="text_59">
    <!-- 3 -->
    <g transform="translate(618.490416 264.277717) scale(0.1 -0.1)">
     <use xlink:href="#KaiTi-33"/>
    </g>
   </g>
   <g id="text_60">
    <!-- 3 -->
    <g transform="translate(644.024278 264.277717) scale(0.1 -0.1)">
     <use xlink:href="#KaiTi-33"/>
    </g>
   </g>
   <g id="text_61">
    <!-- 3 -->
    <g transform="translate(669.55814 264.277717) scale(0.1 -0.1)">
     <use xlink:href="#KaiTi-33"/>
    </g>
   </g>
   <g id="text_62">
    <!-- 3 -->
    <g transform="translate(695.092003 264.277717) scale(0.1 -0.1)">
     <use xlink:href="#KaiTi-33"/>
    </g>
   </g>
   <g id="text_63">
    <!-- 3 -->
    <g transform="translate(720.625865 264.277717) scale(0.1 -0.1)">
     <use xlink:href="#KaiTi-33"/>
    </g>
   </g>
   <g id="text_64">
    <!-- 3 -->
    <g transform="translate(746.159727 264.277717) scale(0.1 -0.1)">
     <use xlink:href="#KaiTi-33"/>
    </g>
   </g>
   <g id="text_65">
    <!-- 3 -->
    <g transform="translate(771.693589 264.277717) scale(0.1 -0.1)">
     <use xlink:href="#KaiTi-33"/>
    </g>
   </g>
   <g id="text_66">
    <!-- 3 -->
    <g transform="translate(797.227451 264.277717) scale(0.1 -0.1)">
     <use xlink:href="#KaiTi-33"/>
    </g>
   </g>
   <g id="text_67">
    <!-- 3 -->
    <g transform="translate(822.761313 264.277717) scale(0.1 -0.1)">
     <use xlink:href="#KaiTi-33"/>
    </g>
   </g>
   <g id="text_68">
    <!-- -location -->
    <g transform="translate(398.020312 16.7625) scale(0.12 -0.12)">
     <defs>
      <path id="KaiTi-2d" d="M 2975 2125 
L 125 2125 
L 125 2525 
L 2975 2525 
L 2975 2125 
z
" transform="scale(0.015625)"/>
      <path id="KaiTi-5206" d="M 4250 2425 
Q 4625 2175 4462 2025 
Q 4300 1875 4200 1600 
Q 4125 625 3900 200 
Q 3675 -225 3325 -387 
Q 2975 -550 2962 -300 
Q 2950 -50 2762 212 
Q 2575 475 2737 400 
Q 2900 325 3200 200 
Q 3475 200 3637 662 
Q 3800 1125 3825 1512 
Q 3850 1900 3825 2075 
Q 3800 2250 3612 2237 
Q 3425 2225 2600 2075 
Q 2925 1925 2800 1775 
Q 2675 1625 2612 1450 
Q 2550 1275 2262 862 
Q 1975 450 1600 162 
Q 1225 -125 950 -162 
Q 675 -200 887 -75 
Q 1100 50 1425 350 
Q 1750 650 2050 1162 
Q 2350 1675 2300 2000 
Q 2075 1950 1875 1887 
Q 1675 1825 1450 2000 
Q 1250 2150 1600 2162 
Q 1950 2175 2750 2300 
Q 3475 2425 3662 2550 
Q 3850 2675 4250 2425 
z
M 2775 5075 
Q 3150 5075 3325 4787 
Q 3500 4500 3950 4025 
Q 4400 3550 4825 3187 
Q 5250 2825 5762 2625 
Q 6275 2425 6062 2375 
Q 5850 2325 5300 2350 
Q 4750 2375 4625 2550 
Q 4500 2725 4187 3175 
Q 3875 3625 3662 3912 
Q 3450 4200 3250 4475 
Q 3050 4750 2912 4825 
Q 2775 4900 2687 4925 
Q 2600 4950 2575 5012 
Q 2550 5075 2775 5075 
z
M 2350 3575 
Q 2000 3050 1637 2700 
Q 1275 2350 950 2137 
Q 625 1925 475 1887 
Q 325 1850 475 1987 
Q 625 2125 950 2412 
Q 1275 2700 1600 3162 
Q 1925 3625 1962 3825 
Q 2000 4025 1962 4150 
Q 1925 4275 2050 4275 
Q 2175 4275 2462 4162 
Q 2750 4050 2600 3912 
Q 2450 3775 2350 3575 
z
" transform="scale(0.015625)"/>
      <path id="KaiTi-5e03" d="M 2625 2350 
Q 2625 2000 2612 1587 
Q 2600 1175 2500 875 
Q 2400 575 2275 850 
Q 2150 1125 2225 1287 
Q 2300 1450 2325 1887 
Q 2350 2325 2250 2550 
Q 2000 2175 1625 1825 
Q 1250 1475 700 1237 
Q 150 1000 687 1375 
Q 1225 1750 1725 2362 
Q 2225 2975 2625 3725 
Q 1775 3625 1500 3562 
Q 1225 3500 975 3712 
Q 725 3925 1062 3900 
Q 1400 3875 2750 4025 
Q 2850 4300 2925 4575 
Q 3000 4850 2962 5025 
Q 2925 5200 3100 5125 
Q 3275 5050 3412 4950 
Q 3550 4850 3450 4712 
Q 3350 4575 3175 4075 
Q 3875 4150 4187 4187 
Q 4500 4225 4912 4287 
Q 5325 4350 5537 4250 
Q 5750 4150 5800 4025 
Q 5850 3900 5512 3925 
Q 5175 3950 4562 3912 
Q 3950 3875 3075 3800 
Q 2575 2975 2375 2700 
Q 2550 2575 2725 2575 
Q 2900 2575 3475 2650 
Q 3475 3350 3362 3550 
Q 3250 3750 3475 3700 
Q 3700 3650 3812 3587 
Q 3925 3525 3875 3375 
Q 3825 3225 3800 2675 
Q 4425 2750 4575 2812 
Q 4725 2875 4887 2800 
Q 5050 2725 5187 2625 
Q 5325 2525 5225 2375 
Q 5125 2225 5112 1837 
Q 5100 1450 5037 1237 
Q 4975 1025 4800 825 
Q 4625 625 4575 825 
Q 4525 1025 4200 1262 
Q 3875 1500 4225 1412 
Q 4575 1325 4662 1437 
Q 4750 1550 4750 1975 
Q 4750 2425 4662 2487 
Q 4575 2550 4362 2537 
Q 4150 2525 3800 2450 
Q 3800 850 3787 512 
Q 3775 175 3725 -262 
Q 3675 -700 3587 -687 
Q 3500 -675 3487 -112 
Q 3475 450 3475 2425 
Q 2900 2375 2625 2350 
z
" transform="scale(0.015625)"/>
      <path id="KaiTi-56fe" d="M 4750 150 
Q 4000 175 1475 50 
Q 1450 -425 1250 -87 
Q 1050 250 1150 625 
Q 1250 1000 1287 1725 
Q 1325 2450 1325 3300 
Q 1325 4150 1175 4362 
Q 1025 4575 1125 4575 
Q 1250 4575 1412 4525 
Q 1575 4475 2000 4500 
Q 2425 4525 3287 4650 
Q 4150 4775 4350 4862 
Q 4550 4950 4800 4837 
Q 5050 4725 5212 4550 
Q 5375 4375 5287 4200 
Q 5200 4025 5237 2800 
Q 5275 1575 5337 962 
Q 5400 350 5337 -25 
Q 5275 -400 5162 -512 
Q 5050 -625 5000 -425 
Q 4950 -225 4750 150 
z
M 1500 275 
Q 3050 375 3537 425 
Q 4025 475 4262 487 
Q 4500 500 4662 375 
Q 4825 250 4887 487 
Q 4950 725 4937 1562 
Q 4925 2400 4900 3250 
Q 4875 4100 4712 4337 
Q 4550 4575 4150 4537 
Q 3750 4500 1625 4275 
Q 1625 2375 1500 275 
z
M 2825 3650 
Q 3025 3625 3212 3675 
Q 3400 3725 3487 3787 
Q 3575 3850 3725 3800 
Q 3875 3750 4000 3650 
Q 4125 3550 3987 3462 
Q 3850 3375 3725 3175 
Q 3600 2975 3400 2725 
Q 3825 2400 4100 2275 
Q 4375 2150 4687 2050 
Q 5000 1950 4700 1887 
Q 4400 1825 4125 1812 
Q 3850 1800 3712 1987 
Q 3575 2175 3200 2500 
Q 2950 2225 2562 1950 
Q 2175 1675 1825 1575 
Q 1475 1475 1775 1650 
Q 2075 1825 2412 2137 
Q 2750 2450 3000 2750 
Q 2650 3025 2475 3125 
Q 2175 2850 1987 2762 
Q 1800 2675 2025 2900 
Q 2250 3125 2437 3537 
Q 2625 3950 2587 4175 
Q 2550 4400 2750 4325 
Q 2950 4250 3050 4137 
Q 3150 4025 3062 3937 
Q 2975 3850 2825 3650 
z
M 2825 1175 
Q 2600 1500 2962 1387 
Q 3325 1275 3500 1112 
Q 3675 950 3625 712 
Q 3575 475 3325 675 
Q 3075 875 2825 1175 
z
M 2550 3225 
Q 2725 3200 2825 3125 
Q 2925 3050 3125 2925 
Q 3325 3175 3375 3337 
Q 3425 3500 3275 3500 
Q 3150 3500 3025 3462 
Q 2900 3425 2750 3525 
L 2550 3225 
z
M 3325 1550 
Q 3050 1800 2950 1975 
Q 2850 2150 3237 2025 
Q 3625 1900 3625 1600 
Q 3625 1325 3325 1550 
z
" transform="scale(0.015625)"/>
     </defs>
     <use xlink:href="#KaiTi-4eba"/>
     <use xlink:href="#KaiTi-6570" x="100"/>
     <use xlink:href="#KaiTi-2d" x="200"/>
     <use xlink:href="#KaiTi-6c" x="250"/>
     <use xlink:href="#KaiTi-6f" x="300"/>
     <use xlink:href="#KaiTi-63" x="350"/>
     <use xlink:href="#KaiTi-61" x="400"/>
     <use xlink:href="#KaiTi-74" x="450"/>
     <use xlink:href="#KaiTi-69" x="500"/>
     <use xlink:href="#KaiTi-6f" x="550"/>
     <use xlink:href="#KaiTi-6e" x="600"/>
     <use xlink:href="#KaiTi-5206" x="650"/>
     <use xlink:href="#KaiTi-5e03" x="750"/>
     <use xlink:href="#KaiTi-56fe" x="850"/>
    </g>
   </g>
  </g>
 </g>
 <defs>
  <clipPath id="pafc381d8c7">
   <rect x="36.520313" y="22.7625" width="837" height="277.2"/>
  </clipPath>
 </defs>
</svg>
